<svg xmlns="http://www.w3.org/2000/svg" viewBox="0 0 223.09 219.38"><defs><style>.cls-1{fill:#fff;}</style></defs><g id="Calque_2" data-name="Calque 2"><g id="Calque_1-2" data-name="Calque 1"><path class="cls-1" d="M110.53,114.13l-.55,0a7.27,7.27,0,0,1-.79,1.17c-5.35,5.37-10.74,10.72-16.07,16.12a3.25,3.25,0,0,1-2.56,1q-35.1,0-70.21,0c-11.43,0-20.3,8.71-20.33,20q0,23.46,0,46.93A19.14,19.14,0,0,0,2.8,209.54c4.12,6.66,10.17,9.84,17.94,9.84H201.35c1,0,2,0,2.92-.09a19.81,19.81,0,0,0,18.81-19.76c0-15.77,0-31.54,0-47.31a20.79,20.79,0,0,0-.92-5.86c-2.57-8.46-10.25-13.9-19.44-13.9q-36.5,0-73,0a2.69,2.69,0,0,1-2.12-.86c-5.4-5.45-10.84-10.86-16.25-16.3A6.89,6.89,0,0,1,110.53,114.13ZM89.56,69H6.33v45.31c0,2,.35,2.35,2.34,2.35,5.3,0,10.6,0,15.9,0,2.82,0,5.64.19,8.47.25a1.87,1.87,0,0,0,.76-.26c0-.94,0-1.74,0-2.53.07-4.81.18-9.61.21-14.42,0-7,0-13.9,0-20.86,0-3.94,2.25-6.38,6.1-6.66,1.34-.1,2.69-.13,4-.13,11.19,0,22.39-.11,33.58,0,4.18.06,6.51,2.48,7.13,6.39a52.56,52.56,0,0,1,.52,7.93c0,9.29,0,18.57,0,27.86a3.25,3.25,0,0,0,.3,1.56,1.72,1.72,0,0,0,2.29.8c.88-.39,1.8-.81,1.79-2.15-.07-4.88-.11-9.75,0-14.63.07-3.51,1.21-5.87,5-5.85h2.49V81.33c-1.24,0-2.42,0-3.59,0a3.09,3.09,0,0,1-3.25-2,12.17,12.17,0,0,1-.9-3.75C89.46,73.45,89.56,71.25,89.56,69ZM34,66.17V64.44c0-10.85,0-21.7,0-32.55,0-4.56,2.08-7.08,7-7.06q19.64.06,39.29,0a4.87,4.87,0,0,1,3.32,1.31c1.88,1.63,1.93,3.89,1.94,6.06.06,10.64,0,21.28,0,31.92a3.23,3.23,0,0,0,0,1.25,2.33,2.33,0,0,0,1,1,3.93,3.93,0,0,0,1.38.06c1.07,0,1.54-.49,1.53-1.54,0-1.7,0-3.39,0-5.09V53.1a2.65,2.65,0,0,1,.86-.09c1.62.53,2.11-.48,2.42-1.73a22.74,22.74,0,0,0,.23-10.75c-.66-2.75-.59-2.64-3-2.55a2.26,2.26,0,0,1-.63-.18c0-2.63-.13-5.22,0-7.79a7.79,7.79,0,0,0-1-4.36c-1.92-3.53-4.8-5.73-9-5.71-7,0-14.07.13-21.1.12a4.44,4.44,0,0,1-2.55-.83,7.12,7.12,0,0,1-1.72-10,6.34,6.34,0,0,0,.41-6.58C53.28.13,51-.08,48.71,0a5.3,5.3,0,0,0-4.84,7,22.35,22.35,0,0,0,1.48,2.93c.64,1.24,1.4,2.53.86,3.95a22.51,22.51,0,0,1-2,4,3.88,3.88,0,0,1-3,2.18c-1.51.1-3,.19-4.55.21-7,.12-14,.11-21.07.34-4.43.15-7,1.73-8.42,6.27a16.61,16.61,0,0,0-.61,4.5c-.13,5.71-.19,11.43-.22,17.14s0,11.43,0,17.14a2,2,0,0,0,.08.48Zm183.22,6.06h.13c0,10.68,0,21.36,0,32a27.51,27.51,0,0,1-.57,5.27c-.67,3.37-2.24,4-5,4.1-9.27.16-18.55.18-27.83.25-2.29,0-4.58,0-6.87,0a32.55,32.55,0,0,1-5-.25c-3.31-.58-5.66-2.46-5.66-6.44,0-22.22,0-44.43,0-66.65a37.68,37.68,0,0,1,.61-5.26,1.68,1.68,0,0,0-1.36-2c-1.85-.29-2.79.62-2.79,2.74q.09,25.15.19,50.31c0,7.71,0,15.43,0,23.14a4.65,4.65,0,0,0,.49,2c2,3.69,5.22,5.33,9.44,5.3,12.89-.09,25.78-.08,38.66-.11a7.92,7.92,0,0,0,8.14-6.53,35.93,35.93,0,0,0,.71-6.61c.05-4.44-.16-8.89-.17-13.33q0-29,0-58a42.49,42.49,0,0,0-.35-6.58A8.78,8.78,0,0,0,210.83,18c-2.92,0-5.85,0-8.77,0q-9.09,0-18.18-.12c-1.35,0-2.13.62-2.13,1.79s.65,1.63,2,1.63h27.47a5.18,5.18,0,0,1,5.19,3.32,13.3,13.3,0,0,1,.54,3.49q.19,7.09.23,14.2C217.25,52.31,217.23,62.27,217.23,72.23Zm-44.48-1.8h-.09V35.19a2.28,2.28,0,0,0-2.3-2.45c-1.29.13-1.94,1.19-1.7,2.74a15.48,15.48,0,0,1,.26,2.13c.09,15.3.19,30.6.21,45.9,0,7.49-.14,15-.19,22.48,0,2.88,1.24,4.62,3.75,5.07a28.77,28.77,0,0,0,4.89.51c9.88.05,19.76,0,29.63,0a14.88,14.88,0,0,1,1.89.14c3,.38,5.11-1.08,5.43-4.11a66.58,66.58,0,0,0,.19-6.78q0-35.92,0-71.86a8.66,8.66,0,0,1,0-1c.37-3.19-1.36-4.48-4.31-4.52-9-.14-18-.1-26.95-.13-1.42,0-2.14.56-2.11,1.6s.78,1.69,2.08,1.7l23.77.17c3,0,3.9.91,3.91,4q.07,19.39.13,38.79,0,16.72,0,33.45a11.38,11.38,0,0,1-.15,2c-.48,2.5-1.65,3.45-4.18,3.45q-14.74,0-29.51,0a8.93,8.93,0,0,1-2.25-.26c-2.15-.57-2.41-1-2.41-3.17Zm-7-38.42c8.59-.14,15.23-6.58,15.25-15.18a15.18,15.18,0,0,0-30.36,0C150.64,25.4,157.28,31.79,165.74,32Zm-53.3,26.07H124c.24-2,.25-2,2-2.81a10.91,10.91,0,0,0,1.74-1c5.59-3.94,6.78-9.77,6.86-16.06,0-.73-.45-1.12-1.26-1.09-1.27,0-2.54,0-3.81,0-2.27,0-1.86-.06-1.89,1.92-.07,4-1.41,7.45-5.36,9.12-2.78,1.16-5.73,1.62-8.45-.29-3.34-2.33-4.17-5.9-4.39-9.64-.06-1.14-.35-1.53-1.43-1.5-1.39,0-2.79,0-4.19,0s-2,.39-1.84,1.89a36.91,36.91,0,0,0,1,7,14.46,14.46,0,0,0,7.15,9.27C111.54,55.59,113.15,56,112.44,58.08Zm20.44-30.42a11.14,11.14,0,0,0-.73-.87c-2.17-2.13-4.37-4.24-6.54-6.37s-4.07-4.07-6.11-6.1c-.45-.44-.88-1-1.58-.24Q111.48,20.65,105,27.17a.87.87,0,0,0,0,1.41q6.52,6.38,13,12.76c.61.6,1.06.46,1.59-.09q6.31-6.44,12.63-12.84C132.44,28.2,132.62,28,132.88,27.66ZM77.52,65.81c0-1.81,0-3.46,0-5.1a3.07,3.07,0,0,0-3.14-3.12c-3.3-.07-6.6-.16-9.9-.17-6,0-12,0-17.93,0-2.08,0-3.47,1-3.7,3a46.29,46.29,0,0,0-.05,5.4ZM53.9,44.52a9.09,9.09,0,1,0-9,9.11A8.88,8.88,0,0,0,53.9,44.52Zm29.89-.8a8.69,8.69,0,0,0-8.93-8.86,8.9,8.9,0,1,0,8.93,8.86Zm104.7,4.05.27,0c1.83,2.94,3.66,5.89,5.52,8.82a1.76,1.76,0,0,0,1,.82,23.18,23.18,0,0,0,2.77,0V42.47h-3.1V52a2.66,2.66,0,0,1-.92-1c-1.61-2.59-3.21-5.18-4.84-7.76-.21-.33-.54-.76-.86-.8a24.47,24.47,0,0,0-2.84,0V57.32h3ZM115.08,90.31c-3.14-3.12-6.25-6.22-9.37-9.31a.7.7,0,0,0-.53-.19c-1.26.2-2.52.45-3.85.69V93.75C106.3,94.19,111,93.68,115.08,90.31Zm3.36-2.53c3-3.81,5.47-7.58,5.57-12.56-3.64,0-7.06,0-10.48,0-1.32,0-2.5,0-3,1.51-.13.41-.63.69-.84,1.09s-.25.84-.09,1C112.46,81.77,115.38,84.69,118.44,87.78Zm77.2-.3a4.59,4.59,0,0,0-.21.47c-.66,2-1.56,2.8-3.25,2.83a3.73,3.73,0,0,1-3.8-2.78,7.09,7.09,0,0,1,.2-5.09,3.54,3.54,0,0,1,3.22-2.3,3.41,3.41,0,0,1,3.42,2c.14.26.42.58.66.6.87.07,1.75,0,2.65,0a5.56,5.56,0,0,0-3.12-4.61A7.53,7.53,0,0,0,187,79.74c-2.4,2.33-3,6.71-1.41,9.93A7.27,7.27,0,0,0,193,93.49a6,6,0,0,0,5.53-6ZM112.32,62.56c0,2.71,0,5.28,0,7.84,0,.27.53.71.86.75a25.4,25.4,0,0,0,3.27.19c2.44,0,4.88,0,7.49,0V62.56ZM55.69,49.31c0,1.48,0,3,0,4.44,0,.9.31,1.19,1.18,1.17,2.12,0,4.24-.05,6.36,0,.93,0,1.36-.4,1.36-1.25,0-3,0-6,0-9,0-.72-.34-1.07-1.09-1.06-2.24,0-4.49,0-6.73,0-.84,0-1.11.34-1.09,1.15C55.72,46.26,55.69,47.78,55.69,49.31Zm134.56,26V69.11h6.15V66.52h-6.11V63.06h7.05V60.38H187V75.26ZM154.43,71c1.61,0,3.21.06,4.8,0,1.18-.06,1.6-1,1.71-2s-.81-2.53-1.64-2.57c-1.58-.09-3.17,0-4.87,0ZM134.59,66.5c-1.59,0-3.1-.06-4.6,0-1,.06-1.62,1.26-1.57,2.67,0,1,1,2.18,1.81,2.16,1.45,0,2.9-.17,4.36-.27Zm11.39.07v4.55h5.56V66.57Zm-8.6,4.52H143V66.56h-5.58ZM117,9h0a6.2,6.2,0,0,0,.16,2.13,2,2,0,0,0,1.45,1,1.67,1.67,0,0,0,1.31-1,20.11,20.11,0,0,0,0-3.8,1.22,1.22,0,0,0-1.55-1.23c-.88.12-1.4.51-1.33,1.49C117.07,8.06,117,8.53,117,9Zm19,19.91h0a8.51,8.51,0,0,1,1.13,0c1,.14,1.41-.37,1.43-1.28s-.26-1.57-1.36-1.53a14.34,14.34,0,0,1-2.27,0c-1.35-.18-1.6.77-1.65,1.68s.77,1.15,1.58,1.14Zm-3.4-12.7c-.4-.43-.71-1-1.18-1.21a1.44,1.44,0,0,0-1.3.18A29.19,29.19,0,0,0,128,17.46c-.66.72-.15,1.38.32,1.72a1.76,1.76,0,0,0,1.64,0,13,13,0,0,0,2-2.07C132.2,16.91,132.37,16.62,132.67,16.21Zm-26.44-.86c-.39.4-.94.73-1.12,1.2a1.65,1.65,0,0,0,.26,1.4c.55.67,1.33,1.16,1.92,1.81a1.14,1.14,0,0,0,1.85.14,1.34,1.34,0,0,0,.11-2c-.64-.68-1.29-1.34-2-2A5,5,0,0,0,106.23,15.35ZM101.1,28.89V29c.47,0,.93,0,1.39,0,.87.05,1.18-.43,1.29-1.21s-.22-1.11-.92-1.2a14.21,14.21,0,0,0-3.22-.3c-.47.05-1,.88-1.19,1.46-.08.25.58.91,1,1.1A4.37,4.37,0,0,0,101.1,28.89Z"/><path d="M110.53,114.13a6.89,6.89,0,0,0,.78,1.18c5.41,5.44,10.85,10.85,16.25,16.3a2.69,2.69,0,0,0,2.12.86q36.49,0,73,0c9.19,0,16.87,5.44,19.44,13.9a20.79,20.79,0,0,1,.92,5.86c.07,15.77,0,31.54,0,47.31a19.81,19.81,0,0,1-18.81,19.76c-1,.05-2,.09-2.92.09H20.74c-7.77,0-13.82-3.18-17.94-9.84A19.14,19.14,0,0,1,0,199.38q0-23.48,0-46.93c0-11.28,8.9-20,20.33-20q35.11,0,70.21,0a3.25,3.25,0,0,0,2.56-1c5.33-5.4,10.72-10.75,16.07-16.12a7.27,7.27,0,0,0,.79-1.17Zm-.28,4.79c-5.29,5.29-10.48,10.46-15.63,15.68A3.39,3.39,0,0,1,92,135.7q-35.55,0-71.09,0c-10.42,0-17.59,7.17-17.59,17.56q0,22.89,0,45.78c0,9.65,7.21,17.1,16.89,17.11q91.38.08,182.75,0c9.77,0,16.89-7.4,16.89-17.2q0-23.33,0-46.67a15.92,15.92,0,0,0-3.77-10.42,16.77,16.77,0,0,0-13.62-6.17q-36.94,0-73.89,0a3.33,3.33,0,0,1-2.65-1.11C120.73,129.38,115.54,124.21,110.25,118.92Z"/><path d="M89.56,69c0,2.23-.1,4.43,0,6.61a12.17,12.17,0,0,0,.9,3.75,3.09,3.09,0,0,0,3.25,2c1.17,0,2.35,0,3.59,0V94H94.85c-3.84,0-5,2.34-5,5.85-.11,4.88-.07,9.75,0,14.63,0,1.34-.91,1.76-1.79,2.15a1.72,1.72,0,0,1-2.29-.8,3.25,3.25,0,0,1-.3-1.56c0-9.29,0-18.57,0-27.86a52.56,52.56,0,0,0-.52-7.93c-.62-3.91-3-6.33-7.13-6.39-11.19-.16-22.39-.06-33.58,0-1.35,0-2.7,0-4,.13-3.85.28-6.09,2.72-6.1,6.66,0,7,0,13.91,0,20.86,0,4.81-.14,9.61-.21,14.42,0,.79,0,1.59,0,2.53a1.87,1.87,0,0,1-.76.26c-2.83-.06-5.65-.22-8.47-.25-5.3,0-10.6,0-15.9,0-2,0-2.34-.36-2.34-2.35V69Z"/><path d="M34,66.17H6.42a2,2,0,0,1-.08-.48c0-5.71,0-11.42,0-17.14s.09-11.43.22-17.14a16.61,16.61,0,0,1,.61-4.5c1.39-4.54,4-6.12,8.42-6.27,7-.23,14.05-.22,21.07-.34,1.52,0,3-.11,4.55-.21a3.88,3.88,0,0,0,3-2.18,22.51,22.51,0,0,0,2-4c.54-1.42-.22-2.71-.86-3.95A22.35,22.35,0,0,1,43.87,7a5.3,5.3,0,0,1,4.84-7C51-.08,53.28.13,54.5,2.64a6.34,6.34,0,0,1-.41,6.58,7.12,7.12,0,0,0,1.72,10,4.44,4.44,0,0,0,2.55.83c7,0,14.07-.09,21.1-.12,4.19,0,7.07,2.18,9,5.71a7.79,7.79,0,0,1,1,4.36c-.18,2.57,0,5.16,0,7.79A2.26,2.26,0,0,0,90,38c2.46-.09,2.39-.2,3,2.55a22.74,22.74,0,0,1-.23,10.75c-.31,1.25-.8,2.26-2.42,1.73a2.65,2.65,0,0,0-.86.09v6.75c0,1.7,0,3.39,0,5.09,0,1-.46,1.57-1.53,1.54a3.93,3.93,0,0,1-1.38-.06,2.33,2.33,0,0,1-1-1,3.23,3.23,0,0,1,0-1.25c0-10.64,0-21.28,0-31.92,0-2.17-.06-4.43-1.94-6.06a4.87,4.87,0,0,0-3.32-1.31q-19.65,0-39.29,0c-4.88,0-6.93,2.5-7,7.06-.08,10.85,0,21.7,0,32.55ZM12.14,43.09c-.29,4.44,3.61,8.17,8,8.21A8.13,8.13,0,0,0,20.18,35,8,8,0,0,0,12.14,43.09ZM50.77,5.66c.22-.37.9-1.07.76-1.33a6.36,6.36,0,0,0-1.62-1.51c-.36.43-1,.84-1,1.31C48.75,5.08,49.44,5.53,50.77,5.66Z"/><path d="M217.23,72.23c0-10,0-19.92,0-29.89q0-7.1-.23-14.2a13.3,13.3,0,0,0-.54-3.49,5.18,5.18,0,0,0-5.19-3.32H183.79c-1.39,0-2-.52-2-1.63s.78-1.8,2.13-1.79Q193,18,202.06,18c2.92,0,5.85,0,8.77,0A8.78,8.78,0,0,1,220,25.63a42.49,42.49,0,0,1,.35,6.58q0,29,0,58c0,4.44.22,8.89.17,13.33a35.93,35.93,0,0,1-.71,6.61,7.92,7.92,0,0,1-8.14,6.53c-12.88,0-25.77,0-38.66.11-4.22,0-7.39-1.61-9.44-5.3a4.65,4.65,0,0,1-.49-2c0-7.71,0-15.43,0-23.14q-.09-25.15-.19-50.31c0-2.12.94-3,2.79-2.74a1.68,1.68,0,0,1,1.36,2,37.68,37.68,0,0,0-.61,5.26c0,22.22,0,44.43,0,66.65,0,4,2.35,5.86,5.66,6.44a32.55,32.55,0,0,0,5,.25c2.29,0,4.58,0,6.87,0,9.28-.07,18.56-.09,27.83-.25,2.79,0,4.36-.73,5-4.1a27.51,27.51,0,0,0,.57-5.27c0-10.68,0-21.36,0-32Z"/><path d="M172.75,70.43V105c0,2.22.26,2.6,2.41,3.17a8.93,8.93,0,0,0,2.25.26q14.76,0,29.51,0c2.53,0,3.7-.95,4.18-3.45a11.38,11.38,0,0,0,.15-2q0-16.72,0-33.45,0-19.4-.13-38.79c0-3.05-.91-3.94-3.91-4l-23.77-.17c-1.3,0-2.05-.63-2.08-1.7s.69-1.6,2.11-1.6c9,0,18,0,26.95.13,3,0,4.68,1.33,4.31,4.52a8.66,8.66,0,0,0,0,1q0,35.92,0,71.86a66.58,66.58,0,0,1-.19,6.78c-.32,3-2.39,4.49-5.43,4.11a14.88,14.88,0,0,0-1.89-.14c-9.87,0-19.75,0-29.63,0a28.77,28.77,0,0,1-4.89-.51c-2.51-.45-3.77-2.19-3.75-5.07.05-7.49.2-15,.19-22.48,0-15.3-.12-30.6-.21-45.9a15.48,15.48,0,0,0-.26-2.13c-.24-1.55.41-2.61,1.7-2.74a2.28,2.28,0,0,1,2.3,2.45V70.43Z"/><path d="M165.74,32c-8.46-.22-15.1-6.61-15.11-15.2a15.18,15.18,0,0,1,30.36,0C181,25.43,174.33,31.87,165.74,32Zm10.82-18a18.08,18.08,0,0,0-2.07-2.11,14,14,0,0,0-11.36-2.45,12.26,12.26,0,0,0-7.2,3.85c-.55.63-.64,1.3,0,1.72.42.27,1.12.11,1.69.07.16,0,.3-.28.45-.42a11.56,11.56,0,0,1,10-2.83A10,10,0,0,1,174.14,15a1.73,1.73,0,0,0,1.45.21C175.92,15.07,176.14,14.54,176.56,14Zm-11,.39a8.55,8.55,0,0,0-6.81,2.9c-.67.8-.56,1.84.33,2a2.18,2.18,0,0,0,1.65-.54A6.18,6.18,0,0,1,165.21,17a9.09,9.09,0,0,1,5.86,2c.66.52,1.41.64,2-.22s.18-1.3-.49-1.81A11.9,11.9,0,0,0,165.59,14.4Zm-.22,4.84a4.27,4.27,0,0,0-4.05,2,2,2,0,0,0,.19,1.75c.15.24,1.18.25,1.52,0,2-1.55,2.84-1.65,4.77-.2a1.24,1.24,0,1,0,1.63-1.86A5.17,5.17,0,0,0,165.37,19.24Zm.19,4.11c-.67.85-1.42,1.4-1.37,1.85a2,2,0,0,0,1.3,1.35,1.16,1.16,0,0,0,1.31-1.43C166.72,24.61,166.16,24.17,165.56,23.35Z"/><path d="M112.44,58.08c.71-2.09-.9-2.49-2.29-3.22A14.46,14.46,0,0,1,103,45.59a36.91,36.91,0,0,1-1-7c-.13-1.5.37-1.88,1.84-1.89s2.8,0,4.19,0c1.08,0,1.37.36,1.43,1.5.22,3.74,1,7.31,4.39,9.64,2.72,1.91,5.67,1.45,8.45.29,4-1.67,5.29-5.08,5.36-9.12,0-2-.38-1.93,1.89-1.92,1.27,0,2.54,0,3.81,0,.81,0,1.27.36,1.26,1.09-.08,6.29-1.27,12.12-6.86,16.06a10.91,10.91,0,0,1-1.74,1c-1.75.79-1.76.77-2,2.81Z"/><path d="M132.88,27.66c-.26.31-.44.54-.64.75q-6.32,6.42-12.63,12.84c-.53.55-1,.69-1.59.09q-6.51-6.41-13-12.76a.87.87,0,0,1,0-1.41q6.48-6.53,12.93-13.09c.7-.72,1.13-.2,1.58.24,2,2,4.06,4.08,6.11,6.1s4.37,4.24,6.54,6.37A11.14,11.14,0,0,1,132.88,27.66Zm-20.18-.45.24.94c1.73,1.62,3.42,3.26,5.21,4.81.23.19,1.06,0,1.37-.26,1.38-1.26,2.65-2.62,4-3.92.67-.65.77-1.2,0-1.9q-2.16-2-4.21-4c-.56-.57-.93-.46-1.48,0C116.15,24.34,114.42,25.77,112.7,27.21Z"/><path d="M77.52,65.81H42.79a46.29,46.29,0,0,1,.05-5.4c.23-2,1.62-3,3.7-3,6,0,12,0,17.93,0,3.3,0,6.6.1,9.9.17a3.07,3.07,0,0,1,3.14,3.12C77.54,62.35,77.52,64,77.52,65.81Z"/><path d="M53.9,44.52a9.09,9.09,0,1,1-9-9.13A8.92,8.92,0,0,1,53.9,44.52Zm-9,2.21c1.22,0,2.46-.06,3.68,0s1.35-.76,1.31-1.65S50,43,48.53,43c-2.5,0-5,0-7.5,0-.8,0-1.07.37-1.11,1a9.21,9.21,0,0,0,0,1.39c.1.89.42,1.46,1.51,1.35S43.73,46.73,44.88,46.73Z"/><path d="M83.79,43.72a8.9,8.9,0,1,1-8.93-8.86A8.78,8.78,0,0,1,83.79,43.72Zm-13.65-1a17.51,17.51,0,0,0,0,2.87,1.36,1.36,0,0,0,1,.78c2.79.07,5.59,0,8.38,0,1.34,0,1.27-1,1.22-1.91s.15-1.83-1.29-1.8C76.48,42.74,73.44,42.7,70.14,42.7Z"/><path d="M188.49,47.77v9.55h-3V42.41a24.47,24.47,0,0,1,2.84,0c.32,0,.65.47.86.8,1.63,2.58,3.23,5.17,4.84,7.76a2.66,2.66,0,0,0,.92,1V42.47H198V57.4a23.18,23.18,0,0,1-2.77,0,1.76,1.76,0,0,1-1-.82c-1.86-2.93-3.69-5.88-5.52-8.82Z"/><path d="M115.08,90.31c-4.12,3.37-8.78,3.88-13.75,3.44V81.5c1.33-.24,2.59-.49,3.85-.69a.7.7,0,0,1,.53.19C108.83,84.09,111.94,87.19,115.08,90.31Z"/><path d="M118.44,87.78c-3.06-3.09-6-6-8.86-9-.16-.17-.06-.72.09-1s.71-.68.84-1.09c.52-1.55,1.7-1.53,3-1.51,3.42.06,6.84,0,10.48,0C123.91,80.2,121.48,84,118.44,87.78Z"/><path d="M195.64,87.48h2.91a6,6,0,0,1-5.53,6,7.27,7.27,0,0,1-7.41-3.82c-1.61-3.22-1-7.6,1.41-9.93a7.53,7.53,0,0,1,8.39-1.17,5.56,5.56,0,0,1,3.12,4.61c-.9,0-1.78,0-2.65,0-.24,0-.52-.34-.66-.6a3.41,3.41,0,0,0-3.42-2,3.54,3.54,0,0,0-3.22,2.3,7.09,7.09,0,0,0-.2,5.09,3.73,3.73,0,0,0,3.8,2.78c1.69,0,2.59-.82,3.25-2.83A4.59,4.59,0,0,1,195.64,87.48Z"/><path d="M112.32,62.56H124v8.79c-2.61,0-5,0-7.49,0a25.4,25.4,0,0,1-3.27-.19c-.33,0-.85-.48-.86-.75C112.3,67.84,112.32,65.27,112.32,62.56Z"/><path d="M55.69,49.31c0-1.53,0-3.05,0-4.58,0-.81.25-1.16,1.09-1.15,2.24,0,4.49,0,6.73,0,.75,0,1.09.34,1.09,1.06,0,3,0,6,0,9,0,.85-.43,1.27-1.36,1.25-2.12-.05-4.24,0-6.36,0-.87,0-1.21-.27-1.18-1.17C55.72,52.27,55.69,50.79,55.69,49.31Z"/><path d="M190.25,75.26H187V60.38h10.32v2.68h-7.05v3.46h6.11v2.59h-6.15Z"/><path d="M154.43,71V66.34c1.7,0,3.29-.06,4.87,0,.83,0,1.74,1.51,1.64,2.57s-.53,2-1.71,2C157.64,71,156,71,154.43,71Z"/><path d="M134.59,66.5v4.58c-1.46.1-2.91.22-4.36.27-.83,0-1.77-1.17-1.81-2.16,0-1.41.59-2.61,1.57-2.67C131.49,66.44,133,66.5,134.59,66.5Z"/><path d="M146,66.57h5.56v4.55H146Z"/><path d="M137.38,71.09V66.56H143v4.53Z"/><path d="M117,9c0-.47,0-.94,0-1.4-.07-1,.45-1.37,1.33-1.49a1.22,1.22,0,0,1,1.55,1.23,20.11,20.11,0,0,1,0,3.8,1.67,1.67,0,0,1-1.31,1,2,2,0,0,1-1.45-1A6.2,6.2,0,0,1,117,9Z"/><path d="M136.07,28.91h-1.14c-.81,0-1.64-.14-1.58-1.14s.3-1.86,1.65-1.68a14.34,14.34,0,0,0,2.27,0c1.1,0,1.38.62,1.36,1.53s-.42,1.42-1.43,1.28a8.51,8.51,0,0,0-1.13,0Z"/><path d="M132.67,16.21c-.3.41-.47.7-.69.94a13,13,0,0,1-2,2.07,1.76,1.76,0,0,1-1.64,0c-.47-.34-1-1-.32-1.72a29.19,29.19,0,0,1,2.16-2.28,1.44,1.44,0,0,1,1.3-.18C132,15.23,132.27,15.78,132.67,16.21Z"/><path d="M106.23,15.35a5,5,0,0,1,1,.57c.68.62,1.33,1.28,2,2a1.34,1.34,0,0,1-.11,2,1.14,1.14,0,0,1-1.85-.14c-.59-.65-1.37-1.14-1.92-1.81a1.65,1.65,0,0,1-.26-1.4C105.29,16.08,105.84,15.75,106.23,15.35Z"/><path d="M101.1,28.89a4.37,4.37,0,0,1-1.62,0c-.45-.19-1.11-.85-1-1.1.19-.58.72-1.41,1.19-1.46a14.21,14.21,0,0,1,3.22.3c.7.09,1,.44.92,1.2s-.42,1.26-1.29,1.21c-.46,0-.92,0-1.39,0Z"/><path class="cls-1" d="M20.07,37.82a5.22,5.22,0,0,0-5.34,5.37,5.42,5.42,0,0,0,5.38,5.4,5.56,5.56,0,0,0,5.51-5.46A5.3,5.3,0,0,0,20.07,37.82Z"/><path class="cls-1" d="M50.77,5.66c-1.33-.13-2-.58-1.9-1.53.06-.47.68-.88,1-1.31a6.36,6.36,0,0,1,1.62,1.51C51.67,4.59,51,5.29,50.77,5.66Z"/><path class="cls-1" d="M176.56,14c-.42.53-.64,1.06-1,1.15a1.73,1.73,0,0,1-1.45-.21,10,10,0,0,0-6.07-3.11,11.56,11.56,0,0,0-10,2.83c-.15.14-.29.41-.45.42-.57,0-1.27.2-1.69-.07-.66-.42-.57-1.09,0-1.72a12.26,12.26,0,0,1,7.2-3.85,14,14,0,0,1,11.36,2.45A18.08,18.08,0,0,1,176.56,14Z"/><path class="cls-1" d="M165.59,14.4A11.9,11.9,0,0,1,172.54,17c.67.51,1,1,.49,1.81s-1.3.74-2,.22a9.09,9.09,0,0,0-5.86-2,6.18,6.18,0,0,0-4.45,1.78,2.18,2.18,0,0,1-1.65.54c-.89-.17-1-1.21-.33-2A8.55,8.55,0,0,1,165.59,14.4Z"/><path class="cls-1" d="M165.37,19.24a5.17,5.17,0,0,1,4.06,1.63,1.24,1.24,0,1,1-1.63,1.86c-1.93-1.45-2.77-1.35-4.77.2-.34.27-1.37.26-1.52,0a2,2,0,0,1-.19-1.75A4.27,4.27,0,0,1,165.37,19.24Z"/><path class="cls-1" d="M165.56,23.35c.6.82,1.16,1.26,1.24,1.77a1.16,1.16,0,0,1-1.31,1.43,2,2,0,0,1-1.3-1.35C164.14,24.75,164.89,24.2,165.56,23.35Z"/><path d="M41.18,183.68H47v19.4H43.36V189.27l-.32-.05c-.34,1.48-.69,3-1,4.44-.61,2.73-1.28,5.44-1.78,8.19-.21,1.13-.69,1.48-1.76,1.34a14.53,14.53,0,0,0-1.63,0c-1.1-4.88-2.18-9.73-3.27-14.57l-.26,0V203.1H29.77V183.71H35.6c.87,4.24,1.75,8.52,2.62,12.81l.29,0Z"/><path d="M156.44,190.28V203.1h-3.6V183.64c1.33,0,2.64-.07,3.93,0,.34,0,.77.55.91.93,1.3,3.53,2.55,7.08,3.82,10.62a1.62,1.62,0,0,0,.51.81V183.71h3.72v19.47c-1.36,0-2.67.07-3.95-.05-.33,0-.73-.6-.87-1-1.34-3.65-2.62-7.32-3.92-11-.1-.3-.23-.59-.35-.88Z"/><path d="M66.17,196.1V183.72h3.64v19.45c-1.36,0-2.71.06-4,0-.29,0-.65-.57-.79-.95-1.34-3.69-2.64-7.4-4-11.11a1.32,1.32,0,0,0-.52-.74v12.78h-3.6V183.64c1.35,0,2.69-.06,4,0,.3,0,.69.53.82.9,1.24,3.37,2.42,6.76,3.63,10.15.17.47.35.93.52,1.4Z"/><path d="M34.79,150.92c2.81,0,5.56-.15,8.29,0a4,4,0,0,1,4,3.59c.49,3-.33,4.91-2.74,6.13,2.61.67,2.66,2.67,2.76,4.7.07,1.65.27,3.29.41,5a29.18,29.18,0,0,1-3.32-.05c-.35,0-.84-.67-.9-1.08a29.93,29.93,0,0,1-.19-3.55c0-3.32-.82-4-4.34-3.44v8h-4Zm4,8.26c2,.37,3.49,0,4.11-1a3.62,3.62,0,0,0-.15-3.5c-1.13-1.32-2.59-.73-4-.79Z"/><path d="M157.67,150.93c2.8,0,5.54-.14,8.27,0a4,4,0,0,1,4,3.46c.54,3-.25,4.88-2.66,6.28,2.23.55,2.62,2.23,2.66,4.12,0,1.14,0,2.29.16,3.42a16,16,0,0,0,.53,2.15,26.55,26.55,0,0,1-3.56-.06c-.36,0-.85-.75-.91-1.2-.18-1.33-.15-2.7-.24-4-.17-2.66-.57-3-3.27-3-.29,0-.59.05-1,.09v8.08h-4Zm4,8.37c1.47,0,2.94.33,4-1a3.33,3.33,0,0,0,0-3.59c-1.1-1.34-2.57-.78-4-.82Z"/><path d="M116.71,160.71c2.09.51,2.6,2,2.64,3.79,0,1,.05,2,.16,3s.32,1.84.5,2.86c-1.05,0-2.27.06-3.47,0a1.23,1.23,0,0,1-.85-.81c-.16-1.3-.22-2.61-.26-3.92-.09-3.26-.82-3.87-4.29-3.35v8h-4V151c2.83,0,5.67-.16,8.47,0,2.29.17,3.47,1.57,3.83,3.77.42,2.58-.42,4.6-2.35,5.68Zm-5.56-1.39c1.53,0,3.1.33,4-1.16a3,3,0,0,0,0-3.37c-1-1.46-2.54-.86-4-.94Z"/><path d="M108.78,203.12h-3.92v-19.4c2.88,0,5.75-.16,8.6.05,2.17.16,3.34,1.58,3.71,3.75.41,2.44-.38,4.54-2.11,5.56l-.68.39c2.05.47,2.61,1.87,2.66,3.63,0,1.06.07,2.12.18,3.17s.31,1.85.5,2.91a33.67,33.67,0,0,1-3.45-.05,1.36,1.36,0,0,1-.9-.93,32,32,0,0,1-.23-3.67c-.07-3.38-.77-4-4.36-3.52Zm.09-11.05c1.59,0,3.22.34,4.07-1.31a3,3,0,0,0-.21-3.34c-1-1.27-2.49-.81-3.86-.79Z"/><path d="M142.23,150.93c2.59,0,5.13-.12,7.65,0a4.87,4.87,0,0,1,4.67,4.16,23.17,23.17,0,0,1-.1,10.95,5.06,5.06,0,0,1-5.15,4.26c-2.31.13-4.64,0-7.07,0Zm4,16.4c3.17.51,4.42-.31,4.67-3.29a40.76,40.76,0,0,0,0-6.72c-.26-3.09-1.48-3.88-4.69-3.34Z"/><path d="M172.28,160.11a48,48,0,0,1,.72-5.47,5.12,5.12,0,0,1,5.26-4.12c.34,0,.67,0,1,0,3.5,0,5.71,1.6,6,5a51.53,51.53,0,0,1,0,10.24c-.37,3.49-2.72,5-6.53,4.91-3.62-.1-5.57-1.74-6.06-5.22C172.48,163.86,172.44,162.2,172.28,160.11Zm9.56.44c-.17-1.7-.25-3.48-.54-5.22a2.11,2.11,0,0,0-2.3-1.93,2,2,0,0,0-2.17,1.91c-.13,3.49-.17,7,0,10.48a2,2,0,0,0,2.3,2.06,2.2,2.2,0,0,0,2.24-2.17C181.61,164,181.68,162.32,181.84,160.55Z"/><path d="M92.11,150.93h4c0,.43.06.87.06,1.31,0,4.07,0,8.14,0,12.21a8.48,8.48,0,0,0,.23,1.88,1.93,1.93,0,0,0,2.08,1.51,1.89,1.89,0,0,0,2-1.51,9.56,9.56,0,0,0,.26-2.26c0-3.9,0-7.8,0-11.7v-1.44h3.8a.94.94,0,0,1,.14.33c0,4.79.08,9.58-.08,14.36-.1,3.11-2,4.82-5.13,5h-.26c-5,.27-7-1.59-7-6.62C92.1,159.72,92.11,155.4,92.11,150.93Z"/><path d="M89.7,156.24H86.13c0-.26-.12-.49-.15-.73-.15-1.1-.56-2-1.81-2.09a2,2,0,0,0-2.29,1.21,2.56,2.56,0,0,0,.82,3.06,6.32,6.32,0,0,0,1.12.6c1,.47,2.08.94,3.14,1.37,3.92,1.59,4.05,4.93,3,7.89a4.17,4.17,0,0,1-3.41,2.75,16.48,16.48,0,0,1-4.9.2c-3.11-.43-4.67-2.95-4.07-6.18h3.72c.07.48.15,1,.2,1.46a2.12,2.12,0,0,0,2.07,2,2.18,2.18,0,0,0,2.52-1.27,2.51,2.51,0,0,0-.57-3,6.51,6.51,0,0,0-1.64-.95c-.77-.34-1.59-.57-2.37-.89-3.17-1.29-4.48-3.48-3.55-7.52a4.47,4.47,0,0,1,4.07-3.49,11.86,11.86,0,0,1,4,.12C88.79,151.33,90.06,153.32,89.7,156.24Z"/><path d="M76.84,170.36h-4l-.92-4H66.75l-.92,4H61.7c.46-1.75.89-3.41,1.33-5.07,1.18-4.46,2.39-8.91,3.53-13.38.21-.81.53-1.12,1.36-1.07a28.63,28.63,0,0,0,2.93,0c.63,0,1,.13,1.15.83,1.57,6.06,3.19,12.11,4.8,18.16A4,4,0,0,1,76.84,170.36Zm-9.36-7.51h3.68c-.6-2.77-1.18-5.39-1.75-8H69.2Z"/><path d="M120,183.67h10.83v3.26H124v4.43h6.43v3.3H124v5.18h7.1v3.24H120Z"/><path d="M122.28,150.92h10.86v3.2h-6.86v4.53h6.42v3.26h-6.4v5.15h7.1v3.24H122.28Z"/><path d="M133.15,183.7h10.79v3.19h-6.76v4.5h6.4v3.26h-6.4v5.18h7v3.28h-11Z"/><path d="M54,154.14v4.52H60.4v3.26H54v5.16h7.1v3.24H50V151H60.74v3.18Z"/><path d="M191.93,170.36H188V151.09c2.91,0,5.81-.05,8.71,0a3.12,3.12,0,0,1,1.76.94c2,1.92,2.08,4.36,1.46,6.83-.57,2.3-2.33,3.34-4.57,3.62-1.08.13-2.18.14-3.44.21Zm0-10.68c1.51,0,3,.34,3.86-1.16a3.52,3.52,0,0,0-.1-3.76c-.92-1.39-2.38-.88-3.76-.87Z"/><path d="M96.21,203.12h-4V183.7H103v3.2H96.24v4.46h6.37v3.27h-6.4Z"/><path d="M172.45,203.11h-3.93V183.73h10.77v3.18h-6.82v4.46h6.39v3.32h-6.41Z"/><path d="M28.88,170.37H25V154.19H20.7V151H33v3.18H28.88Z"/><path d="M75.76,186.93H71.54V183.7H83.9v3.2H79.76v16.18h-4Z"/><path d="M188.3,203.11h-4V187h-4.2v-3.23h12.37v3.21H188.3Z"/><path d="M53.88,183.71v19.38h-3.8V183.71Z"/><path d="M20.07,37.82a5.3,5.3,0,0,1,5.55,5.31,5.56,5.56,0,0,1-5.51,5.46,5.42,5.42,0,0,1-5.38-5.4A5.22,5.22,0,0,1,20.07,37.82Z"/><path class="cls-1" d="M38.76,159.18v-5.31c1.37.06,2.83-.53,4,.79a3.62,3.62,0,0,1,.15,3.5C42.25,159.17,40.78,159.55,38.76,159.18Z"/><path class="cls-1" d="M161.63,159.3v-5.42c1.4,0,2.87-.52,4,.82a3.33,3.33,0,0,1,0,3.59C164.57,159.63,163.1,159.3,161.63,159.3Z"/><path class="cls-1" d="M111.15,159.32v-5.47c1.43.08,3-.52,4,.94a3,3,0,0,1,0,3.37C114.25,159.65,112.68,159.27,111.15,159.32Z"/><path class="cls-1" d="M108.87,192.07v-5.44c1.37,0,2.82-.48,3.86.79a3,3,0,0,1,.21,3.34C112.09,192.41,110.46,192,108.87,192.07Z"/><path class="cls-1" d="M146.2,167.33V154c3.21-.54,4.43.25,4.69,3.34a40.76,40.76,0,0,1,0,6.72C150.62,167,149.37,167.84,146.2,167.33Z"/><path class="cls-1" d="M181.84,160.55c-.16,1.77-.23,3.47-.49,5.13a2.2,2.2,0,0,1-2.24,2.17,2,2,0,0,1-2.3-2.06c-.15-3.49-.11-7,0-10.48A2,2,0,0,1,179,153.4a2.11,2.11,0,0,1,2.3,1.93C181.59,157.07,181.67,158.85,181.84,160.55Z"/><path class="cls-1" d="M67.48,162.85l1.72-8h.21c.57,2.62,1.15,5.24,1.75,8Z"/><path class="cls-1" d="M192,159.68v-5.79c1.38,0,2.84-.52,3.76.87a3.52,3.52,0,0,1,.1,3.76C195,160,193.49,159.73,192,159.68Z"/></g></g></svg>