<svg xmlns="http://www.w3.org/2000/svg" viewBox="0 0 67.11 49.73"><defs><style>.cls-1{fill:#fff;}</style></defs><g id="Calque_2" data-name="Calque 2"><g id="Calque_1-2" data-name="Calque 1"><g id="tfuZ0t.tif"><path class="cls-1" d="M25.44,3.23a4.45,4.45,0,0,1-.27-.45C23.87.12,22.84-.44,20,.34c-2.19.59-4.3,1.5-6.49,2.14A8.45,8.45,0,0,0,8,7.14c-1.7,3.51-3.32,7.07-4.88,10.64C.27,24.34-.1,31.3,0,38.31A5.37,5.37,0,0,0,2.5,43.22c3.72,2.09,7.48,4.14,11.36,5.91,2.65,1.21,3.77.61,5.3-1.9,1.39-2.27,1.2-2.87-1.19-4a5.49,5.49,0,0,1-2.17-1.43c-.37-.54-.11-1.51-.13-2.28a5.53,5.53,0,0,1,1.49.63A13.93,13.93,0,0,0,23.59,43a54.37,54.37,0,0,0,16.84.49c3.44-.4,6.82-1.08,9.56-3.48a3.91,3.91,0,0,1,1.38-.51,6.08,6.08,0,0,1,.1,2c-.13.44-.74.8-1.21,1.08a13.51,13.51,0,0,0-2.2,1.17,2.62,2.62,0,0,0-.94,1.9c.75,3.4,3.18,4.8,6.34,3.43,3.36-1.46,6.54-3.32,9.81-5a6.73,6.73,0,0,0,3.79-6.21c.54-11.34-2.8-21.64-8.41-31.34a7.74,7.74,0,0,0-1.06-1.47,6.05,6.05,0,0,0-1.88-1.61C52.63,2.27,49.52,1.13,46.35.21,44.2-.41,43,.36,42,2.42c-.15.32-.35.62-.45.8a77.37,77.37,0,0,0-8.06-.8A77.19,77.19,0,0,0,25.44,3.23Z"/><path d="M25.44,3.23a77.19,77.19,0,0,1,8.06-.81,77.37,77.37,0,0,1,8.06.8c.1-.18.3-.48.45-.8C43,.36,44.2-.41,46.35.21c3.17.92,6.28,2.06,9.36,3.23a6.05,6.05,0,0,1,1.88,1.61,7.74,7.74,0,0,1,1.06,1.47c5.61,9.7,8.95,20,8.41,31.34a6.73,6.73,0,0,1-3.79,6.21c-3.27,1.66-6.45,3.52-9.81,5-3.16,1.37-5.59,0-6.34-3.43a2.62,2.62,0,0,1,.94-1.9,13.51,13.51,0,0,1,2.2-1.17c.47-.28,1.08-.64,1.21-1.08a6.08,6.08,0,0,0-.1-2A3.91,3.91,0,0,0,50,40c-2.74,2.4-6.12,3.08-9.56,3.48A54.37,54.37,0,0,1,23.59,43a13.93,13.93,0,0,1-6.43-2.89,5.53,5.53,0,0,0-1.49-.63c0,.77-.24,1.74.13,2.28A5.49,5.49,0,0,0,18,43.18c2.39,1.18,2.58,1.78,1.19,4-1.53,2.51-2.65,3.11-5.3,1.9C10,47.36,6.22,45.31,2.5,43.22A5.37,5.37,0,0,1,0,38.31c-.12-7,.25-14,3.11-20.53C4.69,14.21,6.31,10.65,8,7.14a8.45,8.45,0,0,1,5.45-4.66C15.65,1.84,17.76.93,20,.34c2.89-.78,3.92-.22,5.22,2.44A4.45,4.45,0,0,0,25.44,3.23ZM28,27.49A6.25,6.25,0,0,0,22,21a6.29,6.29,0,0,0-6,6.43A6.28,6.28,0,0,0,22.08,34,6.25,6.25,0,0,0,28,27.49Zm11,.06A6.25,6.25,0,0,0,45,34a6.29,6.29,0,0,0,6-6.46c0-3.59-2.77-6.57-6.08-6.5A6.26,6.26,0,0,0,39,27.55Z"/></g></g></g></svg>