<svg xmlns="http://www.w3.org/2000/svg" viewBox="0 0 688 695.35"><defs><style>.cls-1{fill:#fcfcfc;}.cls-2{fill:#080707;}.cls-3{fill:#010101;}.cls-4{fill:#c3c3c3;}.cls-5{fill:#fafafa;}.cls-6{fill:#f89b3a;}</style></defs><g id="Calque_2" data-name="Calque 2"><g id="Calque_1-2" data-name="Calque 1"><path class="cls-1" d="M.07,333V230.75a13.24,13.24,0,0,1,1.68.39q13.17,5.1,26.32,10.24,73.11,28.37,146.21,56.73,68.78,26.67,137.57,53.31Q369.94,374,428,396.53c13.45,5.22,26.86,10.51,40.29,15.77,2.9,1.14,2.85,1.08.44,3.21-2.72,2.4-5.27,5-8,7.36-2.11,1.77-2.6,3.59-1,5.92a14.3,14.3,0,0,1,.7,1.35c1,1.79.75,3-1.48,3.41-2,.37-4.08.82-4.65,3.16s-.86,5-1.26,7.52q-1.58,9.79-3.15,19.6c-.84,5.19-1.74,10.37-2.55,15.57-.16,1.05-.3,2.08,1,2.86,3.15,1.93,6.17,4.1,9.28,6.11,1,.67,2.07,1.53,3.44,1.32,3.92-.58,7.89-.26,11.81-.61,1.28-.11,3.19.3,3.89-1.94,3.27-10.42,7.25-20.57,11.37-30.66.48-1.19,1.17-2.45.29-3.88-.5-.81-.06-1.14.92-1.06,1.18.09,2.4.54,3.5-.66,2.46-2.69,5.05-5.26,7.63-7.83.34-.33.35-1.47,1.16-.89s0,1.21-.33,1.71c-1.58,2.61-3.22,5.18-4.82,7.77-3.23,5.25-3.24,5.27.42,10.26.62.84,1.07,1.45.59,2.67s-1.33,1.07-2.2,1.12c-1.69.08-3,.54-3.48,2.5-4.06,16.83-8.11,33.67-12.3,50.47-.46,1.83,0,2.71,1.46,3.38,4.88,2.2,9.79,4.34,14.63,6.61,1,.45,1.6,0,2.32-.26,5.1-2,10.18-4,15.71-5.63-.87,6.17-1.48,12.17-2.65,18.06-.5,2.5.19,3.74,2.1,4.75,3.4,1.78,7,3.32,10.21,5.34,3.69,2.3,7,2.69,10.33-.5.08-.08.31,0,.52,0a7.93,7.93,0,0,1-.27,3.48c-1.37,5.86-1,6.7,4,8.46,6.24,2.24,12.45,4.13,19.3,2.67,2.63-.56,4-1.42,5.1-3.9,3.92-9.1,8.07-18.1,12.18-27.12.89-2,1.94-3.78.37-5.92a1.75,1.75,0,0,1,.11-2.16c.53-.57,1.23-.34,1.86,0,1.44.76,2.13-.21,2.84-1.24,2.5-3.63,4.91-7.32,7.57-10.82,1.12-1.47,2.2-2.71,1.94-4.73-.14-1,.28-2.35,1.57-1.95,1.94.6,3.24-.37,4.62-1.31A372.24,372.24,0,0,1,630.84,484c.56-.3.83-.58.74-1.11-.35-2,.88-2,2.24-1.92a11.47,11.47,0,0,0,2.72-.31,12.15,12.15,0,0,1,6.9.42c13.51,5.32,27,10.63,40.59,15.83,1.86.71,2.28,1.7,2.27,3.57-.06,17,0,34.07,0,51.11q-.19,63.45-.47,126.91c0,3,0,3-2.6,1.71Q629.63,653,576.05,625.81q-66.49-33.84-133-67.75Q380.57,526.23,318,494.44,270.5,470.25,223,446,161.13,414.5,99.24,383,55.07,360.48,10.86,338C7.32,336.25,4,333.93.07,333Z"/><path class="cls-1" d="M.07,392.6V334.54c7.44,3.7,14.92,7.34,22.32,11.12q86.73,44.22,173.44,88.48,87.46,44.58,175,89.12,80.49,41,160.93,82.11Q608,644.31,684.34,683.23a2.34,2.34,0,0,1,1.46,2.54c0,3.16.08,6.31.13,9.47H503.87c0-1.2-1-1.21-1.71-1.58-2.51-1.36-5.16-2.39-7.6-3.95-5-3.23-10.21-6.23-15.34-9.29-10.63-6.33-21.3-12.61-31.91-19-12.43-7.45-24.81-15-37.22-22.43-12.21-7.33-24.45-14.59-36.65-21.92-10.4-6.24-20.76-12.55-31.17-18.78-10.69-6.4-21.45-12.69-32.14-19.1C298.07,572,286.07,564.65,274,557.41c-15-9-30.07-18-45.09-27-15.24-9.14-30.43-18.35-45.67-27.49-10.4-6.23-20.86-12.35-31.25-18.59Q130.12,471.24,108.29,458q-17.87-10.76-35.73-21.48C63.31,431,54,425.54,44.79,420c-10.69-6.41-21.34-12.88-32-19.27C8.43,398.16,4,395.79.07,392.6Z"/><path class="cls-2" d="M685.93,695.24c0-3.16-.12-6.31-.13-9.47a2.34,2.34,0,0,0-1.46-2.54Q608,644.37,531.72,605.37q-80.46-41.07-160.93-82.11-87.46-44.6-175-89.12Q109.1,389.92,22.39,345.66C15,341.88,7.51,338.24.07,334.54V333c3.93.93,7.25,3.25,10.79,5Q55.1,360.42,99.24,383,161.13,414.5,223,446q47.51,24.21,95,48.41,62.52,31.82,125.07,63.62,66.5,33.86,133,67.75,53.55,27.24,107.14,54.41c2.58,1.31,2.59,1.3,2.6-1.71q.24-63.46.47-126.91c.06-17,0-34.08,0-51.11,0-1.87-.41-2.86-2.27-3.57-13.56-5.2-27.08-10.51-40.59-15.83a12.15,12.15,0,0,0-6.9-.42,11.47,11.47,0,0,1-2.72.31c-1.36-.07-2.59-.09-2.24,1.92.09.53-.18.81-.74,1.11a372.24,372.24,0,0,0-35.59,21.87c-1.38.94-2.68,1.91-4.62,1.31-1.29-.4-1.71.91-1.57,1.95.26,2-.82,3.26-1.94,4.73-2.66,3.5-5.07,7.19-7.57,10.82-.71,1-1.4,2-2.84,1.24-.63-.33-1.33-.56-1.86,0a1.75,1.75,0,0,0-.11,2.16c1.57,2.14.52,4-.37,5.92-4.11,9-8.26,18-12.18,27.12-1.08,2.48-2.47,3.34-5.1,3.9-6.85,1.46-13.06-.43-19.3-2.67-4.92-1.76-5.33-2.6-4-8.46a7.93,7.93,0,0,0,.27-3.48c-.21,0-.44-.1-.52,0-3.31,3.19-6.64,2.8-10.33.5-3.26-2-6.81-3.56-10.21-5.34-1.91-1-2.6-2.25-2.1-4.75,1.17-5.89,1.78-11.89,2.65-18.06-5.53,1.58-10.61,3.64-15.71,5.63-.72.28-1.36.71-2.32.26-4.84-2.27-9.75-4.41-14.63-6.61-1.48-.67-1.92-1.55-1.46-3.38,4.19-16.8,8.24-33.64,12.3-50.47.47-2,1.79-2.42,3.48-2.5.87-.05,1.7.17,2.2-1.12s0-1.83-.59-2.67c-3.66-5-3.65-5-.42-10.26,1.6-2.59,3.24-5.16,4.82-7.77.3-.5,1.16-1.11.33-1.71s-.82.56-1.16.89c-2.58,2.57-5.17,5.14-7.63,7.83-1.1,1.2-2.32.75-3.5.66-1-.08-1.42.25-.92,1.06.88,1.43.19,2.69-.29,3.88-4.12,10.09-8.1,20.24-11.37,30.66-.7,2.24-2.61,1.83-3.89,1.94-3.92.35-7.89,0-11.81.61-1.37.21-2.4-.65-3.44-1.32-3.11-2-6.13-4.18-9.28-6.11-1.29-.78-1.15-1.81-1-2.86.81-5.2,1.71-10.38,2.55-15.57q1.59-9.79,3.15-19.6c.4-2.51.67-5.06,1.26-7.52s2.68-2.79,4.65-3.16c2.23-.42,2.43-1.62,1.48-3.41a14.3,14.3,0,0,0-.7-1.35c-1.59-2.33-1.1-4.15,1-5.92,2.77-2.34,5.32-5,8-7.36,2.41-2.13,2.46-2.07-.44-3.21C454.88,407,441.47,401.75,428,396.53Q370,374,311.85,351.42q-68.78-26.67-137.57-53.31-73.11-28.35-146.21-56.73-13.15-5.12-26.32-10.24a13.24,13.24,0,0,0-1.68-.39V228.7a6.91,6.91,0,0,1,1.2.25l22.9,8.88q78.33,30.37,156.6,60.87c3.7,1.45,5.79.79,8.47-1.68,8.1-7.45,15.93-15.22,24.42-22.23,1.57-1.3,1.4-1.84-.34-2.66Q202,266.79,190.66,261.3,148,240.65,105.42,220C77,206.2,48.53,192.5,20.14,178.63c-3.78-1.85-7.8-3.15-11.36-5.68a19.4,19.4,0,0,0-8.71-3.86V167c.08,0,.18-.07.24,0l49,23.78q82.64,40.16,165.25,80.35c1.66.81,2.68.64,3.91-.57,4.36-4.26,8.81-8.44,13.57-12.24a169.51,169.51,0,0,1,28.36-18.84c.79-.4,1.77-.61.71-1.94-5.27-6.63-10.45-13.32-15.65-20q-11.31-14.53-22.6-29.07c-7.57-9.77-15.09-19.57-22.67-29.33q-12.78-16.45-25.61-32.85c-8.59-11-17.2-22-25.72-33.1-1-1.32-1.8-1.44-3.34-.92-16.23,5.54-32.84,9.09-50.06,8.36a182.67,182.67,0,0,1-30.76-4,182,182,0,0,1-42.24-14.4A162.22,162.22,0,0,1,.07,68.38v-2c.72.58,1.42,1.19,2.16,1.75,14.9,11.33,31.65,18.71,49.44,23.76a178.94,178.94,0,0,0,36.05,6.57c10.17.74,20.29.83,30.33-.8a151.22,151.22,0,0,0,33-9A183.39,183.39,0,0,0,176.55,75.8a170.49,170.49,0,0,0,38.34-32.08c1.42-1.57,2.93-3.07,4.42-4.57.53-.53.8-.92,1.92-.3a38.08,38.08,0,0,0,17.43,4.88c11.16.31,21.18-3.2,30.3-9.51,6.09-4.21,11.24-9.37,14.44-16.31.26-.56-.18-1.69,1.09-1.69.71,3.15,2.79,5.51,4.87,7.64C301.68,36.51,317,40.17,333.79,38.25a50.81,50.81,0,0,0,25.34-10.47c0,.4.05.8.07,1.2a29.42,29.42,0,0,1-8.71,5.45,2.62,2.62,0,0,0-1.76,2.88c.09,9.59.1,19.18.13,28.77.15,49.83.78,99.67.48,149.5,0,1.79.25,2.47,2.27,2.49a176.36,176.36,0,0,1,36.45,3.66,170.75,170.75,0,0,1,43.09,15.42c1.62.84,2.47.62,3.49-.72,4.27-5.58,8.61-11.11,12.9-16.67Q464.4,198,481.23,176.14q20.53-26.5,41.09-53,20-25.78,40.1-51.55c.49-.63,1.27-1.25.5-2.21.94,0,1.19,1.06,2,1.34-.79,1-1.6,2-2.38,3q-11.38,14.67-22.77,29.33Q527,119.4,514.24,135.71c-7.7,9.9-15.35,19.82-23.05,29.71-6.13,7.9-12.31,15.76-18.44,23.65S460.44,205,454.26,213s-12.3,15.76-18.45,23.64c-.94,1.21-1.64,2.11.48,3.2,15.25,7.85,28.71,18.28,41,30.31,1.84,1.8,3.22,1.88,5.43.8q45.29-22.15,90.66-44.13,46.92-22.8,93.87-45.56c6-2.91,11.9-6.2,18.15-8.65l.15.89c-.68,1.22-2,1.56-3.07,2.1q-35.58,17.19-71.18,34.34c-21.52,10.41-43,20.91-64.51,31.33q-31.71,15.36-63.44,30.67c-2.6,1.25-2.62,1.33-.4,3.2,7.45,6.27,14.34,13.19,21.6,19.66,10,8.88,20.7,16.81,31.49,24.61.53.38,1,1.11,1.75.68,1.44-.85,2.94-.4,4.42-.44.1.35,0,.92.64.73s.93-.38.63-1c2.84-.17,5.68-.63,8.48-.71,8.17-.24,16.2-1.85,24.36-2.14,6.08-.22,12.13-1,18.2-1.57,5.24-.47,10.49-.9,15.73-1.37,5.82-.52,11.64-1,17.45-1.6,6.15-.63,12.33-.76,18.45-1.75,1.59,1,3.15,1.29,4.63-.21l2.69-.48c1.47,1.55,2.88.84,4.29-.09l22.13-2,.49,1.2c-5.74.55-11.48,1.15-17.23,1.64-5.58.48-11.19.81-16.78,1.28-5.82.5-11.64,1.1-17.47,1.62-5.5.48-11,.89-16.52,1.36-5.91.51-11.82,1.09-17.73,1.59-5.25.45-10.52.71-15.76,1.27-8.65.94-17.34,1.47-26,2.34-4.44.44-9,.15-13.67,1.46a21.73,21.73,0,0,0,7.2,4.34c4.15,1.5,5.31,4.87,6.26,8.58.17.66.3,1.32.49,2,1.13,4,1,7.72-2.4,10.66a1.31,1.31,0,0,0-.37,1.39c.51,2.29-.35,3-2.63,3.62A212.69,212.69,0,0,0,508,367c-17.73,8.74-34.41,19.43-51.75,28.9-3.16,1.72-6.23,3.6-9.74,5.63l25.48,10a1.87,1.87,0,0,0,2.06-.53c2.56-2.21,5.11-4.43,7.69-6.61,4-3.39,8-6.74,12.3-9.72.82-.57,1.79-1.7,2.87-.63,2.18,2.18,2.13.33,2.2-1.21s0-3.35,2.09-3.37,4-.46,6-.6c9.2-.67,18.41-1.11,27.58-2,2.92-.27,5.85-.34,8.77-.6,6.67-.6,13.35-1.07,20-1.56.61-.05,1.49-.33,1.71.6.47,2,1.37,1.15,2.3.45q7.2-5.35,14.39-10.71c2.44-1.82,5.6-2.17,7.47-.74q8.22,6.3,16.43,12.63,20.67,15.87,41.34,31.75c6.6,5.09,13.14,10.27,19.71,15.41a1.46,1.46,0,0,0-1.23.65c-2.68-2-5.37-4.05-8-6.1l-63.94-49.17c-.31,0-.6,0-.9-.09,0,.13.07.32.16.39.44.31.72.19.75-.38-1.22.73-.11,1.34.21,1.76q16.57,22,33.23,43.93c8.73,11.56,17.6,23,26.08,34.75,4.05,5.62,9.46,8.6,15.68,10.49,4.22,1.28,8.48,2.44,12.79,3.29,2,.41,3.91,2.08,6.19,1.15v2.06a3.71,3.71,0,0,1-1,0Q672.1,472.95,657.3,469c-1.09-.29-2.09-.62-3.07.21-3.72,3.16-7.44,6.3-11.2,9.48A5.79,5.79,0,0,0,645.4,480q12.33,4.89,24.66,9.8c3.55,1.41,3.56,1.39,3.24-2.13,0-.06.1-.12.22-.27,1,.5,1.13,1.48,1.37,2.46.2.78.46,2,1,2.18,4,1.3,7.6,4.12,12.09,3.86q0,98.65,0,197.31C688,695,687.65,695.63,685.93,695.24ZM450.45,373.69c-.51-1.11.68-1.71,1-3.11-2.33.77-3.86,2.15-6.21,3.63H450a3.3,3.3,0,0,1-4.13,1.09c-1.44-.78-2.27-.18-3.31.47-.78.5-1.59.94-2.38,1.42a232.45,232.45,0,0,1-24.5,12.58c3.1,1.22,6,2.31,8.84,3.5a4,4,0,0,0,3.58-.24c14.4-7,27.92-15.52,41.31-24.25a389,389,0,0,1,34.66-20.66,91.69,91.69,0,0,1,21.78-7.63,2.49,2.49,0,0,0-2.94-.76c-4.64,1.33-9.34,2.41-13.8,4.31a10.25,10.25,0,0,1-5.63.61c-7-1-13.74,0-19.74,3.87-8.4,5.47-16.58,11.28-24.92,16.83a17.9,17.9,0,0,0-6,6C452.28,372.35,451.75,373.46,450.45,373.69ZM555.74,404c-.57.8-1.61,1.27-1.74,2.58l3.82-.74c.33-.73-1.47-.53-.47-1.45,4.13,1.77,7.87-.6,11.88-1-1.54-5.36-3-10.56-4.53-15.75a1.53,1.53,0,0,0-1.83-1.26c-4.94.33-9.88.48-14.82.77-1,.07-2.64.16-3,.79-.51,1,.82,1.84,1.46,2.7.06.07-.07.29-.18.7-2.67-1-5.53-.47-8.31-1.12-2.48-.59-4.88-1.74-7.49-1.59-4.1.24-8.19.54-12.28.85-5.14.38-10.28.8-15.55,1.21a3.86,3.86,0,0,0,1.17,2.14c4,4.79,8.14,9.55,12.1,14.42a3.66,3.66,0,0,0,3.11,1.6c8.83.22,17.62-.81,26.44-.79,2.85,0,6.25-.08,8-3.42C554.06,403.58,555,404,555.74,404ZM347,127.23h.18q0-40.71,0-81.43c0-2.66,0-5.31.06-8,0-1.39-.3-1.76-1.73-1.23a55.26,55.26,0,0,1-30.31,2.48c-11.92-2.4-22.4-7.33-29.8-17.62-1-1.44-1.45-1.33-2.43.08C272.34,36.85,257.88,44.86,239.39,45c-6.33,0-12.5-.85-18-4.46-1.17-.77-1.7,0-2.27.73C214,48,207.74,53.54,201.53,59.19,187.19,72.24,170.9,82,153.2,89.42c-4,1.7-4.15,1.69-1.43,5.23q13.29,17.35,26.69,34.63c8.36,10.78,16.79,21.5,25.16,32.27q14.81,19.06,29.55,38.18c9.24,11.92,18.53,23.79,27.69,35.77,1.54,2,2.71,2.5,5.09,1.24a163.89,163.89,0,0,1,37.84-14,174.05,174.05,0,0,1,40.35-4.66c2.3,0,2.9-.63,2.89-3Q346.91,171.16,347,127.23ZM463,283.09c3.41.55,6.73-.17,10-.58a23.11,23.11,0,0,0,9.5-2.88c1.17-.72,1.44-1.27.25-2.21s-2.33-2-3.44-3c-10.58-9.89-21.37-19.5-33.74-27.08-1-.62-1.87-1.2-3.2-.67s-2.61.39-2.83-1.59a3.09,3.09,0,0,0-1.91-2.43c-5.78-2.89-11.47-6-17.45-8.46a175.26,175.26,0,0,0-51.79-13.14c-8.54-.77-17.12-.66-25.68-.62A165.35,165.35,0,0,0,301,225.71,180.07,180.07,0,0,0,235.52,258c-6.74,5.26-12.75,11.38-19.19,17-1.33,1.16-3.87,2.54-3.5,3.62.64,1.87,3.22,2.31,5.2,2.9.08,0,.18,0,.25,0A57.86,57.86,0,0,0,238,283.06c2.84-.21,6.09.15,8.39-2.58,1.07-1.27,2.64-2.09,3.89-3.22,3.63-3.27,8-5.57,9.87-10.84a5.53,5.53,0,0,1,7-3.29,5.1,5.1,0,0,0,4.27-.84,156.21,156.21,0,0,1,29.7-14.6,161.12,161.12,0,0,1,33.1-8.5c4.88-.73,9.77-1.54,14.72-1.38a135.12,135.12,0,0,1,26.24,3.86,161.39,161.39,0,0,1,49.36,20.42,6.5,6.5,0,0,0,4.51,1.1c4.07-.6,5.21.35,7.18,3.74,1.14,2,2,4.11,3.85,5.59q5.7,4.62,11.39,9.27a2.79,2.79,0,0,0,1.81.78C456.48,282.58,459.68,283.67,463,283.09ZM210.62,310.2c2.51.95,4.56,1.6,6.5,2.5a2.18,2.18,0,0,0,2.52-.3c7.05-5.07,14.19-10,21.15-15.19C254.51,287,268,276.53,283.23,268.55c16.32-8.56,33.35-14.3,51.69-15.79a157,157,0,0,1,34.39,1,113.53,113.53,0,0,1,28,7.45c18.12,7.49,34.51,17.95,50.09,29.91,14.71,11.3,29.54,22.45,45.77,31.49,17.6,9.82,35.64,18.46,55.56,22.27,1.4.27,4.24-2.63,4-4.05-.09-.57-.42-.67-.85-.68-4.62-.18-8.57-2.53-12.81-4-14.34-4.93-27.72-12-41.22-18.81A169.64,169.64,0,0,1,477.68,305c-11.93-8.28-22.48-18.36-33.86-27.38-12.4-9.83-25.54-18.35-40.12-24.36a144.59,144.59,0,0,0-43.51-10.66,138.7,138.7,0,0,0-39.54,2.1,150.29,150.29,0,0,0-39.27,13.68c-15.34,8-28.7,18.82-42,29.77-7.23,6-14.06,12.43-21.91,17.59C215.35,307.1,213.21,308.51,210.62,310.2Zm137.55-46.51a54.07,54.07,0,0,0-10.81.81c-16.84,3.5-30.26,12.25-40.06,26.76-1.73,2.55-1.89,4.76-.51,7.3.52,1,1.06,1.94,1.65,2.87,2.72,4.32,6.84,6.95,11.11,9.39,1.45.83,2.62,1.63,2.24,3.74-2.16,11.85.48,22.68,7.91,31.9,6.89,8.55,16.78,11.39,27.15,12.33,5.89.53,11.56-1.23,17-3.44,4.88-2,9.58-4.46,12.72-8.84,6.38-8.89,10-18.66,7.92-29.94-.53-2.84-.08-4.86,2.92-6.32a25.52,25.52,0,0,0,11.86-11.4,6.78,6.78,0,0,0-.48-7.76C386.33,273.41,369.56,264.11,348.17,263.69ZM409,384.82a7.35,7.35,0,0,0,3.41-.51,110.44,110.44,0,0,0,19.73-9.7c9.14-5.92,18.69-11.12,27.75-17.18,6.3-4.2,12.13-9,18.46-13.28-3.84-3.63-7.66-7.08-11.32-10.7-10.37-10.25-21.25-19.82-33.86-27.16-.68-.39-1.46-1.37-2.21-.83s-.31,1.73-.15,2.59a90.27,90.27,0,0,1,.51,33.46C428.22,358.21,421.33,372.76,409,384.82ZM583.27,488a2.72,2.72,0,0,0,1.88-.64c13.93-8.25,27.64-16.88,41.77-24.8.83-.47,1.59-.73.59-2-4.47-5.75-8.81-11.6-13.2-17.41-.87-1.15-1.89-1.16-3.08-.42-5.51,3.38-11.05,6.7-16.56,10.09-8,4.94-16,9.92-23.94,14.87-1,.61-1.31,1-.46,2.28,3.89,5.64,7.61,11.4,11.38,17.13C582.05,487.74,582.49,488.19,583.27,488Zm-58.34-73.26c4.05,7.06,8,14,12,20.88.59,1,1.13,1,2.2.8,7.72-1.7,15.44-3.35,23.19-4.87a72.23,72.23,0,0,0,22-7.8c.55-.32,1.71-.17,1-1.66-2.64-5.21-5.07-10.53-7.6-15.8a3.65,3.65,0,0,0-4.34-2.14c-11.24,2.28-22.55,4.19-33.69,7C534.8,412.36,530,413.54,524.93,414.78Zm68,6.57c-7.61,3.67-15.13,7.29-22.65,10.93-1.57.76-3.2,1.39-3.67,3.45-.29,1.25-1.43,1.6-2.55,1.7a32.73,32.73,0,0,0-12.16,3.89c-1.58.83-2.16,1.64-1,3.45,4,6.15,8,12.36,11.81,18.67,1.13,1.88,2.15,1.95,3.78,1,1.86-1.14,3.77-2.21,5.7-3.23a3.66,3.66,0,0,0,2.06-2.44c.5-1.71,1.3-4,3.8-2.38,1.51,1,2.59.41,3.83-.23,6.53-3.41,13.08-6.78,19.57-10.26,1.3-.69,3.6-.15,3.82-1.67.17-1.17-1.4-2.58-2.13-3.92Q598,430.82,593,421.35Zm-82.43-7.68c-.38-.56-.81-1.3-1.34-1.95-4.07-5-8.26-9.89-12.17-15-1.2-1.57-1.92-1.35-3.11-.36-2.28,1.88-4.58,3.73-6.88,5.58-8.94,7.22-17.55,14.85-26.07,22.57-1,.93-1.24,1.57-.07,2.64,4.93,4.52,9.78,9.13,14.63,13.74.92.88,1.52,1.16,2.68.17,5.67-4.8,11.45-9.47,17.18-14.2.32-.25.81-.64.78-.92-.32-2.86,2.18-2.75,3.69-3.55a12.11,12.11,0,0,0,2-.95c2.7-2.17,5.33-4.42,8-6.62C510.17,414.54,510.56,414.38,510.52,413.67ZM481,519.87c-.43,1,.7,1,1.4,1.3,4.07,1.72,8.22,3.27,12.22,5.16,1.59.75,1.81.31,2.3-1.09q7.75-22.11,15.67-44.17c.53-1.46.09-2.05-1-2.64-5.64-3.12-11.29-6.22-16.92-9.36-1.2-.67-1.63-.59-2,1-1.13,5.28-2.65,10.48-3.69,15.78-1.1,5.62-3.6,11-3.11,16.9.23,2.83.77,5.69-2.52,7.22-.18.08-.28.42-.34.65C482.41,513.55,481.75,516.53,481,519.87ZM539.44,505a1.73,1.73,0,0,0-1-1.82c-5.41-3.05-10.8-6.14-16.12-9.33-1.68-1-2.15-.32-2.4,1.24-.31,1.83-.67,3.66-1,5.49-1.22,7.09-2.5,14.16-3.63,21.27-1,6.53-1.86,13.09-2.84,19.64a2.17,2.17,0,0,0,1.37,2.75c3.52,1.59,7,3.34,10.43,5,1.27.63,2.64,2,3.78,1.79,2-.32.9-2.56,1.24-3.89,2.2-8.75,4-17.61,6.36-26.32.56-2.12-2-2.46-1.3-4.29.59-1.61,2.82-1.16,3.13-3.17C537.88,510.69,538.72,508,539.44,505ZM385.05,377.7a2.4,2.4,0,0,0,3.42-.3c2.1-2.09,4.43-4,6.46-6.08a69.32,69.32,0,0,0,17.19-32.38c.6-2.54,1.36-4.49,4.26-5.17,3.94-.94,7.1-3.47,9.72-6.51,2.76-3.2,5.5-6.54,3.95-11.4a24.37,24.37,0,0,1-.65-4c-1.68-12.56-6.38-23.94-13.09-34.52a4.47,4.47,0,0,0-1.83-2.06c-.29-.12-.7-.3-.92-.18-.47.25-.3.72-.08,1.1s.64,1,.95,1.51a145.69,145.69,0,0,1,10.79,21.61c.27.69,1.08,1.61.18,2.33s-1.35-.29-2-.61c-3.74-1.88-7.45-3.85-11.24-5.61a85.73,85.73,0,0,0-11.85-4.79c9.11,14.7,12.24,30.2,9.38,46.69S398.41,367.36,385.05,377.7ZM559.17,470a11.89,11.89,0,0,0-.83-1.12c-5-5.4-9.73-11.09-14.39-16.82-1.12-1.37-1.66-.79-2.44.27-6.42,8.84-12,18.21-17.71,27.55-1.32,2.18-.77,3.62.79,5.06,4.09,3.79,8.22,7.55,12.35,11.31,1.06,1,1.86,1.18,2.94-.29,3.43-4.63,7.08-9.08,10.58-13.65,1.27-1.67,3.16-3.2,3.3-5.34.18-2.82,1.29-4.47,3.83-5.38C558.22,471.34,559.09,471.1,559.17,470Zm-24.52,88.93c-.18.85.93,1,1.74,1.26,3.3,1.15,6.62,2.23,9.91,3.37,1.78.62,2.63,0,2.94-1.86.36-2.08.75-4.17,1.3-6.2,3.19-11.65,5.93-23.45,10.23-34.75.41-1.06.51-1.68-.79-2.37-5.08-2.74-10.08-5.65-15.05-8.61-1.48-.89-2.23-.71-2.52,1-1.19,7.09-2.4,14.18-3.55,21.27-.94,5.76-1.93,11.52-2.66,17.31C535.82,552.38,535.19,555.36,534.65,558.91Zm-21.33-89.47c.93.07,1.1-.75,1.41-1.23,2.08-3.18,4.13-6.4,6.12-9.64.56-.93,2-1.85.3-3.12-.37-.28.3-.6.43-.88.93-2,3.47-1.86,4.44-4a42.72,42.72,0,0,1,4.78-7.48c1.27-1.7,1.28-2.7-.53-4q-7-5.16-13.77-10.68c-1.44-1.17-2-1-3.06.44-6.17,8.29-11.82,16.93-17.16,25.79-1.49,2.48-1.46,3.08.93,4.62,4.93,3.19,9.9,6.33,14.86,9.48C512.49,469,512.92,469.2,513.32,469.44ZM282.91,275.07c-2.9.6-3.65,3.24-4.9,5.31a85.55,85.55,0,0,0-11.43,32c-.47,3.17-1.72,6.44,0,9.76a23.75,23.75,0,0,0,14,12c1.57.53,2.79,1.17,2.91,2.92a2.23,2.23,0,0,0,2.48,2.29c1.4-.29.56-1.91.39-2.81A61.21,61.21,0,0,1,287.48,310a67.53,67.53,0,0,1,8.1-19,2.09,2.09,0,0,0-1.57.1,188.83,188.83,0,0,0-21.2,9.88c-.67.36-1.41,1.37-2.18.58s0-1.6.32-2.38c1.5-4.07,3.55-7.88,5.4-11.79C278.33,283.21,280.86,279.31,282.91,275.07ZM455.6,436.9c-.94,6.42-1.79,12.45-2.72,18.46-1.25,8-2.56,16.08-3.85,24.12a2,2,0,0,0,1,2.32c2.81,1.67,5.6,3.4,8.29,5.27,1.34.93,1.71.39,2.21-.82q6.73-16.17,13.53-32.31c.29-.68.67-1.29-.18-2C467.84,447,461.82,442,455.6,436.9ZM564.41,476c-1,.24-1.34.94-1.85,1.49-5.64,6.1-10.39,12.91-15.1,19.75-1.87,2.73-1.94,3,.65,5.17,4.18,3.55,8.55,6.87,12.61,10.56,1.74,1.58,2.36,1.1,3.44-.54q6.92-10.53,14.05-20.9c.95-1.38,0-1.77-.66-2.44-4.12-4.11-8.66-7.78-12.26-12.42A4,4,0,0,0,564.41,476Zm74.71,1.16c1.32,1.34,2.33.91,3.33.08,3.24-2.71,6.5-5.39,9.71-8.12,2.5-2.12,2.73-4.75.72-7.44q-9.81-13.11-19.64-26.21Q611.1,406,588.94,376.62c-1.75-2.33-3.11-2.67-5.41-.94-5.39,4-10.73,8.16-16.1,12.23-.55.42-1.32.82-.75,1.58s1.18-.07,1.65-.42c5-3.71,10-7.37,14.94-11.22,1.69-1.33,2.66-1,3.79.57,1.82,2.55,3.74,5,5.61,7.53l57,76.68a4.82,4.82,0,0,1-.82,6.19C645.58,471.53,642.41,474.3,639.12,477.13ZM409.8,387.19c3,1.8,3,1.81,5.07.93a241.34,241.34,0,0,0,37.43-20.54c12.14-8,24.21-16.16,36.32-24.24a151.41,151.41,0,0,1,18.68-10.92c-2.81-3.16-5.53-1.77-8.49-.13-4,2.25-7.81,4.89-11.68,7.39-6.7,4.33-13,9.29-19.36,14-7,5.23-14.45,9.84-21.9,14.37-9.3,5.65-18.41,11.66-28.53,15.79A54.08,54.08,0,0,0,409.8,387.19ZM266,304.69a128.15,128.15,0,0,0-24.6,17.46l22.11,8.55C263.15,321.88,264.39,313.55,266,304.69ZM598.2,413.43c0-3.27-3-6.62-5.91-6.36-3.58.31-7.15.74-10.72,1.11-.62.06-1.32.11-.89,1,1.53,3.21,3.12,6.4,4.68,9.6.27.54.85.46,1.28.68,2.57,1.28,4.86-.14,7.26-.68A5.33,5.33,0,0,0,598.2,413.43Zm15,17.24a5.68,5.68,0,0,0-7.29-5.62c-1,.28-2.09.59-3.15.78-5.42,1-5.42,1-2.52,5.94,1,1.75,1.63,4.18,3.13,5.07s3.75-.7,5.7-1A4.84,4.84,0,0,0,613.2,430.67Zm8.22,19.63c2.49,3.18,4.82,6.17,7.18,9.13a3,3,0,0,0,4.89-.43,7.41,7.41,0,0,0-.21-7.89,6.78,6.78,0,0,0-8-2.29C624.16,449.24,623,449.7,621.42,450.3ZM575.9,392.94l-6.72.64c-.44,0-.75.14-.87.68-.74,3.57,3.12,7.72,6.81,7.24.75-.09,1.4-.36,2.06.34,1.31,1.39,2.91,1.3,3.54-.33.74-1.9,1.83-3.91.53-6A5.07,5.07,0,0,0,575.9,392.94Zm51.24,51c-1.57,0-3.18-.17-4.67.59-.42.21-.74.41-.56.93a.68.68,0,0,0,.82.41,14.54,14.54,0,0,0,1.44-.38c4.11-1.13,9.51.64,11.85,3.64,4,5.14,2.73,12.42-1.67,15.71-.6.44-1.45,1-.84,1.83s1.38,0,1.93-.4a11.85,11.85,0,0,0,4.7-10.71C639.45,447.76,633.69,443.63,627.14,443.94Zm-20.25-24.43c.24,1,.89,1,1.44,1.15,6.25,1.91,10.53,10.27,4.93,16.46-.37.41-1,.95-.39,1.52s1.09-.1,1.52-.46c3-2.59,3.87-7.77,1.94-12S610.48,419.1,606.89,419.51Zm-15-17.06c.16.54.64.47,1,.62,8.19,3.18,10.45,9,6.66,17-.28.59-.77,1.39,0,1.77s1.14-.49,1.5-1.05c4.5-6.88.63-16.8-7.35-18.89C593,401.7,592.24,401.48,591.87,402.45Zm-5.09-3.8a9.69,9.69,0,0,0-9.64-9.91c-.87,0-2.46-.59-2.45.76,0,1.07,1.54.44,2.34.46,3.69.1,6.09,2.18,7.74,5.23,1.46,2.71.75,5.26-1.17,7.52-.39.46-.93,1-.28,1.5s1.13-.1,1.48-.53A7,7,0,0,0,586.78,398.65Zm-55.21,34.9a16.27,16.27,0,0,0-6.13-8.87,4.87,4.87,0,0,0-1.83-.68,1.14,1.14,0,0,0-1.34.9c-.2.85.47,1,1.08.94,1.34-.09,2.13.78,3,1.63a13.17,13.17,0,0,1,3.58,6.56c.12.58-.1,1.84,1.05,1.64C531.78,435.52,531.38,434.54,531.57,433.55ZM549.4,453.5c.85,1.84,3,2.41,3.88,4.17,1.18,2.23,2.64,4.32,4,6.46.31.5.65,1.18,1.31.89.85-.38.18-1,0-1.48A26.12,26.12,0,0,0,552,454,2.07,2.07,0,0,0,549.4,453.5Zm39.91,50.06c-.59-1.05-1.15-2.08-1.74-3.09-1.33-2.25-2.66-4.5-4-6.73-.25-.41-.61-.93-1.19-.58a.94.94,0,0,0-.22.88q2.79,5.11,5.68,10.16a.94.94,0,0,0,.87.22C588.92,504.33,589.05,503.94,589.31,503.56ZM464.23,436.29a1.47,1.47,0,0,0-.85,1.76c.37,2.93,5.41,7.64,8.27,7.78.44,0,.83,0,1-.5.31-.82-.32-1.16-.83-1.29C467.79,443,465.57,440.16,464.23,436.29Zm46.09-29.54c0-2.43-2.61-6.38-4.7-7.23-.73-.29-1.65-.52-2.06.22-.6,1.08.63.89,1.09,1.15a8.67,8.67,0,0,1,4.18,6.05c.14.65-.38,1.88.79,1.74C510.45,408.59,510.07,407.37,510.32,406.75Zm-.25,67.3c.78-.13,1.6.17,1.72-.61s-.76-.67-1.25-.8a19.47,19.47,0,0,1-7.47-4c-.37-.31-.74-.82-1.23-.21a.81.81,0,0,0,.2,1.14C504.49,471.65,507.08,473.47,510.07,474.05Zm62.64,50.18c-.1-.19-.15-.52-.32-.63-2.23-1.33-4.47-2.65-6.72-3.93-.31-.17-.65,0-.81.38a.7.7,0,0,0,.28.89c2.13,1.35,4.26,2.69,6.43,4C572.11,525.23,572.51,524.86,572.71,524.23ZM260.11,269.52c2.08-1.31,3.77-2.35,5.43-3.44.37-.24,1-.42.82-1.08s-.79-.49-1.25-.48C262.23,264.58,260.93,266.41,260.11,269.52ZM536.39,388.58a10.49,10.49,0,0,0,5.67.93c.76,0,1.37-.46,1.38-1.18,0-1-.89-.75-1.48-.77A10.78,10.78,0,0,0,536.39,388.58ZM436,269.44c-1.21-3.58-2.86-5-5-4.94-.52,0-1,0-1.18.62s.43.65.75.85C432.19,267,433.86,268.09,436,269.44ZM383,363.9a9.2,9.2,0,0,0,2.61,4,1.09,1.09,0,0,0,.87.28.53.53,0,0,0,.18-.85C385.49,366.06,384.77,364.39,383,363.9Zm105.52-59.07a.92.92,0,0,0,.21-.13c1-1.11,2.41-1.86,3-3.35.12-.32-.33-.71-.63-.6-1.43.5-2.06,1.89-3,2.94C487.58,304.2,487.92,304.61,488.48,304.83Zm-276.84-2.06c.11-.76-2.92-3.88-3.53-3.75a.55.55,0,0,0-.35,1c.94,1.08,1.92,2.13,3,3.11A.56.56,0,0,0,211.64,302.77Zm277-3.6c-1.3.05-4,2.32-4,3.36,0,.21.18.6.28.6a1.48,1.48,0,0,0,.9-.25A9.4,9.4,0,0,0,488.68,299.17Zm97.66,156.44L582,457.84c-.41.21-1,.35-.57,1.08.33.53.67.29,1,.06C583.9,458.07,585.47,457.3,586.34,455.61Zm68.83,8.6c.4,2.39.91,4,3.76,3.19A10.9,10.9,0,0,0,655.17,464.21ZM207.52,305l.68-.35c0-1.73-1.42-2.64-2.46-3.73a.5.5,0,0,0-.85.09,1.11,1.11,0,0,0,0,.93C205.75,303,206.65,304,207.52,305ZM525.14,490.49c-.22,2,1.24,2.75,2.22,3.79a.66.66,0,0,0,.91.05c.39-.3.11-.63-.06-.87A8.13,8.13,0,0,0,525.14,490.49Zm62.37-34.89-.18-.31c-.05,0-.16.12-.15.16a1.5,1.5,0,0,0,.16.34Z"/><path class="cls-1" d="M497.82,695.24H339.47c0-1-1-1.24-1.57-1.67q-8.73-6.29-17.5-12.51-39.36-28-78.74-55.95-48.51-34.53-97-69.11Q94.74,520.45,44.76,485,22.43,469.08.07,453.23V395.17c2.84,1.63,5.7,3.2,8.51,4.89C18.47,406,28.33,412,38.21,417.91c6.13,3.69,12.29,7.34,18.42,11q14.71,8.83,29.41,17.7,16.13,9.71,32.26,19.38,14.94,9,29.88,17.94c6.29,3.76,12.6,7.48,18.88,11.25q14.83,8.91,29.65,17.84l18.42,11.05q15.17,9.07,30.34,18.16c5.56,3.32,11.17,6.56,16.73,9.9,10.38,6.25,20.73,12.57,31.11,18.82,5.55,3.34,11.18,6.55,16.72,9.91,9.86,6,19.66,12.05,29.54,18,13.51,8.1,27.1,16.06,40.6,24.16,14.16,8.49,28.25,17.09,42.39,25.6,10.1,6.07,20.26,12.06,30.37,18.12q20.67,12.4,41.31,24.9C495.68,692.52,497.56,693.09,497.82,695.24Z"/><path class="cls-1" d="M.07,68.38A162.22,162.22,0,0,0,22.45,82.25a182,182,0,0,0,42.24,14.4,182.67,182.67,0,0,0,30.76,4c17.22.73,33.83-2.82,50.06-8.36,1.54-.52,2.32-.4,3.34.92,8.52,11.07,17.13,22.08,25.72,33.1s17.09,21.88,25.61,32.85c7.58,9.76,15.1,19.56,22.67,29.33s15.06,19.38,22.6,29.07c5.2,6.68,10.38,13.37,15.65,20,1.06,1.33.08,1.54-.71,1.94A169.51,169.51,0,0,0,232,258.32c-4.76,3.8-9.21,8-13.57,12.24-1.23,1.21-2.25,1.38-3.91.57Q132,230.89,49.3,190.78L.31,167c-.06,0-.16,0-.24,0Z"/><path class="cls-1" d="M359.13,27.78a50.81,50.81,0,0,1-25.34,10.47c-16.77,1.92-32.11-1.74-44.43-14.39-2.08-2.13-4.16-4.49-4.87-7.64-1.27,0-.83,1.13-1.09,1.69C280.2,24.85,275.05,30,269,34.22c-9.12,6.31-19.14,9.82-30.3,9.51a38.08,38.08,0,0,1-17.43-4.88c-1.12-.62-1.39-.23-1.92.3-1.49,1.5-3,3-4.42,4.57A170.49,170.49,0,0,1,176.55,75.8,183.39,183.39,0,0,1,151,88.56a151.22,151.22,0,0,1-32.95,9c-10,1.63-20.16,1.54-30.33.8a178.94,178.94,0,0,1-36-6.57c-17.79-5-34.54-12.43-49.44-23.76C1.49,67.52.79,66.91.07,66.33.07,45,.11,23.72,0,2.42,0,.19.63,0,2.53,0Q109.46.09,216.42.05c1.72,3.67,4.75,6.15,7.87,8.38,10.11,7.22,21.26,8.89,33.09,5.66a35.2,35.2,0,0,0,20-13.55l.55-.49h71.61c-.76.53-.11,1.08.08,1.51,6,13.78,22.91,18.52,34.43,11.76,5.16-3,9.41-7,10.88-13.27h13.62c-1.84,7.36,1.07,12.61,6.82,16.89a42.59,42.59,0,0,0,14.41,6.81c5,1.39,10,2.73,15.06,4.09a2,2,0,0,0,0,.49h-2.52a2.07,2.07,0,0,0-2.21-.41l-13.43-.14c-2.58-.89-5.21-.39-7.82-.3a80.28,80.28,0,0,1-8.46-.75c-6.3-1.11-12.5-2.41-16.75-8-1.24-1.62-2.17-1.9-3.59.05-6.19,8.53-17.95,12-27.61,6.67-.77-.43-1.25-.68-1.75.38A9.23,9.23,0,0,1,359.13,27.78Z"/><path class="cls-1" d="M287.52,695.24H140.27c-.11-.67-.67-1-1.11-1.32q-12.94-10.81-25.9-21.6-23.36-19.5-46.68-39Q47.76,617.51,29,601.62C19.3,593.48,9.46,585.55.07,577.06V477.38c2.58,1.25,4.72,3.17,7,4.87,11.65,8.76,23.22,17.63,34.85,26.42,9.88,7.48,19.81,14.89,29.69,22.36q17.55,13.26,35.06,26.57,14.91,11.29,29.84,22.55c8.26,6.27,16.48,12.59,24.75,18.84,11.91,9,23.86,17.9,35.77,26.89,8.27,6.24,16.47,12.59,24.76,18.82,12.13,9.11,24.33,18.12,36.45,27.23q13.14,9.89,26.11,20C285.51,692.83,287.28,693.33,287.52,695.24Z"/><path class="cls-3" d="M359.13,27.78a9.23,9.23,0,0,0,1.6-1.91c.5-1.06,1-.81,1.75-.38,9.66,5.31,21.42,1.86,27.61-6.67,1.42-1.95,2.35-1.67,3.59-.05,4.25,5.55,10.45,6.85,16.75,8a80.28,80.28,0,0,0,8.46.75c2.58.82,5.21.35,7.82.3l13.43.14a2,2,0,0,0,2.21.41h2.52c2.34,1.44,5,.13,6.56.92-1.75.19-3.92-2-6.58-1.41-5-1.36-10.05-2.7-15.06-4.09a42.59,42.59,0,0,1-14.41-6.81c-5.75-4.28-8.66-9.53-6.82-16.89q138.6,0,277.21,0c1.74,0,2.23.26,2.23,2.2q-.11,86-.06,172c-.32.61-.82.62-1,0-.2-1-.89-.66-1.45-.75l-.15-.89a2.76,2.76,0,0,0,1.58-2.83c-.14-3.42-.13-6.84,0-10.26a3.48,3.48,0,0,0-1.65-3.18c-9.56-7.09-18.56-14.89-27.69-22.52A534.53,534.53,0,0,0,609.91,98C596,88.81,581.84,80.13,567.42,71.83c-.15-.82-.7-.89-1.35-.75l-1.2-.34c-.76-.28-1-1.32-2-1.34-.6-.27-1.22-.51-1.8-.82a410,410,0,0,0-40.69-18.92c-19.55-7.81-39.58-13.89-60.4-17.23a218.57,218.57,0,0,0-34.89-3.27,87.8,87.8,0,0,1-17-1.3c-5.9-1.15-11.57-2.79-15.4-8-1-1.4-1.23-.2-1.69.38-6.72,8.41-17.45,11-25.95,7.8-2.46-.92-4.21-1.1-5.92,1C359.18,28.58,359.15,28.18,359.13,27.78ZM646.44,46.72a9.45,9.45,0,0,0-1.22-1,22.9,22.9,0,0,1-4.71-4.19c-2.6-2.9-3.89-6.53-5.45-10-.29-.65-.6-1.35-1.32-1.38a1.68,1.68,0,0,0-1.66,1.32c-.2.65-.39,1.3-.62,1.93-1.88,5.12-4.84,9.33-9.77,11.82-2.1,1.06-2.19,1.63-.28,3a32.25,32.25,0,0,1,7.05,7.23C630.3,58,630.91,61,631.56,64c.17.74.47,1.34,1.25,1.36s1-.52,1.16-1.15c.11-.41.33-.78.48-1.18,2.33-6.16,5.49-11.69,11.29-15.17C646.1,47.6,646.5,47.43,646.44,46.72ZM526.39,36.17a11,11,0,0,0,.81-1.68c1-3.47,2.49-6.65,5.43-8.93,1.09-.85.41-1.67-.32-2.31a21.27,21.27,0,0,1-5.07-7.81c-.25-.56-.31-1.47-1.15-1.5-.67,0-.8.71-1.1,1.21-1.85,3.1-3,6.7-6.45,8.62-.9.5-.27,1.23.29,1.61,1.93,1.34,3.07,3.36,4.41,5.21C524.46,32.28,524.61,34.59,526.39,36.17ZM654.66,84.54a2.68,2.68,0,0,0-1.44,1.73c-1.37,3.2-2.5,6.52-5.61,8.57-1,.68-.32,1.46.31,2.1a15.73,15.73,0,0,1,4.28,8.75c.12.7.12,1.4,1,1.48s1-.77,1.17-1.37a18.75,18.75,0,0,1,2.6-5.74c.84-1.28,2.57-2,2.72-3.58s-1.73-2.37-2.47-3.68c-.42-.73-.69-1.55-1.1-2.3C655.17,88.69,655.41,86.55,654.66,84.54ZM578,38.31c0,2.18,1.87,4.26,3.83,4.2A4.88,4.88,0,0,0,586,38.36a4.16,4.16,0,0,0-4.06-4A3.75,3.75,0,0,0,578,38.31Z"/><path class="cls-1" d="M685.54,173.49c.56.09,1.25-.27,1.45.75.13.61.63.6,1,0v22.1c-2-.31-1,1.28-1,1.87q-.09,52.23-.05,104.47c0,3.06-1.21,4.36-4.28,4.59-.92.07-1.84.08-2.76.12l-22.13,2a10.17,10.17,0,0,0-4.29.09l-2.69.48c-1.55-.15-3.12-.51-4.63.21-6.12,1-12.3,1.12-18.45,1.75-5.81.59-11.63,1.08-17.45,1.6-5.24.47-10.49.9-15.73,1.37-6.07.53-12.12,1.35-18.2,1.57-8.16.29-16.19,1.9-24.36,2.14-2.8.08-5.64.54-8.48.71a.86.86,0,0,0-1.27.31c-1.48,0-3-.41-4.42.44-.72.43-1.22-.3-1.75-.68-10.79-7.8-21.51-15.73-31.49-24.61-7.26-6.47-14.15-13.39-21.6-19.66-2.22-1.87-2.2-1.95.4-3.2q31.71-15.35,63.44-30.67c21.51-10.42,43-20.92,64.51-31.33q35.57-17.2,71.18-34.34C683.58,175.05,684.86,174.71,685.54,173.49ZM565,291.74c1.07-.15,1-1.23,1.31-1.93,3.06-7.22,7-13.81,13.31-18.57,1.29-1,1.13-1.88-.11-2.54a12.89,12.89,0,0,1-3.93-3.14c-3.18-3.8-5.9-7.81-6.34-13.05-.07-.83.13-2.5-1-2.58-1.28-.09-1.68,1.43-2.15,2.53-.06.15-.07.33-.13.49-2.24,6.64-6.15,11.87-12.46,15-1.57.78-1.64,1.56-.15,2.5,4.52,2.86,7,7.22,8.6,12.22.82,2.58,1.5,5.21,2.25,7.82C564.33,291,564.34,291.54,565,291.74Z"/><path class="cls-4" d="M.07,169.09A19.4,19.4,0,0,1,8.78,173c3.56,2.53,7.58,3.83,11.36,5.68C48.53,192.5,77,206.2,105.42,220s56.82,27.56,85.24,41.33q11.29,5.47,22.66,10.83c1.74.82,1.91,1.36.34,2.66-8.49,7-16.32,14.78-24.42,22.23-2.68,2.47-4.77,3.13-8.47,1.68q-78.23-30.65-156.6-60.87L1.27,229a6.91,6.91,0,0,0-1.2-.25Z"/><path class="cls-1" d="M335.94,695.24H290.55c.11-1-.66-1.26-1.26-1.71-5.78-4.37-11.55-8.77-17.33-13.14q-15-11.32-30-22.65-15.24-11.5-30.44-23c-9.95-7.51-19.93-15-29.88-22.49C171.38,604.48,161.21,596.69,151,589s-20.68-15.38-31-23.15c-16.93-12.8-33.81-25.69-50.74-38.51-9.94-7.53-19.93-15-29.88-22.49-4.56-3.45-9.06-7-13.63-10.44q-7.77-5.86-15.61-11.6c-3.39-2.45-6.47-5.34-10.09-7.46v-20a14,14,0,0,1,1.3.74L39.2,483q54.93,39.22,109.86,78.46Q195,594.28,240.89,627q39.86,28.44,79.66,56.93C325.72,687.63,331.12,691,335.94,695.24Z"/><path class="cls-1" d="M136.74,695.24q-67.26,0-134.52,0C.44,695.29,0,695,0,693.07q.1-56.46.05-112.92c.7-.57,1,.17,1.4.47Q16,592.8,30.61,605q21.54,18.11,43,36.24,28.49,24,56.91,48.12C132.7,691.2,135.32,692.58,136.74,695.24Z"/><path class="cls-5" d="M593.75,379.51l63.94,49.18c2.67,2.05,5.36,4.07,8,6.1,1.2.84,1.65,2.16,2.25,3.42.9,1.9,1.94,3.69,4.56,2.7.83-.32,1.41.33,2,.79,3.37,2.62,6.72,5.27,10.1,7.88.91.71,2,1.22,1.84,2.74,0,.3,0,2,1.46,1.43v21.06c-2.28.93-4.14-.74-6.19-1.15-4.31-.85-8.57-2-12.79-3.29-6.22-1.89-11.63-4.87-15.68-10.49-8.48-11.75-17.35-23.19-26.08-34.75q-16.62-22-33.23-43.93c-.32-.42-1.43-1-.21-1.76Zm65.16,80.2c-.47-.24-.91-1-1.47-.32-.43.54.24.86.54,1.18a26.83,26.83,0,0,0,2.18,2.09c.35.3,1.17.59,1.15-.07,0-1.65,1.32-.73,1.91-1.22a9.1,9.1,0,0,0-2.69-3c-.7-.53-1.31-.43-1,.73Z"/><path class="cls-4" d="M497.82,695.24c-.26-2.15-2.14-2.72-3.58-3.59q-20.62-12.51-41.31-24.9c-10.11-6.06-20.27-12-30.37-18.12-14.14-8.51-28.23-17.11-42.39-25.6-13.5-8.1-27.09-16.06-40.6-24.16-9.88-5.93-19.68-12-29.54-18-5.54-3.36-11.17-6.57-16.72-9.91-10.38-6.25-20.73-12.57-31.11-18.82-5.56-3.34-11.17-6.58-16.73-9.9q-15.18-9.06-30.34-18.16l-18.42-11.05q-14.82-8.91-29.65-17.84c-6.28-3.77-12.59-7.49-18.88-11.25q-15-9-29.88-17.94Q102.18,456.33,86,446.64q-14.7-8.83-29.41-17.7c-6.13-3.69-12.29-7.34-18.42-11C28.33,412,18.47,406,8.58,400.06c-2.81-1.69-5.67-3.26-8.51-4.89V392.6c3.93,3.19,8.36,5.56,12.68,8.14,10.7,6.39,21.35,12.86,32,19.27,9.25,5.53,18.52,11,27.77,16.55Q90.44,447.27,108.29,458,130.14,471.2,152,484.35c10.39,6.24,20.85,12.36,31.25,18.59,15.24,9.14,30.43,18.35,45.67,27.49,15,9,30.08,18,45.09,27,12.06,7.24,24.06,14.58,36.12,21.82,10.69,6.41,21.45,12.7,32.14,19.1,10.41,6.23,20.77,12.54,31.17,18.78,12.2,7.33,24.44,14.59,36.65,21.92,12.41,7.46,24.79,15,37.22,22.43,10.61,6.35,21.28,12.63,31.91,19,5.13,3.06,10.3,6.06,15.34,9.29,2.44,1.56,5.09,2.59,7.6,3.95.68.37,1.75.38,1.71,1.58Z"/><path class="cls-2" d="M335.94,695.24c-4.82-4.22-10.22-7.61-15.39-11.32Q280.77,655.39,240.89,627,195,594.23,149.06,561.5,94.12,522.29,39.2,483L1.37,456a14,14,0,0,0-1.3-.74v-2.06Q22.42,469.1,44.76,485q50,35.52,99.91,71.05,48.51,34.53,97,69.11,39.35,28,78.74,55.95,8.78,6.23,17.5,12.51c.61.43,1.56.62,1.57,1.67Z"/><path class="cls-3" d="M277.39.54a35.2,35.2,0,0,1-20,13.55c-11.83,3.23-23,1.56-33.09-5.66-3.12-2.23-6.15-4.71-7.87-8.38h61Z"/><path class="cls-5" d="M687.94,495.88c-4.49.26-8.06-2.56-12.09-3.86-.5-.16-.76-1.4-1-2.18-.24-1-.36-2-1.37-2.46-.12.15-.22.21-.22.27.32,3.52.31,3.54-3.24,2.13q-12.34-4.89-24.66-9.8a5.79,5.79,0,0,1-2.37-1.32c3.76-3.18,7.48-6.32,11.2-9.48,1-.83,2-.5,3.07-.21q14.81,4,29.64,7.89a3.71,3.71,0,0,0,1,0Zm-11.35-8.27c-.61,0-.75.43-.62.71.4.85.17,2.1,1.24,2.49.48.17.63-.53.5-.91A4.46,4.46,0,0,0,676.59,487.61Z"/><path class="cls-4" d="M.07,475.33c3.62,2.12,6.7,5,10.09,7.46q7.86,5.71,15.61,11.6c4.57,3.44,9.07,7,13.63,10.44,10,7.51,19.94,15,29.88,22.49C86.21,540.14,103.09,553,120,565.83c10.28,7.77,20.66,15.4,31,23.15s20.4,15.5,30.61,23.22c9.95,7.52,19.93,15,29.88,22.49q15.24,11.5,30.44,23,15,11.35,30,22.65c5.78,4.37,11.55,8.77,17.33,13.14.6.45,1.37.73,1.26,1.71h-3c-.24-1.91-2-2.41-3.18-3.32q-13-10.11-26.11-20c-12.12-9.11-24.32-18.12-36.45-27.23-8.29-6.23-16.49-12.58-24.76-18.82-11.91-9-23.86-17.91-35.77-26.89-8.27-6.25-16.49-12.57-24.75-18.84q-14.91-11.29-29.84-22.55Q89.13,544.33,71.6,531c-9.88-7.47-19.81-14.88-29.69-22.36C30.28,499.88,18.71,491,7.06,482.25c-2.27-1.7-4.41-3.62-7-4.87Z"/><path class="cls-3" d="M394.94.05c-1.47,6.26-5.72,10.25-10.88,13.27-11.52,6.76-28.4,2-34.43-11.76-.19-.43-.84-1-.08-1.51Z"/><path class="cls-2" d="M136.74,695.24c-1.42-2.66-4-4-6.19-5.87q-28.38-24.14-56.91-48.12-21.49-18.13-43-36.24Q16.08,592.79,1.47,580.62c-.37-.3-.7-1-1.4-.47v-3.09c9.39,8.49,19.23,16.42,28.9,24.56q18.81,15.84,37.61,31.68,23.31,19.55,46.68,39,12.93,10.8,25.9,21.6c.44.36,1,.65,1.11,1.32Z"/><path class="cls-3" d="M687.94,453.75c-1.48.61-1.48-1.13-1.46-1.43.11-1.52-.93-2-1.84-2.74-3.38-2.61-6.73-5.26-10.1-7.88-.59-.46-1.17-1.11-2-.79-2.62,1-3.66-.8-4.56-2.7-.6-1.26-1.05-2.58-2.25-3.42a1.46,1.46,0,0,1,1.23-.65l19.53,14.63c.66-.55.41-1.2.41-1.75q0-67.62.06-135.25c0-2.13-1-2.61-2.69-2.79-1.3-.14-2.67.42-3.9-.4l-.49-1.2c.92,0,1.84-.05,2.76-.12,3.07-.23,4.28-1.53,4.28-4.59q0-52.25.05-104.47c0-.59-1-2.18,1-1.87Z"/><path class="cls-4" d="M277.39.54l.05-.49h.5Z"/><path class="cls-1" d="M359.2,29c1.71-2.06,3.46-1.88,5.92-1,8.5,3.15,19.23.61,25.95-7.8.46-.58.66-1.78,1.69-.38,3.83,5.23,9.5,6.87,15.4,8a87.8,87.8,0,0,0,17,1.3A218.57,218.57,0,0,1,460,32.43c20.82,3.34,40.85,9.42,60.4,17.23a410,410,0,0,1,40.69,18.92c.58.31,1.2.55,1.8.82.77,1,0,1.58-.5,2.21q-20,25.78-40.1,51.55-20.57,26.47-41.09,53-16.86,21.8-33.69,43.62c-4.29,5.56-8.63,11.09-12.9,16.67-1,1.34-1.87,1.56-3.49.72a170.75,170.75,0,0,0-43.09-15.42,176.36,176.36,0,0,0-36.45-3.66c-2,0-2.28-.7-2.27-2.49.3-49.83-.33-99.67-.48-149.5,0-9.59,0-19.18-.13-28.77a2.62,2.62,0,0,1,1.76-2.88A29.42,29.42,0,0,0,359.2,29ZM373,167c-.61.07-.82.92-1.14,1.55-1.84,3.61-3.29,7.47-6.91,9.8-.86.56-.65,1.3.12,1.85,3.51,2.53,6.16,5.66,7,10.14.1.58.34,1.38,1.3,1.27s.69-.77.88-1.3c1.35-3.71,3-7.37,6.07-9.81,1.91-1.5,1.31-2.13.08-3.41-2.57-2.69-5-5.5-6.14-9.18C374,167.4,374,167,373,167ZM474.83,67.82a5.49,5.49,0,0,0-5.08,5c0,2.45,2.56,4.92,5.13,4.9,2.93,0,4.8-2,4.82-5A4.61,4.61,0,0,0,474.83,67.82Z"/><path class="cls-4" d="M347,127.23q0,43.94,0,87.86c0,2.35-.59,3-2.89,3a174.05,174.05,0,0,0-40.35,4.66,163.89,163.89,0,0,0-37.84,14c-2.38,1.26-3.55.77-5.09-1.24-9.16-12-18.45-23.85-27.69-35.77q-14.78-19.08-29.55-38.18c-8.37-10.77-16.8-21.49-25.16-32.27Q165.07,112,151.77,94.65c-2.72-3.54-2.61-3.53,1.43-5.23,17.7-7.44,34-17.18,48.33-30.23C207.74,53.54,214,48,219.15,41.27c.57-.74,1.1-1.5,2.27-.73,5.47,3.61,11.64,4.5,18,4.46,18.49-.14,32.95-8.15,43.56-23.46,1-1.41,1.39-1.52,2.43-.08,7.4,10.29,17.88,15.22,29.8,17.62a55.26,55.26,0,0,0,30.31-2.48c1.43-.53,1.76-.16,1.73,1.23-.06,2.66-.06,5.31-.06,8q0,40.71,0,81.43ZM229,106.16c0-.85-.6-1.14-1-1.59a33.89,33.89,0,0,1-5.37-9.45c-.27-.76-.24-1.91-1.18-2S220.28,94.23,220,95c-1.55,3.7-3.29,7.24-6.65,9.62-.67.47-.64.92-.15,1.45a31.83,31.83,0,0,1,6.24,10.67,2.07,2.07,0,0,0,1.66,1.36c.84.13.93-.8,1.17-1.38a32.21,32.21,0,0,1,6.05-9.61A7,7,0,0,0,229,106.16Z"/><path class="cls-4" d="M567.42,71.83c14.42,8.3,28.61,17,42.49,26.19a534.53,534.53,0,0,1,47.71,35.79c9.13,7.63,18.13,15.43,27.69,22.52a3.48,3.48,0,0,1,1.65,3.18c-.12,3.42-.13,6.84,0,10.26a2.76,2.76,0,0,1-1.58,2.83c-6.25,2.45-12.12,5.74-18.15,8.65q-47,22.71-93.87,45.56-45.35,22-90.66,44.13c-2.21,1.08-3.59,1-5.43-.8-12.28-12-25.74-22.46-41-30.31-2.12-1.09-1.42-2-.48-3.2Q445,224.81,454.26,213c6.18-8,12.31-16,18.49-23.92s12.31-15.75,18.44-23.65c7.7-9.89,15.35-19.81,23.05-29.71q12.72-16.35,25.48-32.66,11.41-14.65,22.77-29.33c.78-1,1.59-2,2.38-3l1.2.34A1.75,1.75,0,0,0,567.42,71.83Z"/><path class="cls-4" d="M680.37,308.58c1.23.82,2.6.26,3.9.4,1.69.18,2.69.66,2.69,2.79q-.09,67.64-.06,135.25c0,.55.25,1.2-.41,1.75L667,434.14c-6.57-5.14-13.11-10.32-19.71-15.41Q626.61,402.82,605.91,387q-8.22-6.32-16.43-12.63c-1.87-1.43-5-1.08-7.47.74q-7.18,5.37-14.39,10.71c-.93.7-1.83,1.52-2.3-.45-.22-.93-1.1-.65-1.71-.6-6.68.49-13.36,1-20,1.56-2.92.26-5.85.33-8.77.6-9.17.86-18.38,1.3-27.58,2-2,.14-4,.58-6,.6s-2,1.8-2.09,3.37,0,3.39-2.2,1.21c-1.08-1.07-2.05.06-2.87.63-4.3,3-8.31,6.33-12.3,9.72-2.58,2.18-5.13,4.4-7.69,6.61a1.87,1.87,0,0,1-2.06.53l-25.48-10c3.51-2,6.58-3.91,9.74-5.63,17.34-9.47,34-20.16,51.75-28.9a212.69,212.69,0,0,1,39.73-15.29c2.28-.6,3.14-1.33,2.63-3.62a1.31,1.31,0,0,1,.37-1.39c3.39-2.94,3.53-6.65,2.4-10.66-.19-.65-.32-1.31-.49-2-.95-3.71-2.11-7.08-6.26-8.58a21.73,21.73,0,0,1-7.2-4.34c4.7-1.31,9.23-1,13.67-1.46,8.65-.87,17.34-1.4,26-2.34,5.24-.56,10.51-.82,15.76-1.27,5.91-.5,11.82-1.08,17.73-1.59,5.51-.47,11-.88,16.52-1.36,5.83-.52,11.65-1.12,17.47-1.62,5.59-.47,11.2-.8,16.78-1.28C668.89,309.73,674.63,309.13,680.37,308.58Z"/><path class="cls-5" d="M463,283.09c-3.27.58-6.47-.51-9.73-.52a2.79,2.79,0,0,1-1.81-.78q-5.69-4.65-11.39-9.27c-1.83-1.48-2.71-3.62-3.85-5.59-2-3.39-3.11-4.34-7.18-3.74a6.5,6.5,0,0,1-4.51-1.1,161.39,161.39,0,0,0-49.36-20.42,135.12,135.12,0,0,0-26.24-3.86c-4.95-.16-9.84.65-14.72,1.38a161.12,161.12,0,0,0-33.1,8.5,156.21,156.21,0,0,0-29.7,14.6,5.1,5.1,0,0,1-4.27.84,5.53,5.53,0,0,0-7,3.29c-1.84,5.27-6.24,7.57-9.87,10.84-1.25,1.13-2.82,1.95-3.89,3.22-2.3,2.73-5.55,2.37-8.39,2.58a57.86,57.86,0,0,1-19.68-1.58c-.07,0-.17,0-.25,0-2-.59-4.56-1-5.2-2.9-.37-1.08,2.17-2.46,3.5-3.62,6.44-5.6,12.45-11.72,19.19-17A180.07,180.07,0,0,1,301,225.71a165.35,165.35,0,0,1,41.72-5.28c8.56,0,17.14-.15,25.68.62a175.26,175.26,0,0,1,51.79,13.14c6,2.49,11.67,5.57,17.45,8.46a3.09,3.09,0,0,1,1.91,2.43c.22,2,1.49,2.13,2.83,1.59s2.19.05,3.2.67c12.37,7.58,23.16,17.19,33.74,27.08,1.11,1,2.26,2.05,3.44,3s.92,1.49-.25,2.21a23.11,23.11,0,0,1-9.5,2.88C469.68,282.92,466.36,283.64,463,283.09ZM270.87,245.46l-.71-.76a12.37,12.37,0,0,0-4,3.26c-.31.33-.49.75-.09,1.1s.61.05.87-.17Zm2.33.18c-2.16,1.31-3.65,2.2-4,5C270.8,248.93,272.32,248.06,273.2,245.64Zm133.74-6.48c-.1-.51-.46-.65-.76-.54-.78.29-1.7.5-1.95,1.44-.14.55.4.76.8.5C405.69,240.14,406.58,240,406.94,239.16Z"/><path class="cls-5" d="M210.62,310.2c2.59-1.69,4.73-3.1,6.87-4.51,7.85-5.16,14.68-11.63,21.91-17.59,13.28-11,26.64-21.78,42-29.77a150.29,150.29,0,0,1,39.27-13.68,138.7,138.7,0,0,1,39.54-2.1,144.59,144.59,0,0,1,43.51,10.66c14.58,6,27.72,14.53,40.12,24.36,11.38,9,21.93,19.1,33.86,27.38a169.64,169.64,0,0,0,20.16,12.41c13.5,6.8,26.88,13.88,41.22,18.81,4.24,1.46,8.19,3.81,12.81,4,.43,0,.76.11.85.68.23,1.42-2.61,4.32-4,4.05-19.92-3.81-38-12.45-55.56-22.27-16.23-9-31.06-20.19-45.77-31.49-15.58-12-32-22.42-50.09-29.91a113.53,113.53,0,0,0-28-7.45,157,157,0,0,0-34.39-1c-18.34,1.49-35.37,7.23-51.69,15.79-15.21,8-28.72,18.45-42.44,28.66-7,5.18-14.1,10.12-21.15,15.19a2.18,2.18,0,0,1-2.52.3C215.18,311.8,213.13,311.15,210.62,310.2Z"/><path class="cls-6" d="M348.17,263.69c21.39.42,38.16,9.72,50.64,27.4a6.78,6.78,0,0,1,.48,7.76,25.52,25.52,0,0,1-11.86,11.4c-3,1.46-3.45,3.48-2.92,6.32,2.1,11.28-1.54,21.05-7.92,29.94-3.14,4.38-7.84,6.86-12.72,8.84-5.46,2.21-11.13,4-17,3.44-10.37-.94-20.26-3.78-27.15-12.33-7.43-9.22-10.07-20-7.91-31.9.38-2.11-.79-2.91-2.24-3.74-4.27-2.44-8.39-5.07-11.11-9.39-.59-.93-1.13-1.9-1.65-2.87-1.38-2.54-1.22-4.75.51-7.3,9.8-14.51,23.22-23.26,40.06-26.76A54.07,54.07,0,0,1,348.17,263.69Zm-34,59.8a23.13,23.13,0,0,0,.9,7.9c5.39,19.41,22.56,27.61,40.53,24.35,17.56-3.19,29-21.24,26.09-38.09-3-17.3-17.43-27.22-32-28.58-5.16-.47-10,1-14.83,3A33.27,33.27,0,0,0,314.2,323.49Z"/><path class="cls-5" d="M409,384.82c12.38-12.06,19.27-26.61,22.32-43.31a90.27,90.27,0,0,0-.51-33.46c-.16-.86-.67-2,.15-2.59s1.53.44,2.21.83c12.61,7.34,23.49,16.91,33.86,27.16,3.66,3.62,7.48,7.07,11.32,10.7-6.33,4.26-12.16,9.08-18.46,13.28-9.06,6.06-18.61,11.26-27.75,17.18a110.44,110.44,0,0,1-19.73,9.7A7.35,7.35,0,0,1,409,384.82Z"/><path class="cls-5" d="M583.27,488c-.78.15-1.22-.3-1.62-.91-3.77-5.73-7.49-11.49-11.38-17.13-.85-1.23-.53-1.67.46-2.28,8-5,15.95-9.93,23.94-14.87,5.51-3.39,11.05-6.71,16.56-10.09,1.19-.74,2.21-.73,3.08.42,4.39,5.81,8.73,11.66,13.2,17.41,1,1.28.24,1.54-.59,2-14.13,7.92-27.84,16.55-41.77,24.8A2.72,2.72,0,0,1,583.27,488Z"/><path class="cls-5" d="M524.93,414.78c5-1.24,9.87-2.42,14.7-3.63,11.14-2.77,22.45-4.68,33.69-7a3.65,3.65,0,0,1,4.34,2.14c2.53,5.27,5,10.59,7.6,15.8.76,1.49-.4,1.34-1,1.66a72.23,72.23,0,0,1-22,7.8c-7.75,1.52-15.47,3.17-23.19,4.87-1.07.24-1.61.24-2.2-.8C533,428.73,529,421.84,524.93,414.78Z"/><path class="cls-5" d="M593,421.35q5.12,9.45,10.24,18.93c.73,1.34,2.3,2.75,2.13,3.92-.22,1.52-2.52,1-3.82,1.67-6.49,3.48-13,6.85-19.57,10.26-1.24.64-2.32,1.2-3.83.23-2.5-1.62-3.3.67-3.8,2.38a3.66,3.66,0,0,1-2.06,2.44c-1.93,1-3.84,2.09-5.7,3.23-1.63,1-2.65.91-3.78-1C559,457.13,555,450.92,551,444.77c-1.19-1.81-.61-2.62,1-3.45a32.73,32.73,0,0,1,12.16-3.89c1.12-.1,2.26-.45,2.55-1.7.47-2.06,2.1-2.69,3.67-3.45C577.82,428.64,585.34,425,593,421.35Z"/><path class="cls-5" d="M510.52,413.67c0,.71-.35.87-.68,1.14-2.68,2.2-5.31,4.45-8,6.62a12.11,12.11,0,0,1-2,.95c-1.51.8-4,.69-3.69,3.55,0,.28-.46.67-.78.92-5.73,4.73-11.51,9.4-17.18,14.2-1.16,1-1.76.71-2.68-.17-4.85-4.61-9.7-9.22-14.63-13.74-1.17-1.07-1-1.71.07-2.64,8.52-7.72,17.13-15.35,26.07-22.57,2.3-1.85,4.6-3.7,6.88-5.58,1.19-1,1.91-1.21,3.11.36,3.91,5.12,8.1,10,12.17,15C509.71,412.37,510.14,413.11,510.52,413.67Zm-26.82-3.86a4.52,4.52,0,0,0-4,.12c-.3.13-.65.2-.57.65s.53.62.74.5C481,410.46,482.48,410.91,483.7,409.81Zm-2.81,1.87c-.68,0-1.59-.16-1.68.66s.83.59,1.3.55c.63-.06,1.71.5,1.75-.68C482.28,411.39,481.35,411.83,480.89,411.68Z"/><path class="cls-5" d="M555.74,404c-.78.05-1.68-.37-2.21.67-1.72,3.34-5.12,3.42-8,3.42-8.82,0-17.61,1-26.44.79a3.66,3.66,0,0,1-3.11-1.6c-4-4.87-8.05-9.63-12.1-14.42a3.86,3.86,0,0,1-1.17-2.14c5.27-.41,10.41-.83,15.55-1.21,4.09-.31,8.18-.61,12.28-.85,2.61-.15,5,1,7.49,1.59,2.78.65,5.64.1,8.31,1.12.11-.41.24-.63.18-.7-.64-.86-2-1.71-1.46-2.7.32-.63,1.92-.72,3-.79,4.94-.29,9.88-.44,14.82-.77a1.53,1.53,0,0,1,1.83,1.26c1.51,5.19,3,10.39,4.53,15.75-4,.37-7.75,2.74-11.88,1C557.08,403.11,556.28,404.1,555.74,404Zm-20.86-.87a3.32,3.32,0,0,0,3.36-1.6C536.46,401,535.85,402.4,534.88,403.08Zm2.4,1.61c1.68-.28,2.72-.35,3.38-1.54C539.19,402.6,538.52,403.46,537.28,404.69Z"/><path class="cls-5" d="M481,519.87c.75-3.34,1.41-6.32,2.08-9.29.06-.23.16-.57.34-.65,3.29-1.53,2.75-4.39,2.52-7.22-.49-5.91,2-11.28,3.11-16.9,1-5.3,2.56-10.5,3.69-15.78.33-1.55.76-1.63,2-1,5.63,3.14,11.28,6.24,16.92,9.36,1.06.59,1.5,1.18,1,2.64q-8,22.05-15.67,44.17c-.49,1.4-.71,1.84-2.3,1.09-4-1.89-8.15-3.44-12.22-5.16C481.7,520.88,480.57,520.84,481,519.87Z"/><path class="cls-5" d="M539.44,505c-.72,3-1.56,5.65-2,8.39-.31,2-2.54,1.56-3.13,3.17-.68,1.83,1.86,2.17,1.3,4.29-2.34,8.71-4.16,17.57-6.36,26.32-.34,1.33.71,3.57-1.24,3.89-1.14.18-2.51-1.16-3.78-1.79-3.47-1.69-6.91-3.44-10.43-5a2.17,2.17,0,0,1-1.37-2.75c1-6.55,1.81-13.11,2.84-19.64,1.13-7.11,2.41-14.18,3.63-21.27.32-1.83.68-3.66,1-5.49.25-1.56.72-2.24,2.4-1.24,5.32,3.19,10.71,6.28,16.12,9.33A1.73,1.73,0,0,1,539.44,505Z"/><path class="cls-6" d="M385.05,377.7c13.36-10.34,21.76-23.77,24.65-40.4s-.27-32-9.38-46.69a85.73,85.73,0,0,1,11.85,4.79c3.79,1.76,7.5,3.73,11.24,5.61.64.32,1.22,1.23,2,.61s.09-1.64-.18-2.33a145.69,145.69,0,0,0-10.79-21.61c-.31-.51-.64-1-.95-1.51s-.39-.85.08-1.1c.22-.12.63.06.92.18a4.47,4.47,0,0,1,1.83,2.06c6.71,10.58,11.41,22,13.09,34.52a24.37,24.37,0,0,0,.65,4c1.55,4.86-1.19,8.2-3.95,11.4-2.62,3-5.78,5.57-9.72,6.51-2.9.68-3.66,2.63-4.26,5.17a69.32,69.32,0,0,1-17.19,32.38c-2,2.12-4.36,4-6.46,6.08A2.4,2.4,0,0,1,385.05,377.7Z"/><path class="cls-5" d="M559.17,470c-.08,1.12-.95,1.36-1.58,1.59-2.54.91-3.65,2.56-3.83,5.38-.14,2.14-2,3.67-3.3,5.34-3.5,4.57-7.15,9-10.58,13.65-1.08,1.47-1.88,1.25-2.94.29-4.13-3.76-8.26-7.52-12.35-11.31-1.56-1.44-2.11-2.88-.79-5.06,5.68-9.34,11.29-18.71,17.71-27.55.78-1.06,1.32-1.64,2.44-.27,4.66,5.73,9.36,11.42,14.39,16.82A11.89,11.89,0,0,1,559.17,470Z"/><path class="cls-5" d="M534.65,558.91c.54-3.55,1.17-6.53,1.55-9.57.73-5.79,1.72-11.55,2.66-17.31,1.15-7.09,2.36-14.18,3.55-21.27.29-1.72,1-1.9,2.52-1,5,3,10,5.87,15.05,8.61,1.3.69,1.2,1.31.79,2.37-4.3,11.3-7,23.1-10.23,34.75-.55,2-.94,4.12-1.3,6.2-.31,1.82-1.16,2.48-2.94,1.86-3.29-1.14-6.61-2.22-9.91-3.37C535.58,559.89,534.47,559.76,534.65,558.91Z"/><path class="cls-5" d="M450.45,373.69c1.3-.23,1.83-1.34,2.39-2.31a17.9,17.9,0,0,1,6-6c8.34-5.55,16.52-11.36,24.92-16.83,6-3.9,12.75-4.86,19.74-3.87a10.25,10.25,0,0,0,5.63-.61c4.46-1.9,9.16-3,13.8-4.31a2.49,2.49,0,0,1,2.94.76,91.69,91.69,0,0,0-21.78,7.63,389,389,0,0,0-34.66,20.66c-13.39,8.73-26.91,17.28-41.31,24.25a4,4,0,0,1-3.58.24c-2.85-1.19-5.74-2.28-8.84-3.5a232.45,232.45,0,0,0,24.5-12.58c.79-.48,1.6-.92,2.38-1.42,1-.65,1.87-1.25,3.31-.47a3.3,3.3,0,0,0,4.13-1.09l-.08,0c.58.21.75,0,.52-.56Z"/><path class="cls-5" d="M513.32,469.44c-.4-.24-.83-.48-1.25-.75-5-3.15-9.93-6.29-14.86-9.48-2.39-1.54-2.42-2.14-.93-4.62,5.34-8.86,11-17.5,17.16-25.79,1.06-1.44,1.62-1.61,3.06-.44q6.75,5.5,13.77,10.68c1.81,1.33,1.8,2.33.53,4a42.72,42.72,0,0,0-4.78,7.48c-1,2.16-3.51,2-4.44,4-.13.28-.8.6-.43.88,1.69,1.27.26,2.19-.3,3.12-2,3.24-4,6.46-6.12,9.64C514.42,468.69,514.25,469.51,513.32,469.44Z"/><path class="cls-6" d="M282.91,275.07c-2.05,4.24-4.58,8.14-6.56,12.35-1.85,3.91-3.9,7.72-5.4,11.79-.28.78-1,1.69-.32,2.38s1.51-.22,2.18-.58a188.83,188.83,0,0,1,21.2-9.88,2.09,2.09,0,0,1,1.57-.1,67.53,67.53,0,0,0-8.1,19,61.21,61.21,0,0,0-1.08,26.56c.17.9,1,2.52-.39,2.81a2.23,2.23,0,0,1-2.48-2.29c-.12-1.75-1.34-2.39-2.91-2.92a23.75,23.75,0,0,1-14-12c-1.73-3.32-.48-6.59,0-9.76a85.55,85.55,0,0,1,11.43-32C279.26,278.31,280,275.67,282.91,275.07Z"/><path class="cls-5" d="M455.6,436.9C461.82,442,467.84,447,473.89,452c.85.7.47,1.31.18,2q-6.76,16.15-13.53,32.31c-.5,1.21-.87,1.75-2.21.82-2.69-1.87-5.48-3.6-8.29-5.27a2,2,0,0,1-1-2.32c1.29-8,2.6-16.08,3.85-24.12C453.81,449.35,454.66,443.32,455.6,436.9Z"/><path class="cls-5" d="M564.41,476a4,4,0,0,1,.88.67c3.6,4.64,8.14,8.31,12.26,12.42.67.67,1.61,1.06.66,2.44q-7.15,10.37-14.05,20.9c-1.08,1.64-1.7,2.12-3.44.54-4.06-3.69-8.43-7-12.61-10.56-2.59-2.19-2.52-2.44-.65-5.17,4.71-6.84,9.46-13.65,15.1-19.75C563.07,476.91,563.45,476.21,564.41,476Z"/><path class="cls-5" d="M639.12,477.13c3.29-2.83,6.46-5.6,9.69-8.31a4.82,4.82,0,0,0,.82-6.19l-57-76.68c-1.87-2.51-3.79-5-5.61-7.53-1.13-1.6-2.1-1.9-3.79-.57-4.9,3.85-9.94,7.51-14.94,11.22-.47.35-1,1.24-1.65.42s.2-1.16.75-1.58c5.37-4.07,10.71-8.19,16.1-12.23,2.3-1.73,3.66-1.39,5.41.94q22.14,29.42,44.3,58.82,9.84,13.08,19.64,26.21c2,2.69,1.78,5.32-.72,7.44-3.21,2.73-6.47,5.41-9.71,8.12C641.45,478,640.44,478.47,639.12,477.13Z"/><path class="cls-5" d="M409.8,387.19a54.08,54.08,0,0,1,7.54-3.31c10.12-4.13,19.23-10.14,28.53-15.79,7.45-4.53,14.87-9.14,21.9-14.37,6.4-4.75,12.66-9.71,19.36-14,3.87-2.5,7.64-5.14,11.68-7.39,3-1.64,5.68-3,8.49.13a151.41,151.41,0,0,0-18.68,10.92c-12.11,8.08-24.18,16.21-36.32,24.24a241.34,241.34,0,0,1-37.43,20.54C412.83,389,412.83,389,409.8,387.19Z"/><path class="cls-5" d="M266,304.69c-1.6,8.86-2.84,17.19-2.49,26l-22.11-8.55A128.15,128.15,0,0,1,266,304.69Z"/><path class="cls-6" d="M598.2,413.43a5.33,5.33,0,0,1-4.3,5.36c-2.4.54-4.69,2-7.26.68-.43-.22-1-.14-1.28-.68-1.56-3.2-3.15-6.39-4.68-9.6-.43-.9.27-.95.89-1,3.57-.37,7.14-.8,10.72-1.11C595.17,406.81,598.23,410.16,598.2,413.43Z"/><path class="cls-6" d="M613.2,430.67a4.84,4.84,0,0,1-4.13,5.12c-2,.35-4.14,2-5.7,1s-2.11-3.32-3.13-5.07c-2.9-5-2.9-5,2.52-5.94,1.06-.19,2.11-.5,3.15-.78A5.68,5.68,0,0,1,613.2,430.67Z"/><path class="cls-6" d="M621.42,450.3c1.59-.6,2.74-1.06,3.9-1.48a6.78,6.78,0,0,1,8,2.29,7.41,7.41,0,0,1,.21,7.89,3,3,0,0,1-4.89.43C626.24,456.47,623.91,453.48,621.42,450.3Z"/><path class="cls-6" d="M575.9,392.94a5.07,5.07,0,0,1,5.35,2.56c1.3,2.1.21,4.11-.53,6-.63,1.63-2.23,1.72-3.54.33-.66-.7-1.31-.43-2.06-.34-3.69.48-7.55-3.67-6.81-7.24.12-.54.43-.64.87-.68Z"/><path class="cls-4" d="M627.14,443.94c6.55-.31,12.31,3.82,13,11.62a11.85,11.85,0,0,1-4.7,10.71c-.55.41-1.28,1.26-1.93.4s.24-1.39.84-1.83c4.4-3.29,5.67-10.57,1.67-15.71-2.34-3-7.74-4.77-11.85-3.64a14.54,14.54,0,0,1-1.44.38.68.68,0,0,1-.82-.41c-.18-.52.14-.72.56-.93C624,443.77,625.57,444,627.14,443.94Z"/><path class="cls-4" d="M606.89,419.51c3.59-.41,7.46,2.34,9.44,6.68s1.1,9.4-1.94,12c-.43.36-.95,1-1.52.46s0-1.11.39-1.52c5.6-6.19,1.32-14.55-4.93-16.46C607.78,420.49,607.13,420.51,606.89,419.51Z"/><path class="cls-4" d="M591.87,402.45c.37-1,1.11-.75,1.86-.56,8,2.09,11.85,12,7.35,18.89-.36.56-.79,1.38-1.5,1.05s-.32-1.18,0-1.77c3.79-8,1.53-13.81-6.66-17C592.51,402.92,592,403,591.87,402.45Z"/><path class="cls-4" d="M586.78,398.65a7,7,0,0,1-2,5c-.35.43-.9,1-1.48.53s-.11-1,.28-1.5c1.92-2.26,2.63-4.81,1.17-7.52-1.65-3.05-4-5.13-7.74-5.23-.8,0-2.34.61-2.34-.46,0-1.35,1.58-.77,2.45-.76A9.69,9.69,0,0,1,586.78,398.65Z"/><path class="cls-4" d="M531.57,433.55c-.19,1,.21,2-.63,2.12-1.15.2-.93-1.06-1.05-1.64a13.17,13.17,0,0,0-3.58-6.56c-.83-.85-1.62-1.72-3-1.63-.61,0-1.28-.09-1.08-.94a1.14,1.14,0,0,1,1.34-.9,4.87,4.87,0,0,1,1.83.68A16.27,16.27,0,0,1,531.57,433.55Z"/><path class="cls-4" d="M549.4,453.5A2.07,2.07,0,0,1,552,454a26.12,26.12,0,0,1,6.55,9.5c.19.5.86,1.1,0,1.48-.66.29-1-.39-1.31-.89-1.34-2.14-2.8-4.23-4-6.46C552.35,455.91,550.25,455.34,549.4,453.5Z"/><path class="cls-4" d="M589.31,503.56c-.26.38-.39.77-.63.86a.94.94,0,0,1-.87-.22q-2.89-5.06-5.68-10.16a.94.94,0,0,1,.22-.88c.58-.35.94.17,1.19.58,1.37,2.23,2.7,4.48,4,6.73C588.16,501.48,588.72,502.51,589.31,503.56Z"/><path class="cls-4" d="M464.23,436.29c1.34,3.87,3.56,6.75,7.61,7.75.51.13,1.14.47.83,1.29-.19.49-.58.52-1,.5-2.86-.14-7.9-4.85-8.27-7.78A1.47,1.47,0,0,1,464.23,436.29Z"/><path class="cls-4" d="M510.32,406.75c-.25.62.13,1.84-.7,1.93-1.17.14-.65-1.09-.79-1.74a8.67,8.67,0,0,0-4.18-6.05c-.46-.26-1.69-.07-1.09-1.15.41-.74,1.33-.51,2.06-.22C507.71,400.37,510.29,404.32,510.32,406.75Z"/><path class="cls-4" d="M510.07,474.05c-3-.58-5.58-2.4-8-4.44a.81.81,0,0,1-.2-1.14c.49-.61.86-.1,1.23.21a19.47,19.47,0,0,0,7.47,4c.49.13,1.4-.12,1.25.8S510.85,473.92,510.07,474.05Z"/><path class="cls-4" d="M572.71,524.23c-.2.63-.6,1-1.14.68-2.17-1.28-4.3-2.62-6.43-4a.7.7,0,0,1-.28-.89c.16-.38.5-.55.81-.38,2.25,1.28,4.49,2.6,6.72,3.93C572.56,523.71,572.61,524,572.71,524.23Z"/><path class="cls-4" d="M260.11,269.52c.82-3.11,2.12-4.94,5-5,.46,0,1.06-.19,1.25.48s-.45.84-.82,1.08C263.88,267.17,262.19,268.21,260.11,269.52Z"/><path class="cls-4" d="M536.39,388.58a10.78,10.78,0,0,1,5.57-1c.59,0,1.51-.27,1.48.77,0,.72-.62,1.14-1.38,1.18A10.49,10.49,0,0,1,536.39,388.58Z"/><path class="cls-4" d="M436,269.44c-2.13-1.35-3.8-2.4-5.46-3.47-.32-.2-.87-.31-.75-.85s.66-.6,1.18-.62C433.13,264.41,434.78,265.86,436,269.44Z"/><path class="cls-4" d="M450,374.21H445.2c2.35-1.48,3.88-2.86,6.21-3.63-.28,1.4-1.47,2-1,3.11l0-.08c-.43-.06-.81-.07-.52.56Z"/><path class="cls-6" d="M383,363.9c1.81.49,2.53,2.16,3.66,3.4a.53.53,0,0,1-.18.85,1.09,1.09,0,0,1-.87-.28A9.2,9.2,0,0,1,383,363.9Z"/><path class="cls-4" d="M488.48,304.83c-.56-.22-.9-.63-.45-1.14.93-1.05,1.56-2.44,3-2.94.3-.11.75.28.63.6-.55,1.49-2,2.24-3,3.35A.92.92,0,0,1,488.48,304.83Z"/><path class="cls-4" d="M211.64,302.77a.56.56,0,0,1-.92.31c-1-1-2-2-3-3.11a.55.55,0,0,1,.35-1C208.72,298.89,211.75,302,211.64,302.77Z"/><path class="cls-4" d="M488.68,299.17a9.4,9.4,0,0,1-2.83,3.71,1.48,1.48,0,0,1-.9.25c-.1,0-.28-.39-.28-.6C484.69,301.49,487.38,299.22,488.68,299.17Z"/><path class="cls-4" d="M555.74,404c.54.15,1.34-.84,1.61.39-1,.92.8.72.47,1.45l-3.82.74C554.13,405.22,555.17,404.75,555.74,404Z"/><path class="cls-4" d="M586.34,455.61c-.87,1.69-2.44,2.46-3.91,3.37-.37.23-.71.47-1-.06-.45-.73.16-.87.57-1.08Z"/><path class="cls-4" d="M655.17,464.21a10.9,10.9,0,0,1,3.76,3.19C656.08,468.23,655.57,466.6,655.17,464.21Z"/><path class="cls-4" d="M207.52,305c-.87-1-1.77-2-2.6-3.06a1.11,1.11,0,0,1,0-.93.5.5,0,0,1,.85-.09c1,1.09,2.42,2,2.46,3.73Z"/><path class="cls-4" d="M525.14,490.49a8.13,8.13,0,0,1,3.07,3c.17.24.45.57.06.87a.66.66,0,0,1-.91-.05C526.38,493.24,524.92,492.49,525.14,490.49Z"/><path class="cls-4" d="M646.14,310.19c1.51-.72,3.08-.36,4.63-.21C649.29,311.48,647.73,311.22,646.14,310.19Z"/><path class="cls-4" d="M653.46,309.5a10.17,10.17,0,0,1,4.29-.09C656.34,310.34,654.93,311.05,653.46,309.5Z"/><path class="cls-4" d="M542.2,319.64a.86.86,0,0,1,1.27-.31c.3.66-.13.9-.63,1S542.3,320,542.2,319.64Z"/><path class="cls-5" d="M593.76,379.44c0,.57-.31.69-.75.38-.09-.07-.11-.26-.16-.39.3,0,.59.07.9.09Z"/><path class="cls-4" d="M587.51,455.6l-.17.19a1.5,1.5,0,0,1-.16-.34s.1-.11.15-.16Z"/><path class="cls-4" d="M444.85,27.84c2.66-.59,4.83,1.6,6.58,1.41-1.57-.79-4.22.52-6.56-.92A2,2,0,0,1,444.85,27.84Z"/><path class="cls-4" d="M426.71,27.78c-2.61,0-5.24.52-7.82-.3C421.5,27.39,424.13,26.89,426.71,27.78Z"/><path class="cls-4" d="M442.35,28.33a2,2,0,0,1-2.21-.41A2.07,2.07,0,0,1,442.35,28.33Z"/><path class="cls-6" d="M646.44,46.72c.06.71-.34.88-.7,1.09-5.8,3.48-9,9-11.29,15.17-.15.4-.37.77-.48,1.18-.17.63-.51,1.16-1.16,1.15s-1.08-.62-1.25-1.36c-.65-3-1.26-6-3.1-8.52a32.25,32.25,0,0,0-7.05-7.23c-1.91-1.41-1.82-2,.28-3,4.93-2.49,7.89-6.7,9.77-11.82.23-.63.42-1.28.62-1.93a1.68,1.68,0,0,1,1.66-1.32c.72,0,1,.73,1.32,1.38,1.56,3.48,2.85,7.11,5.45,10a22.9,22.9,0,0,0,4.71,4.19A9.45,9.45,0,0,1,646.44,46.72Z"/><path class="cls-5" d="M526.39,36.17c-1.78-1.58-1.93-3.89-3.15-5.58-1.34-1.85-2.48-3.87-4.41-5.21-.56-.38-1.19-1.11-.29-1.61,3.42-1.92,4.6-5.52,6.45-8.62.3-.5.43-1.23,1.1-1.21.84,0,.9.94,1.15,1.5a21.27,21.27,0,0,0,5.07,7.81c.73.64,1.41,1.46.32,2.31-2.94,2.28-4.39,5.46-5.43,8.93A11,11,0,0,1,526.39,36.17Z"/><path class="cls-4" d="M654.66,84.54c.75,2,.51,4.15,1.49,6,.41.75.68,1.57,1.1,2.3.74,1.31,2.64,2,2.47,3.68s-1.88,2.3-2.72,3.58a18.75,18.75,0,0,0-2.6,5.74c-.14.6-.18,1.45-1.17,1.37s-.91-.78-1-1.48a15.73,15.73,0,0,0-4.28-8.75c-.63-.64-1.34-1.42-.31-2.1,3.11-2,4.24-5.37,5.61-8.57A2.68,2.68,0,0,1,654.66,84.54Zm-1.29,18.3c1.28-2.17,2.17-4.2,3.79-5.7a.77.77,0,0,0,0-1.28c-1.69-1.68-2.35-4-3.25-6.24-1.28,2-2.27,4-4,5.35-.71.57-.6,1-.08,1.63A21.84,21.84,0,0,1,653.37,102.84Z"/><path class="cls-5" d="M578,38.31a3.75,3.75,0,0,1,3.92-4,4.16,4.16,0,0,1,4.06,4,4.88,4.88,0,0,1-4.15,4.15C579.91,42.57,578,40.49,578,38.31Zm3.77-2.26a2,2,0,0,0-2.15,2,2.19,2.19,0,0,0,2.17,2.57,2,2,0,0,0,2-2.16A2.27,2.27,0,0,0,581.81,36.05Z"/><path class="cls-2" d="M567.42,71.83a1.75,1.75,0,0,1-1.35-.75C566.72,70.94,567.27,71,567.42,71.83Z"/><path class="cls-6" d="M565,291.74c-.65-.2-.66-.76-.79-1.24-.75-2.61-1.43-5.24-2.25-7.82-1.59-5-4.08-9.36-8.6-12.22-1.49-.94-1.42-1.72.15-2.5,6.31-3.14,10.22-8.37,12.46-15,.06-.16.07-.34.13-.49.47-1.1.87-2.62,2.15-2.53,1.12.08.92,1.75,1,2.58.44,5.24,3.16,9.25,6.34,13.05a12.89,12.89,0,0,0,3.93,3.14c1.24.66,1.4,1.57.11,2.54-6.36,4.76-10.25,11.35-13.31,18.57C566,290.51,566.06,291.59,565,291.74Z"/><path class="cls-2" d="M659.52,459.09c-.3-1.16.31-1.26,1-.73a9.1,9.1,0,0,1,2.69,3c-.59.49-2-.43-1.91,1.22,0,.66-.8.37-1.15.07a26.83,26.83,0,0,1-2.18-2.09c-.3-.32-1-.64-.54-1.18.56-.72,1,.08,1.47.32a2.58,2.58,0,0,0,.48.59c.49.29.88,1.41,1.56.54.47-.61-.43-1-.78-1.37A2.42,2.42,0,0,0,659.52,459.09Z"/><path class="cls-2" d="M676.59,487.61a4.46,4.46,0,0,1,1.12,2.29c.13.38,0,1.08-.5.91-1.07-.39-.84-1.64-1.24-2.49C675.84,488,676,487.64,676.59,487.61Z"/><path class="cls-2" d="M373,167c1-.08,1.06.37,1.23.91,1.13,3.68,3.57,6.49,6.14,9.18,1.23,1.28,1.83,1.91-.08,3.41-3.08,2.44-4.72,6.1-6.07,9.81-.19.53,0,1.21-.88,1.3s-1.2-.69-1.3-1.27c-.81-4.48-3.46-7.61-7-10.14-.77-.55-1-1.29-.12-1.85,3.62-2.33,5.07-6.19,6.91-9.8C372.16,168,372.37,167.1,373,167Z"/><path class="cls-6" d="M474.83,67.82a4.61,4.61,0,0,1,4.87,4.92c0,3-1.89,5-4.82,5-2.57,0-5.16-2.45-5.13-4.9A5.49,5.49,0,0,1,474.83,67.82Z"/><path class="cls-2" d="M229,106.16a7,7,0,0,1-.66.9,32.21,32.21,0,0,0-6.05,9.61c-.24.58-.33,1.51-1.17,1.38a2.07,2.07,0,0,1-1.66-1.36A31.83,31.83,0,0,0,213.18,106c-.49-.53-.52-1,.15-1.45,3.36-2.38,5.1-5.92,6.65-9.62.3-.72.46-1.91,1.47-1.82s.91,1.23,1.18,2a33.89,33.89,0,0,0,5.37,9.45C228.36,105,229,105.31,229,106.16Z"/><path class="cls-2" d="M270.87,245.46l-3.94,3.43c-.26.22-.57.44-.87.17s-.22-.77.09-1.1a12.37,12.37,0,0,1,4-3.26Z"/><path class="cls-2" d="M273.2,245.64c-.88,2.42-2.4,3.29-4,5C269.55,247.84,271,247,273.2,245.64Z"/><path class="cls-2" d="M406.94,239.16c-.36.81-1.25,1-1.91,1.4-.4.26-.94.05-.8-.5.25-.94,1.17-1.15,1.95-1.44C406.48,238.51,406.84,238.65,406.94,239.16Z"/><path class="cls-2" d="M314.2,323.49A33.27,33.27,0,0,1,334.88,292c4.79-2,9.67-3.44,14.83-3,14.58,1.36,29,11.28,32,28.58,2.94,16.85-8.53,34.9-26.09,38.09-18,3.26-35.14-4.94-40.53-24.35A23.13,23.13,0,0,1,314.2,323.49ZM348,354.21c2.66-.22,5.3.11,8-.48,22.12-4.82,31.55-30.87,18.63-49.19-8.41-11.94-22.5-15.85-36.76-11.85-16.55,4.63-25.71,22.69-21,39.42C320.27,343.75,332.77,355.53,348,354.21Z"/><path class="cls-2" d="M483.7,409.81c-1.22,1.1-2.68.65-3.79,1.27-.21.12-.66-.08-.74-.5s.27-.52.57-.65A4.52,4.52,0,0,1,483.7,409.81Z"/><path class="cls-2" d="M480.89,411.68c.46.15,1.39-.29,1.37.53,0,1.18-1.12.62-1.75.68-.47,0-1.4.35-1.3-.55S480.21,411.68,480.89,411.68Z"/><path class="cls-2" d="M534.88,403.08c1-.68,1.58-2.12,3.36-1.6A3.32,3.32,0,0,1,534.88,403.08Z"/><path class="cls-2" d="M537.28,404.69c1.24-1.23,1.91-2.09,3.38-1.54C540,404.34,539,404.41,537.28,404.69Z"/><path class="cls-2" d="M450,374.17c-.29-.63.09-.62.52-.56C450.71,374.19,450.54,374.38,450,374.17Z"/><path class="cls-2" d="M653.37,102.84a21.84,21.84,0,0,0-3.53-6.24c-.52-.66-.63-1.06.08-1.63,1.74-1.39,2.73-3.39,4-5.35.9,2.28,1.56,4.56,3.25,6.24a.77.77,0,0,1,0,1.28C655.54,98.64,654.65,100.67,653.37,102.84Z"/><path class="cls-2" d="M581.81,36.05a2.27,2.27,0,0,1,2,2.45,2,2,0,0,1-2,2.16,2.19,2.19,0,0,1-2.17-2.57A2,2,0,0,1,581.81,36.05Z"/><path class="cls-5" d="M659.52,459.09a2.42,2.42,0,0,1,.65.38c.35.41,1.25.76.78,1.37-.68.87-1.07-.25-1.56-.54a2.58,2.58,0,0,1-.48-.59Z"/><path class="cls-6" d="M348,354.21c-15.27,1.32-27.77-10.46-31.08-22.1-4.76-16.73,4.4-34.79,21-39.42,14.26-4,28.35-.09,36.76,11.85,12.92,18.32,3.49,44.37-18.63,49.19C353.34,354.32,350.7,354,348,354.21Zm0-44.58c6,0,10.68,4,12.61,10.44.41,1.37-.83,3.65.94,3.92,1.18.18,2.57-1.7,4-2.35,2.57-1.18,2.77-3.3,2.14-5.52-3-10.61-10.94-15.65-20.75-15.2-7.82.36-14.07,4.29-17.38,12.08-2.5,5.88-2.43,6.35,2.82,9.74.28.19.55.39.82.6,1.71,1.35,2.25.9,2.3-1.27A12.88,12.88,0,0,1,348,309.63Zm.28,2.15a11.08,11.08,0,0,0-11.46,11A11.21,11.21,0,0,0,359.2,324C359.74,317.32,354.63,311.52,348.29,311.78Zm-1.2,25.4c7.08,0,13.13-4.28,15.12-9.81.27-.75.74-1.47-.38-1.85s-1.44.11-1.62,1.23c-.49,3.15-2.4,5.32-4.95,7-7.54,5-17.46.53-19.17-6.35-.23-1-.33-2.39-1.74-1.78-1.11.48-.44,1.58,0,2.42C337.15,333.93,341.92,336.78,347.09,337.18Z"/><path class="cls-2" d="M348,309.63a12.88,12.88,0,0,0-12.5,12.44c-.05,2.17-.59,2.62-2.3,1.27-.27-.21-.54-.41-.82-.6-5.25-3.39-5.32-3.86-2.82-9.74,3.31-7.79,9.56-11.72,17.38-12.08,9.81-.45,17.74,4.59,20.75,15.2.63,2.22.43,4.34-2.14,5.52-1.43.65-2.82,2.53-4,2.35-1.77-.27-.53-2.55-.94-3.92C358.69,313.64,354,309.61,348,309.63Z"/><path class="cls-3" d="M348.29,311.78c6.34-.26,11.45,5.54,10.91,12.17a11.21,11.21,0,0,1-22.37-1.18A11.08,11.08,0,0,1,348.29,311.78Z"/><path class="cls-2" d="M347.09,337.18c-5.17-.4-9.94-3.25-12.78-9.13-.4-.84-1.07-1.94,0-2.42,1.41-.61,1.51.83,1.74,1.78,1.71,6.88,11.63,11.36,19.17,6.35,2.55-1.69,4.46-3.86,4.95-7,.18-1.12.56-1.57,1.62-1.23s.65,1.1.38,1.85C360.22,332.9,354.17,337.16,347.09,337.18Z"/></g></g></svg>