<svg xmlns="http://www.w3.org/2000/svg" viewBox="0 0 61.47 73.8"><defs><style>.cls-1{fill:#feac33;}</style></defs><g id="Calque_2" data-name="Calque 2"><g id="Calque_1-2" data-name="Calque 1"><path class="cls-1" d="M47.71,0a.23.23,0,0,0,.08.11c1.44.8,1.73,1.73,1,3.21Q44.49,11.68,40.18,20L35.07,30c-.11.21-.21.43-.36.73.31,0,.56,0,.82,0H59.08a2.3,2.3,0,0,1,1.8.65,2,2,0,0,1-.22,3c-2,1.74-4,3.45-6,5.18l-23.2,20Q23.78,66.3,16.06,73a2.4,2.4,0,0,1-2.18.76,2.06,2.06,0,0,1-1.28-3.08c1.59-3.13,3.2-6.24,4.8-9.36l9.12-17.76c.07-.12.12-.26.22-.46-.31,0-.56,0-.81,0-7.71,0-15.41,0-23.12,0A2.72,2.72,0,0,1,0,41.59V40.41a6.69,6.69,0,0,1,1.05-1.27q5.58-4.78,11.13-9.61Q26.48,17.19,40.79,4.82C42.68,3.19,44.48,1.45,46.54,0Z"/></g></g></svg>