<?xml version="1.0" encoding="utf-8"?>
<!-- Generator: Adobe Illustrator 25.3.1, SVG Export Plug-In . SVG Version: 6.00 Build 0)  -->
<svg version="1.1" id="Calque_1" xmlns="http://www.w3.org/2000/svg" xmlns:xlink="http://www.w3.org/1999/xlink" x="0px" y="0px"
	 viewBox="0 0 1366 768" style="enable-background:new 0 0 1366 768;" xml:space="preserve">
<style type="text/css">
	.st0{fill:#FCFCFC;}
	.st1{fill:#080707;}
	.st2{fill:#010101;}
	.st3{fill:#C3C3C3;}
	.st4{fill:#FAFAFA;}
	.st5{fill:#F89B3A;}
	.st6{fill:none;stroke:#000000;stroke-width:8;stroke-miterlimit:10;}
	.st7{fill-rule:evenodd;clip-rule:evenodd;fill:#FFFFFF;}
	.st8{fill:#FFFFFF;}
	.st9{fill:#1D1D1B;}
	.st10{font-family:'HelveticaNeue-CondensedBold';}
	.st11{font-size:24.9847px;}
	.st12{fill-rule:evenodd;clip-rule:evenodd;}
	.st13{fill:#FEAC33;}
	.st14{opacity:0.19;fill-rule:evenodd;clip-rule:evenodd;fill:#C4C4C4;}
	.st15{opacity:0.2;fill:#1D1D1B;}
</style>
<g>
	<path class="st0" d="M675.1,402c0-34.1,0-68.2,0-102.2c0.6,0.1,1.2,0.2,1.7,0.4c8.8,3.4,17.5,6.8,26.3,10.2
		c48.7,18.9,97.5,37.8,146.2,56.7c45.9,17.8,91.7,35.5,137.6,53.3c38.7,15,77.5,30.1,116.2,45.1c13.4,5.2,26.9,10.5,40.3,15.8
		c2.9,1.1,2.9,1.1,0.4,3.2c-2.7,2.4-5.3,5-8,7.4c-2.1,1.8-2.6,3.6-1,5.9c0.3,0.4,0.5,0.9,0.7,1.4c1,1.8,0.8,3-1.5,3.4
		c-2,0.4-4.1,0.8-4.6,3.2c-0.6,2.5-0.9,5-1.3,7.5c-1,6.5-2.1,13.1-3.1,19.6c-0.8,5.2-1.7,10.4-2.6,15.6c-0.2,1.1-0.3,2.1,1,2.9
		c3.2,1.9,6.2,4.1,9.3,6.1c1,0.7,2.1,1.5,3.4,1.3c3.9-0.6,7.9-0.3,11.8-0.6c1.3-0.1,3.2,0.3,3.9-1.9c3.3-10.4,7.2-20.6,11.4-30.7
		c0.5-1.2,1.2-2.4,0.3-3.9c-0.5-0.8-0.1-1.1,0.9-1.1c1.2,0.1,2.4,0.5,3.5-0.7c2.5-2.7,5-5.3,7.6-7.8c0.3-0.3,0.3-1.5,1.2-0.9
		c0.8,0.6,0,1.2-0.3,1.7c-1.6,2.6-3.2,5.2-4.8,7.8c-3.2,5.2-3.2,5.3,0.4,10.3c0.6,0.8,1.1,1.5,0.6,2.7c-0.5,1.3-1.3,1.1-2.2,1.1
		c-1.7,0.1-3,0.5-3.5,2.5c-4.1,16.8-8.1,33.7-12.3,50.5c-0.5,1.8,0,2.7,1.5,3.4c4.9,2.2,9.8,4.3,14.6,6.6c1,0.4,1.6,0,2.3-0.3
		c5.1-2,10.2-4.1,15.7-5.6c-0.9,6.2-1.5,12.2-2.7,18.1c-0.5,2.5,0.2,3.7,2.1,4.7c3.4,1.8,7,3.3,10.2,5.3c3.7,2.3,7,2.7,10.3-0.5
		c0.1-0.1,0.3,0,0.5,0c0.2,1.2,0,2.3-0.3,3.5c-1.4,5.9-1,6.7,4,8.5c6.2,2.2,12.5,4.1,19.3,2.7c2.6-0.6,4-1.4,5.1-3.9
		c3.9-9.1,8.1-18.1,12.2-27.1c0.9-2,1.9-3.8,0.4-5.9c-0.4-0.6-0.5-1.5,0.1-2.2c0.5-0.6,1.2-0.3,1.9,0c1.4,0.8,2.1-0.2,2.8-1.2
		c2.5-3.6,4.9-7.3,7.6-10.8c1.1-1.5,2.2-2.7,1.9-4.7c-0.1-1,0.3-2.3,1.6-1.9c1.9,0.6,3.2-0.4,4.6-1.3c11.5-7.9,23.3-15.3,35.6-21.9
		c0.6-0.3,0.8-0.6,0.7-1.1c-0.3-2,0.9-2,2.2-1.9c0.9,0,1.8-0.1,2.7-0.3c2.3-0.4,4.6-0.5,6.9,0.4c13.5,5.3,27,10.6,40.6,15.8
		c1.9,0.7,2.3,1.7,2.3,3.6c-0.1,17,0,34.1,0,51.1c-0.1,42.3-0.3,84.6-0.5,126.9c0,3,0,3-2.6,1.7c-35.7-18.1-71.4-36.2-107.1-54.4
		c-44.3-22.6-88.6-45.2-133-67.7c-41.7-21.2-83.4-42.4-125.1-63.6c-31.7-16.1-63.3-32.3-95-48.4c-41.3-21-82.5-42-123.8-63
		c-29.5-15-58.9-30-88.4-44.9C682.3,405.2,679,402.9,675.1,402z"/>
	<path class="st0" d="M675.1,461.6c0-19.4,0-38.7,0-58.1c7.4,3.7,14.9,7.3,22.3,11.1c57.8,29.5,115.6,59,173.4,88.5
		c58.3,29.7,116.7,59.4,175,89.1c53.7,27.3,107.3,54.7,160.9,82.1c50.9,26,101.7,52,152.6,77.9c1.3,0.7,1.5,1.4,1.5,2.5
		c0,3.2,0.1,6.3,0.1,9.5c-60.7,0-121.4,0-182.1,0c0-1.2-1-1.2-1.7-1.6c-2.5-1.4-5.2-2.4-7.6-4c-5-3.2-10.2-6.2-15.3-9.3
		c-10.6-6.3-21.3-12.6-31.9-19c-12.4-7.4-24.8-15-37.2-22.4c-12.2-7.3-24.4-14.6-36.6-21.9c-10.4-6.2-20.8-12.6-31.2-18.8
		c-10.7-6.4-21.5-12.7-32.1-19.1c-12.1-7.2-24.1-14.6-36.1-21.8c-15-9-30.1-18-45.1-27c-15.2-9.1-30.4-18.4-45.7-27.5
		c-10.4-6.2-20.9-12.4-31.3-18.6c-14.6-8.7-29.1-17.5-43.7-26.3c-11.9-7.2-23.8-14.3-35.7-21.5c-9.2-5.5-18.5-11-27.8-16.6
		c-10.7-6.4-21.3-12.9-32-19.3C683.4,467.2,679,464.8,675.1,461.6z"/>
	<path class="st1" d="M1360.9,764.2c0-3.2-0.1-6.3-0.1-9.5c0-1.2-0.2-1.9-1.5-2.5c-50.9-25.9-101.8-51.9-152.6-77.9
		c-53.6-27.4-107.3-54.8-160.9-82.1c-58.3-29.7-116.7-59.4-175-89.1c-57.8-29.5-115.6-59-173.4-88.5c-7.4-3.8-14.9-7.4-22.3-11.1
		c0-0.5,0-1,0-1.5c3.9,0.9,7.3,3.2,10.8,5c29.5,14.9,58.9,29.9,88.4,44.9c41.3,21,82.5,42,123.8,63c31.7,16.1,63.3,32.3,95,48.4
		c41.7,21.2,83.4,42.4,125.1,63.6c44.3,22.6,88.6,45.2,133,67.7c35.7,18.2,71.4,36.3,107.1,54.4c2.6,1.3,2.6,1.3,2.6-1.7
		c0.2-42.3,0.3-84.6,0.5-126.9c0.1-17,0-34.1,0-51.1c0-1.9-0.4-2.9-2.3-3.6c-13.6-5.2-27.1-10.5-40.6-15.8c-2.3-0.9-4.6-0.9-6.9-0.4
		c-0.9,0.2-1.8,0.4-2.7,0.3c-1.4-0.1-2.6-0.1-2.2,1.9c0.1,0.5-0.2,0.8-0.7,1.1c-12.3,6.5-24.1,14-35.6,21.9
		c-1.4,0.9-2.7,1.9-4.6,1.3c-1.3-0.4-1.7,0.9-1.6,1.9c0.3,2-0.8,3.3-1.9,4.7c-2.7,3.5-5.1,7.2-7.6,10.8c-0.7,1-1.4,2-2.8,1.2
		c-0.6-0.3-1.3-0.6-1.9,0c-0.6,0.6-0.5,1.6-0.1,2.2c1.6,2.1,0.5,4-0.4,5.9c-4.1,9-8.3,18-12.2,27.1c-1.1,2.5-2.5,3.3-5.1,3.9
		c-6.9,1.5-13.1-0.4-19.3-2.7c-4.9-1.8-5.3-2.6-4-8.5c0.3-1.2,0.5-2.3,0.3-3.5c-0.2,0-0.4-0.1-0.5,0c-3.3,3.2-6.6,2.8-10.3,0.5
		c-3.3-2-6.8-3.6-10.2-5.3c-1.9-1-2.6-2.2-2.1-4.7c1.2-5.9,1.8-11.9,2.7-18.1c-5.5,1.6-10.6,3.6-15.7,5.6c-0.7,0.3-1.4,0.7-2.3,0.3
		c-4.8-2.3-9.7-4.4-14.6-6.6c-1.5-0.7-1.9-1.5-1.5-3.4c4.2-16.8,8.2-33.6,12.3-50.5c0.5-2,1.8-2.4,3.5-2.5c0.9,0,1.7,0.2,2.2-1.1
		c0.5-1.2,0-1.8-0.6-2.7c-3.7-5-3.7-5-0.4-10.3c1.6-2.6,3.2-5.2,4.8-7.8c0.3-0.5,1.2-1.1,0.3-1.7c-0.8-0.6-0.8,0.6-1.2,0.9
		c-2.6,2.6-5.2,5.1-7.6,7.8c-1.1,1.2-2.3,0.8-3.5,0.7c-1-0.1-1.4,0.3-0.9,1.1c0.9,1.4,0.2,2.7-0.3,3.9c-4.1,10.1-8.1,20.2-11.4,30.7
		c-0.7,2.2-2.6,1.8-3.9,1.9c-3.9,0.3-7.9,0-11.8,0.6c-1.4,0.2-2.4-0.7-3.4-1.3c-3.1-2-6.1-4.2-9.3-6.1c-1.3-0.8-1.1-1.8-1-2.9
		c0.8-5.2,1.7-10.4,2.6-15.6c1.1-6.5,2.1-13.1,3.1-19.6c0.4-2.5,0.7-5.1,1.3-7.5c0.6-2.3,2.7-2.8,4.6-3.2c2.2-0.4,2.4-1.6,1.5-3.4
		c-0.2-0.4-0.4-0.9-0.7-1.4c-1.6-2.3-1.1-4.1,1-5.9c2.8-2.3,5.3-5,8-7.4c2.4-2.1,2.5-2.1-0.4-3.2c-13.4-5.3-26.8-10.5-40.3-15.8
		c-38.7-15.1-77.4-30.1-116.2-45.1c-45.9-17.8-91.7-35.5-137.6-53.3c-48.7-18.9-97.5-37.8-146.2-56.7c-8.8-3.4-17.5-6.8-26.3-10.2
		c-0.5-0.2-1.1-0.3-1.7-0.4c0-0.7,0-1.4,0-2.1c0.4,0.1,0.8,0.1,1.2,0.3c7.6,3,15.3,5.9,22.9,8.9c52.2,20.2,104.5,40.4,156.6,60.9
		c3.7,1.4,5.8,0.8,8.5-1.7c8.1-7.5,15.9-15.2,24.4-22.2c1.6-1.3,1.4-1.8-0.3-2.7c-7.6-3.6-15.1-7.2-22.7-10.8
		c-28.4-13.8-56.8-27.6-85.2-41.3c-28.4-13.8-56.9-27.5-85.3-41.3c-3.8-1.9-7.8-3.2-11.4-5.7c-2.5-1.8-5.4-3.5-8.7-3.9
		c0-0.7,0-1.4,0-2.1c0.1,0,0.2-0.1,0.2,0c16.3,7.9,32.7,15.9,49,23.8c55.1,26.8,110.2,53.5,165.3,80.4c1.7,0.8,2.7,0.6,3.9-0.6
		c4.4-4.3,8.8-8.4,13.6-12.2c8.9-7.1,18.2-13.6,28.4-18.8c0.8-0.4,1.8-0.6,0.7-1.9c-5.3-6.6-10.4-13.3-15.6-20
		c-7.5-9.7-15.1-19.4-22.6-29.1c-7.6-9.8-15.1-19.6-22.7-29.3c-8.5-11-17.1-21.9-25.6-32.9c-8.6-11-17.2-22-25.7-33.1
		c-1-1.3-1.8-1.4-3.3-0.9c-16.2,5.5-32.8,9.1-50.1,8.4c-10.3-0.4-20.6-1.8-30.8-4c-14.6-3.2-28.8-7.8-42.2-14.4
		c-7.9-3.9-15.2-8.8-22.4-13.9c0-0.7,0-1.4,0-2.1c0.7,0.6,1.4,1.2,2.2,1.7c14.9,11.3,31.7,18.7,49.4,23.8c11.8,3.3,23.8,5.7,36,6.6
		c10.2,0.7,20.3,0.8,30.3-0.8c11.3-1.8,22.3-4.7,33-9c8.8-3.6,17.4-7.8,25.6-12.8c14.4-8.7,27-19.6,38.3-32.1
		c1.4-1.6,2.9-3.1,4.4-4.6c0.5-0.5,0.8-0.9,1.9-0.3c5.4,3,11.2,4.7,17.4,4.9c11.2,0.3,21.2-3.2,30.3-9.5c6.1-4.2,11.2-9.4,14.4-16.3
		c0.3-0.6-0.2-1.7,1.1-1.7c0.7,3.2,2.8,5.5,4.9,7.6c12.3,12.6,27.7,16.3,44.4,14.4c9.3-1.1,17.8-4.7,25.3-10.5c0,0.4,0,0.8,0.1,1.2
		c-2.5,2.4-5.6,4.1-8.7,5.4c-1.4,0.6-1.8,1.4-1.8,2.9c0.1,9.6,0.1,19.2,0.1,28.8c0.2,49.8,0.8,99.7,0.5,149.5c0,1.8,0.2,2.5,2.3,2.5
		c12.3,0.1,24.5,1.1,36.4,3.7c15,3.2,29.4,8.3,43.1,15.4c1.6,0.8,2.5,0.6,3.5-0.7c4.3-5.6,8.6-11.1,12.9-16.7
		c11.2-14.5,22.4-29.1,33.7-43.6c13.7-17.7,27.4-35.3,41.1-53c13.4-17.2,26.7-34.4,40.1-51.5c0.5-0.6,1.3-1.3,0.5-2.2
		c0.9,0,1.2,1.1,1.9,1.3c-0.8,1-1.6,2-2.4,3c-7.6,9.8-15.2,19.6-22.8,29.3c-8.5,10.9-17,21.8-25.5,32.7c-7.7,9.9-15.4,19.8-23,29.7
		c-6.1,7.9-12.3,15.8-18.4,23.6c-6.2,8-12.3,16-18.5,23.9c-6.1,7.9-12.3,15.8-18.4,23.6c-0.9,1.2-1.6,2.1,0.5,3.2
		c15.3,7.8,28.7,18.3,41,30.3c1.8,1.8,3.2,1.9,5.4,0.8c30.2-14.8,60.4-29.4,90.7-44.1c31.3-15.2,62.6-30.4,93.9-45.6
		c6-2.9,11.9-6.2,18.2-8.7c0,0.3,0.1,0.6,0.1,0.9c-0.7,1.2-2,1.6-3.1,2.1c-23.7,11.5-47.5,22.9-71.2,34.3
		c-21.5,10.4-43,20.9-64.5,31.3c-21.1,10.2-42.3,20.4-63.4,30.7c-2.6,1.3-2.6,1.3-0.4,3.2c7.5,6.3,14.3,13.2,21.6,19.7
		c10,8.9,20.7,16.8,31.5,24.6c0.5,0.4,1,1.1,1.8,0.7c1.4-0.8,2.9-0.4,4.4-0.4c0.1,0.3,0,0.9,0.6,0.7c0.5-0.1,0.9-0.4,0.6-1
		c2.8-0.2,5.7-0.6,8.5-0.7c8.2-0.2,16.2-1.9,24.4-2.1c6.1-0.2,12.1-1,18.2-1.6c5.2-0.5,10.5-0.9,15.7-1.4c5.8-0.5,11.6-1,17.5-1.6
		c6.1-0.6,12.3-0.8,18.4-1.7c1.6,1,3.2,1.3,4.6-0.2c0.9-0.2,1.8-0.3,2.7-0.5c1.5,1.6,2.9,0.8,4.3-0.1c7.4-0.7,14.8-1.4,22.1-2
		c0.2,0.4,0.3,0.8,0.5,1.2c-5.7,0.6-11.5,1.2-17.2,1.6c-5.6,0.5-11.2,0.8-16.8,1.3c-5.8,0.5-11.6,1.1-17.5,1.6
		c-5.5,0.5-11,0.9-16.5,1.4c-5.9,0.5-11.8,1.1-17.7,1.6c-5.3,0.4-10.5,0.7-15.8,1.3c-8.7,0.9-17.3,1.5-26,2.3
		c-4.4,0.4-9,0.2-13.7,1.5c2.2,2,4.7,3.4,7.2,4.3c4.2,1.5,5.3,4.9,6.3,8.6c0.2,0.7,0.3,1.3,0.5,2c1.1,4,1,7.7-2.4,10.7
		c-0.5,0.4-0.5,0.9-0.4,1.4c0.5,2.3-0.4,3-2.6,3.6c-13.8,3.6-26.9,9-39.7,15.3c-17.7,8.7-34.4,19.4-51.8,28.9
		c-3.2,1.7-6.2,3.6-9.7,5.6c8.8,3.5,17.1,6.7,25.5,10c0.8,0.3,1.5,0,2.1-0.5c2.6-2.2,5.1-4.4,7.7-6.6c4-3.4,8-6.7,12.3-9.7
		c0.8-0.6,1.8-1.7,2.9-0.6c2.2,2.2,2.1,0.3,2.2-1.2c0.1-1.6-0.1-3.4,2.1-3.4c2,0,4-0.5,6-0.6c9.2-0.7,18.4-1.1,27.6-2
		c2.9-0.3,5.9-0.3,8.8-0.6c6.7-0.6,13.3-1.1,20-1.6c0.6,0,1.5-0.3,1.7,0.6c0.5,2,1.4,1.1,2.3,0.5c4.8-3.6,9.6-7.1,14.4-10.7
		c2.4-1.8,5.6-2.2,7.5-0.7c5.5,4.2,11,8.4,16.4,12.6c13.8,10.6,27.6,21.1,41.3,31.7c6.6,5.1,13.1,10.3,19.7,15.4
		c-0.5,0.1-1,0.2-1.2,0.7c-2.7-2-5.4-4.1-8-6.1c-21.3-16.4-42.6-32.8-63.9-49.2c-0.3,0-0.6-0.1-0.9-0.1c0.1,0.1,0.1,0.3,0.2,0.4
		c0.4,0.3,0.7,0.2,0.7-0.4c-1.2,0.7-0.1,1.3,0.2,1.8c11.1,14.7,22.2,29.3,33.2,43.9c8.7,11.6,17.6,23,26.1,34.7
		c4.1,5.6,9.5,8.6,15.7,10.5c4.2,1.3,8.5,2.4,12.8,3.3c2,0.4,3.9,2.1,6.2,1.2c0,0.7,0,1.4,0,2.1c-0.3,0-0.7,0.1-1,0
		c-9.9-2.6-19.8-5.2-29.6-7.9c-1.1-0.3-2.1-0.6-3.1,0.2c-3.7,3.2-7.4,6.3-11.2,9.5c0.8,0.8,1.6,1,2.4,1.3c8.2,3.3,16.4,6.5,24.7,9.8
		c3.6,1.4,3.6,1.4,3.2-2.1c0-0.1,0.1-0.1,0.2-0.3c1,0.5,1.1,1.5,1.4,2.5c0.2,0.8,0.5,2,1,2.2c4,1.3,7.6,4.1,12.1,3.9
		c0,65.8,0,131.5,0,197.3C1363,763.9,1362.7,764.6,1360.9,764.2z M1125.5,442.7c-0.5-1.1,0.7-1.7,1-3.1c-2.3,0.8-3.9,2.1-6.2,3.6
		c2.1,0,3.5,0,4.8,0c-0.8,1.2-2.6,1.9-4.1,1.1c-1.4-0.8-2.3-0.2-3.3,0.5c-0.8,0.5-1.6,0.9-2.4,1.4c-7.8,4.7-16,8.8-24.5,12.6
		c3.1,1.2,6,2.3,8.8,3.5c1.3,0.5,2.4,0.4,3.6-0.2c14.4-7,27.9-15.5,41.3-24.3c11.3-7.4,22.7-14.5,34.7-20.7
		c6.9-3.5,14.2-5.9,21.8-7.6c-0.9-1.1-2-1-2.9-0.8c-4.6,1.3-9.3,2.4-13.8,4.3c-1.8,0.8-3.6,0.9-5.6,0.6c-7-1-13.7,0-19.7,3.9
		c-8.4,5.5-16.6,11.3-24.9,16.8c-2.4,1.6-4.5,3.4-6,6C1127.3,441.3,1126.7,442.5,1125.5,442.7z M1230.7,472.9
		c-0.6,0.8-1.6,1.3-1.7,2.6c1.4-0.3,2.6-0.5,3.8-0.7c0.3-0.7-1.5-0.5-0.5-1.4c4.1,1.8,7.9-0.6,11.9-1c-1.5-5.4-3-10.6-4.5-15.8
		c-0.3-0.9-0.7-1.3-1.8-1.3c-4.9,0.3-9.9,0.5-14.8,0.8c-1,0.1-2.6,0.2-3,0.8c-0.5,1,0.8,1.8,1.5,2.7c0.1,0.1-0.1,0.3-0.2,0.7
		c-2.7-1-5.5-0.5-8.3-1.1c-2.5-0.6-4.9-1.7-7.5-1.6c-4.1,0.2-8.2,0.5-12.3,0.8c-5.1,0.4-10.3,0.8-15.6,1.2c0.2,1,0.7,1.6,1.2,2.1
		c4.1,4.8,8.1,9.6,12.1,14.4c0.9,1.1,1.7,1.6,3.1,1.6c8.8,0.2,17.6-0.8,26.4-0.8c2.8,0,6.2-0.1,8-3.4
		C1229.1,472.6,1230,473,1230.7,472.9z M1022,196.2c0.1,0,0.1,0,0.2,0c0-27.1,0-54.3,0-81.4c0-2.7,0-5.3,0.1-8
		c0-1.4-0.3-1.8-1.7-1.2c-9.9,3.6-20,4.6-30.3,2.5c-11.9-2.4-22.4-7.3-29.8-17.6c-1-1.4-1.5-1.3-2.4,0.1
		c-10.6,15.3-25.1,23.3-43.6,23.5c-6.3,0-12.5-0.8-18-4.5c-1.2-0.8-1.7,0-2.3,0.7c-5.2,6.7-11.4,12.3-17.6,17.9
		c-14.3,13-30.6,22.8-48.3,30.2c-4,1.7-4.1,1.7-1.4,5.2c8.9,11.6,17.8,23.1,26.7,34.6c8.4,10.8,16.8,21.5,25.2,32.3
		c9.9,12.7,19.7,25.5,29.6,38.2c9.2,11.9,18.5,23.8,27.7,35.8c1.5,2,2.7,2.5,5.1,1.2c12-6.4,24.7-10.8,37.8-14
		c13.2-3.3,26.7-4.5,40.4-4.7c2.3,0,2.9-0.6,2.9-3C1021.9,254.8,1022,225.5,1022,196.2z M1138,352.1c3.4,0.5,6.7-0.2,10-0.6
		c3.3-0.4,6.6-1.1,9.5-2.9c1.2-0.7,1.4-1.3,0.3-2.2c-1.2-0.9-2.3-2-3.4-3c-10.6-9.9-21.4-19.5-33.7-27.1c-1-0.6-1.9-1.2-3.2-0.7
		c-1.3,0.5-2.6,0.4-2.8-1.6c-0.1-1.1-0.8-1.9-1.9-2.4c-5.8-2.9-11.5-6-17.4-8.5c-16.6-6.9-33.9-11.5-51.8-13.1
		c-8.5-0.8-17.1-0.7-25.7-0.6c-14.1,0.1-28.1,1.7-41.7,5.3c-23.9,6.3-45.8,16.9-65.5,32.2c-6.7,5.3-12.7,11.4-19.2,17
		c-1.3,1.2-3.9,2.5-3.5,3.6c0.6,1.9,3.2,2.3,5.2,2.9c0.1,0,0.2,0,0.3,0c6.5,1.8,13.1,2.1,19.7,1.6c2.8-0.2,6.1,0.1,8.4-2.6
		c1.1-1.3,2.6-2.1,3.9-3.2c3.6-3.3,8-5.6,9.9-10.8c0.8-2.3,3.6-4.3,7-3.3c1.4,0.4,2.8,0.1,4.3-0.8c9.3-6,19.4-10.7,29.7-14.6
		c10.7-4.1,21.8-6.8,33.1-8.5c4.9-0.7,9.8-1.5,14.7-1.4c8.9,0.3,17.6,1.9,26.2,3.9c17.5,4.1,34,10.8,49.4,20.4
		c1.5,0.9,2.9,1.3,4.5,1.1c4.1-0.6,5.2,0.4,7.2,3.7c1.1,2,2,4.1,3.8,5.6c3.8,3.1,7.6,6.2,11.4,9.3c0.5,0.4,1.1,0.8,1.8,0.8
		C1131.5,351.6,1134.7,352.7,1138,352.1z M885.6,379.2c2.5,0.9,4.6,1.6,6.5,2.5c1,0.5,1.7,0.3,2.5-0.3c7-5.1,14.2-10,21.2-15.2
		c13.7-10.2,27.2-20.7,42.4-28.7c16.3-8.6,33.3-14.3,51.7-15.8c11.5-0.9,23-0.6,34.4,1c9.6,1.3,19,3.7,28,7.5
		c18.1,7.5,34.5,17.9,50.1,29.9c14.7,11.3,29.5,22.4,45.8,31.5c17.6,9.8,35.6,18.5,55.6,22.3c1.4,0.3,4.2-2.6,4-4
		c-0.1-0.6-0.4-0.7-0.9-0.7c-4.6-0.2-8.6-2.5-12.8-4c-14.3-4.9-27.7-12-41.2-18.8c-7-3.6-13.7-7.9-20.2-12.4
		c-11.9-8.3-22.5-18.4-33.9-27.4c-12.4-9.8-25.5-18.3-40.1-24.4c-14-5.8-28.4-9.4-43.5-10.7c-13.3-1.1-26.5-0.6-39.5,2.1
		c-13.6,2.8-26.8,7.2-39.3,13.7c-15.3,8-28.7,18.8-42,29.8c-7.2,6-14.1,12.4-21.9,17.6C890.3,376.1,888.2,377.5,885.6,379.2z
		 M1023.2,332.7c-3.7,0-7.3,0.1-10.8,0.8c-16.8,3.5-30.3,12.3-40.1,26.8c-1.7,2.6-1.9,4.8-0.5,7.3c0.5,1,1.1,1.9,1.6,2.9
		c2.7,4.3,6.8,7,11.1,9.4c1.4,0.8,2.6,1.6,2.2,3.7c-2.2,11.8,0.5,22.7,7.9,31.9c6.9,8.6,16.8,11.4,27.2,12.3
		c5.9,0.5,11.6-1.2,17-3.4c4.9-2,9.6-4.5,12.7-8.8c6.4-8.9,10-18.7,7.9-29.9c-0.5-2.8-0.1-4.9,2.9-6.3c5.1-2.5,9.2-6.2,11.9-11.4
		c1.4-2.7,1.4-5.1-0.5-7.8C1061.3,342.4,1044.6,333.1,1023.2,332.7z M1084,453.8c1.3,0.1,2.3-0.1,3.4-0.5c6.8-2.7,13.5-5.7,19.7-9.7
		c9.1-5.9,18.7-11.1,27.8-17.2c6.3-4.2,12.1-9,18.5-13.3c-3.8-3.6-7.7-7.1-11.3-10.7c-10.4-10.3-21.2-19.8-33.9-27.2
		c-0.7-0.4-1.5-1.4-2.2-0.8c-0.8,0.6-0.3,1.7-0.1,2.6c2.1,11.1,2.6,22.2,0.5,33.5C1103.2,427.2,1096.3,441.8,1084,453.8z
		 M1258.3,557c0.7,0.1,1.3-0.3,1.9-0.6c13.9-8.3,27.6-16.9,41.8-24.8c0.8-0.5,1.6-0.7,0.6-2c-4.5-5.7-8.8-11.6-13.2-17.4
		c-0.9-1.1-1.9-1.2-3.1-0.4c-5.5,3.4-11.1,6.7-16.6,10.1c-8,4.9-16,9.9-23.9,14.9c-1,0.6-1.3,1-0.5,2.3c3.9,5.6,7.6,11.4,11.4,17.1
		C1257,556.7,1257.5,557.2,1258.3,557z M1199.9,483.8c4.1,7.1,8,13.9,11.9,20.9c0.6,1,1.1,1,2.2,0.8c7.7-1.7,15.4-3.4,23.2-4.9
		c7.7-1.5,15.1-3.9,22-7.8c0.6-0.3,1.7-0.2,1-1.7c-2.6-5.2-5.1-10.5-7.6-15.8c-0.9-1.9-2.5-2.5-4.3-2.1c-11.2,2.3-22.6,4.2-33.7,7
		C1209.8,481.4,1205,482.5,1199.9,483.8z M1268,490.3c-7.6,3.7-15.1,7.3-22.7,10.9c-1.6,0.8-3.2,1.4-3.7,3.4
		c-0.3,1.3-1.4,1.6-2.6,1.7c-4.3,0.4-8.3,1.9-12.2,3.9c-1.6,0.8-2.2,1.6-1,3.4c4,6.2,8,12.4,11.8,18.7c1.1,1.9,2.1,2,3.8,1
		c1.9-1.1,3.8-2.2,5.7-3.2c1-0.5,1.7-1.2,2.1-2.4c0.5-1.7,1.3-4,3.8-2.4c1.5,1,2.6,0.4,3.8-0.2c6.5-3.4,13.1-6.8,19.6-10.3
		c1.3-0.7,3.6-0.2,3.8-1.7c0.2-1.2-1.4-2.6-2.1-3.9C1274.8,503,1271.4,496.7,1268,490.3z M1185.5,482.7c-0.4-0.6-0.8-1.3-1.3-2
		c-4.1-5-8.3-9.9-12.2-15c-1.2-1.6-1.9-1.4-3.1-0.4c-2.3,1.9-4.6,3.7-6.9,5.6c-8.9,7.2-17.5,14.8-26.1,22.6c-1,0.9-1.2,1.6-0.1,2.6
		c4.9,4.5,9.8,9.1,14.6,13.7c0.9,0.9,1.5,1.2,2.7,0.2c5.7-4.8,11.5-9.5,17.2-14.2c0.3-0.3,0.8-0.6,0.8-0.9c-0.3-2.9,2.2-2.8,3.7-3.5
		c0.6-0.3,1.4-0.5,2-1c2.7-2.2,5.3-4.4,8-6.6C1185.2,483.5,1185.6,483.4,1185.5,482.7z M1156,588.9c-0.4,1,0.7,1,1.4,1.3
		c4.1,1.7,8.2,3.3,12.2,5.2c1.6,0.8,1.8,0.3,2.3-1.1c5.2-14.7,10.4-29.5,15.7-44.2c0.5-1.5,0.1-2.1-1-2.6
		c-5.6-3.1-11.3-6.2-16.9-9.4c-1.2-0.7-1.6-0.6-2,1c-1.1,5.3-2.6,10.5-3.7,15.8c-1.1,5.6-3.6,11-3.1,16.9c0.2,2.8,0.8,5.7-2.5,7.2
		c-0.2,0.1-0.3,0.4-0.3,0.7C1157.4,582.6,1156.7,585.5,1156,588.9z M1214.4,574c0-0.6-0.1-1.3-1-1.8c-5.4-3-10.8-6.1-16.1-9.3
		c-1.7-1-2.1-0.3-2.4,1.2c-0.3,1.8-0.7,3.7-1,5.5c-1.2,7.1-2.5,14.2-3.6,21.3c-1,6.5-1.9,13.1-2.8,19.6c-0.2,1.3,0,2.1,1.4,2.8
		c3.5,1.6,7,3.3,10.4,5c1.3,0.6,2.6,2,3.8,1.8c1.9-0.3,0.9-2.6,1.2-3.9c2.2-8.8,4-17.6,6.4-26.3c0.6-2.1-2-2.5-1.3-4.3
		c0.6-1.6,2.8-1.2,3.1-3.2C1212.9,579.7,1213.7,577,1214.4,574z M1060,446.7c1.5,0.9,2.5,0.6,3.4-0.3c2.1-2.1,4.4-4,6.5-6.1
		c8.7-9.1,14.3-20.1,17.2-32.4c0.6-2.5,1.4-4.5,4.3-5.2c3.9-0.9,7.1-3.5,9.7-6.5c2.8-3.2,5.5-6.5,3.9-11.4c-0.4-1.3-0.5-2.7-0.7-4
		c-1.7-12.6-6.4-23.9-13.1-34.5c-0.5-0.8-0.9-1.7-1.8-2.1c-0.3-0.1-0.7-0.3-0.9-0.2c-0.5,0.3-0.3,0.7-0.1,1.1c0.3,0.5,0.6,1,1,1.5
		c4.2,6.9,7.8,14.1,10.8,21.6c0.3,0.7,1.1,1.6,0.2,2.3c-0.8,0.6-1.4-0.3-2-0.6c-3.7-1.9-7.4-3.8-11.2-5.6c-3.7-1.7-7.4-3.4-11.8-4.8
		c9.1,14.7,12.2,30.2,9.4,46.7C1081.8,422.9,1073.4,436.4,1060,446.7z M1234.2,539c-0.2-0.3-0.5-0.8-0.8-1.1
		c-5-5.4-9.7-11.1-14.4-16.8c-1.1-1.4-1.7-0.8-2.4,0.3c-6.4,8.8-12,18.2-17.7,27.6c-1.3,2.2-0.8,3.6,0.8,5.1
		c4.1,3.8,8.2,7.5,12.4,11.3c1.1,1,1.9,1.2,2.9-0.3c3.4-4.6,7.1-9.1,10.6-13.7c1.3-1.7,3.2-3.2,3.3-5.3c0.2-2.8,1.3-4.5,3.8-5.4
		C1233.2,540.3,1234.1,540.1,1234.2,539z M1209.7,627.9c-0.2,0.8,0.9,1,1.7,1.3c3.3,1.1,6.6,2.2,9.9,3.4c1.8,0.6,2.6,0,2.9-1.9
		c0.4-2.1,0.7-4.2,1.3-6.2c3.2-11.7,5.9-23.4,10.2-34.8c0.4-1.1,0.5-1.7-0.8-2.4c-5.1-2.7-10.1-5.7-15.1-8.6c-1.5-0.9-2.2-0.7-2.5,1
		c-1.2,7.1-2.4,14.2-3.6,21.3c-0.9,5.8-1.9,11.5-2.7,17.3C1210.8,621.4,1210.2,624.4,1209.7,627.9z M1188.3,538.4
		c0.9,0.1,1.1-0.7,1.4-1.2c2.1-3.2,4.1-6.4,6.1-9.6c0.6-0.9,2-1.8,0.3-3.1c-0.4-0.3,0.3-0.6,0.4-0.9c0.9-2,3.5-1.9,4.4-4
		c1.2-2.7,3-5.1,4.8-7.5c1.3-1.7,1.3-2.7-0.5-4c-4.7-3.4-9.3-7-13.8-10.7c-1.4-1.2-2-1-3.1,0.4c-6.2,8.3-11.8,16.9-17.2,25.8
		c-1.5,2.5-1.5,3.1,0.9,4.6c4.9,3.2,9.9,6.3,14.9,9.5C1187.5,538,1187.9,538.2,1188.3,538.4z M957.9,344.1c-2.9,0.6-3.7,3.2-4.9,5.3
		c-6,9.8-9.7,20.6-11.4,32c-0.5,3.2-1.7,6.4,0,9.8c3.1,6,7.8,10,14,12c1.6,0.5,2.8,1.2,2.9,2.9c0.1,1.7,1.5,2.5,2.5,2.3
		c1.4-0.3,0.6-1.9,0.4-2.8c-1.7-9-1.1-17.8,1.1-26.6c1.7-6.7,4.5-13,8.1-18.9c-0.7-0.2-1.1-0.1-1.6,0.1c-7.3,2.8-14.3,6.2-21.2,9.9
		c-0.7,0.4-1.4,1.4-2.2,0.6c-0.7-0.7,0-1.6,0.3-2.4c1.5-4.1,3.5-7.9,5.4-11.8C953.3,352.2,955.9,348.3,957.9,344.1z M1130.6,505.9
		c-0.9,6.4-1.8,12.4-2.7,18.5c-1.2,8-2.6,16.1-3.8,24.1c-0.2,1,0,1.7,1,2.3c2.8,1.7,5.6,3.4,8.3,5.3c1.3,0.9,1.7,0.4,2.2-0.8
		c4.5-10.8,9-21.5,13.5-32.3c0.3-0.7,0.7-1.3-0.2-2C1142.8,516,1136.8,511,1130.6,505.9z M1239.4,545c-1,0.2-1.3,0.9-1.9,1.5
		c-5.6,6.1-10.4,12.9-15.1,19.7c-1.9,2.7-1.9,3,0.6,5.2c4.2,3.5,8.6,6.9,12.6,10.6c1.7,1.6,2.4,1.1,3.4-0.5c4.6-7,9.3-14,14-20.9
		c1-1.4,0-1.8-0.7-2.4c-4.1-4.1-8.7-7.8-12.3-12.4C1240,545.3,1239.7,545.1,1239.4,545z M1314.1,546.1c1.3,1.3,2.3,0.9,3.3,0.1
		c3.2-2.7,6.5-5.4,9.7-8.1c2.5-2.1,2.7-4.7,0.7-7.4c-6.5-8.7-13.1-17.5-19.6-26.2c-14.8-19.6-29.5-39.2-44.3-58.8
		c-1.8-2.3-3.1-2.7-5.4-0.9c-5.4,4-10.7,8.2-16.1,12.2c-0.5,0.4-1.3,0.8-0.7,1.6c0.6,0.8,1.2-0.1,1.7-0.4c5-3.7,10-7.4,14.9-11.2
		c1.7-1.3,2.7-1,3.8,0.6c1.8,2.6,3.7,5,5.6,7.5c19,25.6,38,51.1,57,76.7c1.3,1.8,0.9,4.8-0.8,6.2
		C1320.6,540.5,1317.4,543.3,1314.1,546.1z M1084.8,456.2c3,1.8,3,1.8,5.1,0.9c13.1-5.7,25.5-12.7,37.4-20.5
		c12.1-8,24.2-16.2,36.3-24.2c6.1-4.1,12.3-7.9,18.7-10.9c-2.8-3.2-5.5-1.8-8.5-0.1c-4,2.2-7.8,4.9-11.7,7.4
		c-6.7,4.3-13,9.3-19.4,14c-7,5.2-14.4,9.8-21.9,14.4c-9.3,5.6-18.4,11.7-28.5,15.8C1089.8,453.9,1087.2,454.8,1084.8,456.2z
		 M941,373.7c-9.2,5-17.1,10.7-24.6,17.5c7.5,2.9,14.7,5.7,22.1,8.5C938.1,390.9,939.4,382.6,941,373.7z M1273.2,482.4
		c0-3.3-3-6.6-5.9-6.4c-3.6,0.3-7.1,0.7-10.7,1.1c-0.6,0.1-1.3,0.1-0.9,1c1.5,3.2,3.1,6.4,4.7,9.6c0.3,0.5,0.8,0.5,1.3,0.7
		c2.6,1.3,4.9-0.1,7.3-0.7C1271.5,487.2,1273.2,485.2,1273.2,482.4z M1288.2,499.7c0-4-3.5-6.7-7.3-5.6c-1,0.3-2.1,0.6-3.1,0.8
		c-5.4,1-5.4,1-2.5,5.9c1,1.7,1.6,4.2,3.1,5.1c1.6,0.9,3.8-0.7,5.7-1C1286.7,504.3,1288.2,502.4,1288.2,499.7z M1296.4,519.3
		c2.5,3.2,4.8,6.2,7.2,9.1c1.3,1.6,3.9,1.3,4.9-0.4c1.5-2.5,1.4-5.9-0.2-7.9c-2-2.5-4.9-3.4-8-2.3
		C1299.2,518.2,1298,518.7,1296.4,519.3z M1250.9,461.9c-2.2,0.2-4.5,0.4-6.7,0.6c-0.4,0-0.8,0.1-0.9,0.7c-0.7,3.6,3.1,7.7,6.8,7.2
		c0.7-0.1,1.4-0.4,2.1,0.3c1.3,1.4,2.9,1.3,3.5-0.3c0.7-1.9,1.8-3.9,0.5-6C1255,462.5,1253.2,461.6,1250.9,461.9z M1302.1,512.9
		c-1.6,0-3.2-0.2-4.7,0.6c-0.4,0.2-0.7,0.4-0.6,0.9c0.1,0.4,0.5,0.5,0.8,0.4c0.5-0.1,1-0.2,1.4-0.4c4.1-1.1,9.5,0.6,11.8,3.6
		c4,5.1,2.7,12.4-1.7,15.7c-0.6,0.4-1.4,1-0.8,1.8c0.6,0.9,1.4,0,1.9-0.4c3.5-2.7,5.1-6.5,4.7-10.7
		C1314.5,516.8,1308.7,512.6,1302.1,512.9z M1281.9,488.5c0.2,1,0.9,1,1.4,1.1c6.2,1.9,10.5,10.3,4.9,16.5c-0.4,0.4-1,0.9-0.4,1.5
		c0.6,0.5,1.1-0.1,1.5-0.5c3-2.6,3.9-7.8,1.9-12C1289.3,490.9,1285.5,488.1,1281.9,488.5z M1266.9,471.4c0.2,0.5,0.6,0.5,1,0.6
		c8.2,3.2,10.5,9,6.7,17c-0.3,0.6-0.8,1.4,0,1.8c0.7,0.3,1.1-0.5,1.5-1c4.5-6.9,0.6-16.8-7.4-18.9
		C1268,470.7,1267.2,470.5,1266.9,471.4z M1261.8,467.7c0-5.6-4.2-9.9-9.6-9.9c-0.9,0-2.5-0.6-2.4,0.8c0,1.1,1.5,0.4,2.3,0.5
		c3.7,0.1,6.1,2.2,7.7,5.2c1.5,2.7,0.8,5.3-1.2,7.5c-0.4,0.5-0.9,1-0.3,1.5c0.6,0.5,1.1-0.1,1.5-0.5
		C1261.1,471.1,1262,469.4,1261.8,467.7z M1206.6,502.5c-1.1-3.4-2.9-6.6-6.1-8.9c-0.5-0.4-1.2-0.6-1.8-0.7
		c-0.6-0.1-1.2,0.3-1.3,0.9c-0.2,0.8,0.5,1,1.1,0.9c1.3-0.1,2.1,0.8,3,1.6c1.8,1.9,3,4,3.6,6.6c0.1,0.6-0.1,1.8,1.1,1.6
		C1206.8,504.5,1206.4,503.5,1206.6,502.5z M1224.4,522.5c0.8,1.8,3,2.4,3.9,4.2c1.2,2.2,2.6,4.3,4,6.5c0.3,0.5,0.7,1.2,1.3,0.9
		c0.8-0.4,0.2-1,0-1.5c-1.5-3.7-3.7-6.8-6.5-9.5C1226.3,522.4,1225.5,521.9,1224.4,522.5z M1264.3,572.6c-0.6-1-1.1-2.1-1.7-3.1
		c-1.3-2.3-2.7-4.5-4-6.7c-0.2-0.4-0.6-0.9-1.2-0.6c-0.2,0.1-0.3,0.7-0.2,0.9c1.9,3.4,3.8,6.8,5.7,10.2c0.1,0.2,0.6,0.3,0.9,0.2
		C1263.9,573.3,1264,572.9,1264.3,572.6z M1139.2,505.3c-1,0.5-0.9,1.2-0.8,1.8c0.4,2.9,5.4,7.6,8.3,7.8c0.4,0,0.8,0,1-0.5
		c0.3-0.8-0.3-1.2-0.8-1.3C1142.8,512,1140.6,509.2,1139.2,505.3z M1185.3,475.7c0-2.4-2.6-6.4-4.7-7.2c-0.7-0.3-1.6-0.5-2.1,0.2
		c-0.6,1.1,0.6,0.9,1.1,1.1c2.3,1.4,3.6,3.4,4.2,6.1c0.1,0.6-0.4,1.9,0.8,1.7C1185.4,477.6,1185.1,476.4,1185.3,475.7z M1185.1,543
		c0.8-0.1,1.6,0.2,1.7-0.6c0.1-0.9-0.8-0.7-1.3-0.8c-2.8-0.7-5.2-2.1-7.5-4c-0.4-0.3-0.7-0.8-1.2-0.2c-0.3,0.4-0.1,0.9,0.2,1.1
		C1179.5,540.7,1182.1,542.5,1185.1,543z M1247.7,593.2c-0.1-0.2-0.1-0.5-0.3-0.6c-2.2-1.3-4.5-2.7-6.7-3.9c-0.3-0.2-0.6,0-0.8,0.4
		c-0.2,0.4,0,0.7,0.3,0.9c2.1,1.3,4.3,2.7,6.4,4C1247.1,594.2,1247.5,593.9,1247.7,593.2z M935.1,338.5c2.1-1.3,3.8-2.3,5.4-3.4
		c0.4-0.2,1-0.4,0.8-1.1c-0.2-0.7-0.8-0.5-1.3-0.5C937.2,333.6,935.9,335.4,935.1,338.5z M1211.4,457.6c2.1,1,3.9,1,5.7,0.9
		c0.8,0,1.4-0.5,1.4-1.2c0-1-0.9-0.8-1.5-0.8C1215.2,456.5,1213.4,456.6,1211.4,457.6z M1111,338.4c-1.2-3.6-2.9-5-5-4.9
		c-0.5,0-1.1,0-1.2,0.6c-0.1,0.5,0.4,0.6,0.8,0.9C1107.2,336,1108.9,337.1,1111,338.4z M1058,432.9c0.5,1.6,1.5,2.9,2.6,4
		c0.2,0.2,0.6,0.4,0.9,0.3c0.4-0.1,0.4-0.6,0.2-0.8C1060.5,435.1,1059.8,433.4,1058,432.9z M1163.5,373.8c0.1,0,0.2-0.1,0.2-0.1
		c1-1.1,2.4-1.9,3-3.4c0.1-0.3-0.3-0.7-0.6-0.6c-1.4,0.5-2.1,1.9-3,2.9C1162.6,373.2,1162.9,373.6,1163.5,373.8z M886.6,371.8
		c0.1-0.8-2.9-3.9-3.5-3.7c-0.6,0.1-0.6,0.6-0.3,0.9c0.9,1.1,1.9,2.1,3,3.1C886,372.3,886.5,372.3,886.6,371.8z M1163.7,368.2
		c-1.3,0-4,2.3-4,3.4c0,0.2,0.2,0.6,0.3,0.6c0.3,0,0.7-0.1,0.9-0.2C1162.1,370.9,1163,369.7,1163.7,368.2z M1261.3,524.6
		c-1.5,0.7-2.9,1.5-4.4,2.2c-0.4,0.2-1,0.3-0.6,1.1c0.3,0.5,0.7,0.3,1,0.1C1258.9,527.1,1260.5,526.3,1261.3,524.6z M1330.2,533.2
		c0.4,2.4,0.9,4,3.8,3.2C1332.9,535.2,1332,534.1,1330.2,533.2z M882.5,374c0.2-0.1,0.5-0.2,0.7-0.4c0-1.7-1.4-2.6-2.5-3.7
		c-0.2-0.2-0.7-0.3-0.8,0.1c-0.1,0.3-0.1,0.7,0,0.9C880.7,372,881.6,373,882.5,374z M1200.1,559.5c-0.2,2,1.2,2.8,2.2,3.8
		c0.2,0.3,0.6,0.3,0.9,0.1c0.4-0.3,0.1-0.6-0.1-0.9C1202.4,561.3,1201.6,560.2,1200.1,559.5z M1262.5,524.6
		c-0.1-0.1-0.1-0.2-0.2-0.3c-0.1,0.1-0.2,0.1-0.2,0.2c0,0.1,0.1,0.2,0.2,0.3C1262.4,524.7,1262.4,524.7,1262.5,524.6z"/>
	<path class="st0" d="M1172.8,764.2c-52.8,0-105.6,0-158.4,0c0-1.1-1-1.2-1.6-1.7c-5.8-4.2-11.7-8.4-17.5-12.5
		c-26.2-18.7-52.5-37.3-78.7-56c-32.3-23-64.7-46.1-97-69.1c-33.3-23.7-66.6-47.4-99.9-71c-14.9-10.6-29.8-21.1-44.7-31.7
		c0-19.4,0-38.7,0-58.1c2.8,1.6,5.7,3.2,8.5,4.9c9.9,5.9,19.8,11.9,29.6,17.9c6.1,3.7,12.3,7.3,18.4,11c9.8,5.9,19.6,11.8,29.4,17.7
		c10.7,6.5,21.5,12.9,32.3,19.4c10,6,19.9,12,29.9,17.9c6.3,3.8,12.6,7.5,18.9,11.3c9.9,5.9,19.8,11.9,29.7,17.8
		c6.1,3.7,12.3,7.4,18.4,11c10.1,6.1,20.2,12.1,30.3,18.2c5.6,3.3,11.2,6.6,16.7,9.9c10.4,6.3,20.7,12.6,31.1,18.8
		c5.6,3.3,11.2,6.6,16.7,9.9c9.9,6,19.7,12.1,29.5,18c13.5,8.1,27.1,16.1,40.6,24.2c14.2,8.5,28.2,17.1,42.4,25.6
		c10.1,6.1,20.3,12.1,30.4,18.1c13.8,8.3,27.6,16.6,41.3,24.9C1170.7,761.5,1172.6,762.1,1172.8,764.2z"/>
	<path class="st0" d="M675.1,137.4c7.2,5.1,14.5,10,22.4,13.9c13.5,6.6,27.6,11.2,42.2,14.4c10.2,2.2,20.4,3.5,30.8,4
		c17.2,0.7,33.8-2.8,50.1-8.4c1.5-0.5,2.3-0.4,3.3,0.9c8.5,11.1,17.1,22.1,25.7,33.1c8.5,11,17.1,21.9,25.6,32.9
		c7.6,9.8,15.1,19.6,22.7,29.3c7.5,9.7,15.1,19.4,22.6,29.1c5.2,6.7,10.4,13.4,15.6,20c1.1,1.3,0.1,1.5-0.7,1.9
		c-10.1,5.2-19.5,11.7-28.4,18.8c-4.8,3.8-9.2,8-13.6,12.2c-1.2,1.2-2.2,1.4-3.9,0.6c-55.1-26.8-110.2-53.6-165.3-80.4
		c-16.3-7.9-32.7-15.9-49-23.8c-0.1,0-0.2,0-0.2,0C675.1,203.2,675.1,170.3,675.1,137.4z"/>
	<path class="st0" d="M1034.1,96.8c-7.5,5.8-16.1,9.4-25.3,10.5c-16.8,1.9-32.1-1.7-44.4-14.4c-2.1-2.1-4.2-4.5-4.9-7.6
		c-1.3,0-0.8,1.1-1.1,1.7c-3.2,6.9-8.4,12.1-14.4,16.3c-9.1,6.3-19.1,9.8-30.3,9.5c-6.2-0.2-12-1.9-17.4-4.9
		c-1.1-0.6-1.4-0.2-1.9,0.3c-1.5,1.5-3,3-4.4,4.6c-11.3,12.5-24,23.4-38.3,32.1c-8.2,4.9-16.7,9.2-25.6,12.8
		c-10.7,4.3-21.7,7.2-33,9c-10,1.6-20.2,1.5-30.3,0.8c-12.3-0.9-24.3-3.2-36-6.6c-17.8-5-34.5-12.4-49.4-23.8
		c-0.7-0.6-1.4-1.2-2.2-1.7c0-21.3,0-42.6-0.1-63.9c0-2.2,0.6-2.4,2.5-2.4c71.3,0.1,142.6,0,213.9,0c1.7,3.7,4.8,6.2,7.9,8.4
		c10.1,7.2,21.3,8.9,33.1,5.7c8.1-2.2,15-6.5,20-13.5c0.2-0.2,0.4-0.3,0.6-0.5c23.9,0,47.7,0,71.6,0c-0.8,0.5-0.1,1.1,0.1,1.5
		c6,13.8,22.9,18.5,34.4,11.8c5.2-3,9.4-7,10.9-13.3c4.5,0,9.1,0,13.6,0c-1.8,7.4,1.1,12.6,6.8,16.9c4.4,3.3,9.2,5.4,14.4,6.8
		c5,1.4,10,2.7,15.1,4.1c0,0.2,0,0.3,0,0.5c-0.8,0-1.7,0-2.5,0c-0.6-0.7-1.4-0.6-2.2-0.4c-4.5,0-9-0.1-13.4-0.1
		c-2.6-0.9-5.2-0.4-7.8-0.3c-2.8-0.2-5.7-0.2-8.5-0.7c-6.3-1.1-12.5-2.4-16.8-8c-1.2-1.6-2.2-1.9-3.6,0.1c-6.2,8.5-17.9,12-27.6,6.7
		c-0.8-0.4-1.3-0.7-1.7,0.4C1035.4,95.6,1034.7,96.2,1034.1,96.8z"/>
	<path class="st0" d="M962.5,764.2c-49.1,0-98.2,0-147.3,0c-0.1-0.7-0.7-1-1.1-1.3c-8.6-7.2-17.3-14.4-25.9-21.6
		c-15.6-13-31.1-26-46.7-39c-12.6-10.5-25.1-21.1-37.6-31.7c-9.7-8.1-19.5-16.1-28.9-24.6c0-33.2,0-66.5,0-99.7
		c2.6,1.2,4.7,3.2,7,4.9c11.6,8.8,23.2,17.6,34.9,26.4c9.9,7.5,19.8,14.9,29.7,22.4c11.7,8.8,23.4,17.7,35.1,26.6
		c9.9,7.5,19.9,15,29.8,22.6c8.3,6.3,16.5,12.6,24.8,18.8c11.9,9,23.9,17.9,35.8,26.9c8.3,6.2,16.5,12.6,24.8,18.8
		c12.1,9.1,24.3,18.1,36.4,27.2c8.8,6.6,17.5,13.2,26.1,20C960.5,761.8,962.3,762.3,962.5,764.2z"/>
	<path class="st2" d="M1034.1,96.8c0.5-0.6,1.3-1.2,1.6-1.9c0.5-1.1,1-0.8,1.7-0.4c9.7,5.3,21.4,1.9,27.6-6.7
		c1.4-1.9,2.4-1.7,3.6-0.1c4.3,5.6,10.4,6.9,16.8,8c2.8,0.5,5.6,0.5,8.5,0.7c2.6,0.8,5.2,0.4,7.8,0.3c4.5,0,9,0.1,13.4,0.1
		c0.6,0.7,1.4,0.6,2.2,0.4c0.8,0,1.7,0,2.5,0c2.3,1.4,5,0.1,6.6,0.9c-1.7,0.2-3.9-2-6.6-1.4c-5-1.4-10-2.7-15.1-4.1
		c-5.2-1.4-10-3.5-14.4-6.8c-5.8-4.3-8.7-9.5-6.8-16.9c92.4,0,184.8,0,277.2,0c1.7,0,2.2,0.3,2.2,2.2c-0.1,57.3-0.1,114.7-0.1,172
		c-0.3,0.6-0.8,0.6-1,0c-0.2-1-0.9-0.7-1.4-0.7c0-0.3-0.1-0.6-0.1-0.9c1.1-0.6,1.6-1.4,1.6-2.8c-0.1-3.4-0.1-6.8,0-10.3
		c0.1-1.5-0.6-2.4-1.7-3.2c-9.6-7.1-18.6-14.9-27.7-22.5c-15.3-12.8-31.1-24.8-47.7-35.8c-13.9-9.2-28.1-17.9-42.5-26.2
		c-0.2-0.8-0.7-0.9-1.4-0.7c-0.4-0.1-0.8-0.2-1.2-0.3c-0.8-0.3-1-1.3-1.9-1.3c-0.6-0.3-1.2-0.5-1.8-0.8
		c-13.2-7.1-26.8-13.4-40.7-18.9c-19.5-7.8-39.6-13.9-60.4-17.2c-11.6-1.9-23.2-3.3-34.9-3.3c-5.7,0-11.4-0.2-17-1.3
		c-5.9-1.2-11.6-2.8-15.4-8c-1-1.4-1.2-0.2-1.7,0.4c-6.7,8.4-17.5,11-25.9,7.8c-2.5-0.9-4.2-1.1-5.9,1
		C1034.2,97.6,1034.2,97.2,1034.1,96.8z M1321.4,115.7c-0.3-0.3-0.7-0.7-1.2-1.1c-1.8-1.1-3.3-2.6-4.7-4.2c-2.6-2.9-3.9-6.5-5.4-10
		c-0.3-0.6-0.6-1.3-1.3-1.4c-0.8,0-1.4,0.5-1.7,1.3c-0.2,0.6-0.4,1.3-0.6,1.9c-1.9,5.1-4.8,9.3-9.8,11.8c-2.1,1.1-2.2,1.6-0.3,3
		c2.7,2,5,4.4,7,7.2c1.8,2.6,2.4,5.5,3.1,8.5c0.2,0.7,0.5,1.3,1.2,1.4c0.7,0,1-0.5,1.2-1.1c0.1-0.4,0.3-0.8,0.5-1.2
		c2.3-6.2,5.5-11.7,11.3-15.2C1321.1,116.6,1321.5,116.4,1321.4,115.7z M1201.4,105.2c0.3-0.6,0.6-1.1,0.8-1.7
		c1-3.5,2.5-6.7,5.4-8.9c1.1-0.8,0.4-1.7-0.3-2.3c-2.4-2.1-3.8-4.9-5.1-7.8c-0.2-0.6-0.3-1.5-1.1-1.5c-0.7,0-0.8,0.7-1.1,1.2
		c-1.8,3.1-3,6.7-6.4,8.6c-0.9,0.5-0.3,1.2,0.3,1.6c1.9,1.3,3.1,3.4,4.4,5.2C1199.5,101.3,1199.6,103.6,1201.4,105.2z M1329.7,153.5
		c-1,0.4-1.2,1.1-1.4,1.7c-1.4,3.2-2.5,6.5-5.6,8.6c-1,0.7-0.3,1.5,0.3,2.1c2.4,2.4,3.7,5.4,4.3,8.7c0.1,0.7,0.1,1.4,1,1.5
		c1,0.1,1-0.8,1.2-1.4c0.5-2.1,1.4-4,2.6-5.7c0.8-1.3,2.6-2,2.7-3.6c0.2-1.7-1.7-2.4-2.5-3.7c-0.4-0.7-0.7-1.6-1.1-2.3
		C1330.2,157.7,1330.4,155.5,1329.7,153.5z M1253,107.3c0,2.2,1.9,4.3,3.8,4.2c1.9-0.1,4.1-2.2,4.2-4.2c0.1-2-1.9-4-4.1-4
		C1254.6,103.3,1253.1,104.9,1253,107.3z"/>
	<path class="st0" d="M1360.5,242.5c0.6,0.1,1.2-0.3,1.4,0.7c0.1,0.6,0.6,0.6,1,0c0,7.4,0,14.7,0,22.1c-2-0.3-1,1.3-1,1.9
		c-0.1,34.8-0.1,69.6-0.1,104.5c0,3.1-1.2,4.4-4.3,4.6c-0.9,0.1-1.8,0.1-2.8,0.1c-7.4,0.7-14.8,1.4-22.1,2c-1.4-0.2-2.9-0.3-4.3,0.1
		c-0.9,0.2-1.8,0.3-2.7,0.5c-1.6-0.2-3.1-0.5-4.6,0.2c-6.1,1-12.3,1.1-18.4,1.7c-5.8,0.6-11.6,1.1-17.5,1.6
		c-5.2,0.5-10.5,0.9-15.7,1.4c-6.1,0.5-12.1,1.4-18.2,1.6c-8.2,0.3-16.2,1.9-24.4,2.1c-2.8,0.1-5.6,0.5-8.5,0.7
		c-0.5-0.2-0.9-0.2-1.3,0.3c-1.5,0-3-0.4-4.4,0.4c-0.7,0.4-1.2-0.3-1.8-0.7c-10.8-7.8-21.5-15.7-31.5-24.6
		c-7.3-6.5-14.2-13.4-21.6-19.7c-2.2-1.9-2.2-1.9,0.4-3.2c21.1-10.2,42.3-20.4,63.4-30.7c21.5-10.4,43-20.9,64.5-31.3
		c23.7-11.5,47.5-22.9,71.2-34.3C1358.6,244.1,1359.9,243.7,1360.5,242.5z M1240,360.7c1.1-0.2,1-1.2,1.3-1.9
		c3.1-7.2,7-13.8,13.3-18.6c1.3-1,1.1-1.9-0.1-2.5c-1.5-0.8-2.8-1.8-3.9-3.1c-3.2-3.8-5.9-7.8-6.3-13.1c-0.1-0.8,0.1-2.5-1-2.6
		c-1.3-0.1-1.7,1.4-2.1,2.5c-0.1,0.2-0.1,0.3-0.1,0.5c-2.2,6.6-6.1,11.9-12.5,15c-1.6,0.8-1.6,1.6-0.2,2.5c4.5,2.9,7,7.2,8.6,12.2
		c0.8,2.6,1.5,5.2,2.2,7.8C1239.3,360,1239.3,360.5,1240,360.7z"/>
	<path class="st3" d="M675.1,238.1c3.3,0.4,6.2,2.1,8.7,3.9c3.6,2.5,7.6,3.8,11.4,5.7c28.4,13.9,56.8,27.6,85.3,41.3
		c28.4,13.8,56.8,27.6,85.2,41.3c7.5,3.6,15.1,7.3,22.7,10.8c1.7,0.8,1.9,1.4,0.3,2.7c-8.5,7-16.3,14.8-24.4,22.2
		c-2.7,2.5-4.8,3.1-8.5,1.7c-52.1-20.4-104.4-40.6-156.6-60.9c-7.6-3-15.3-5.9-22.9-8.9c-0.4-0.1-0.8-0.2-1.2-0.3
		C675.1,277.8,675.1,258,675.1,238.1z"/>
	<path class="st0" d="M1010.9,764.2c-15.1,0-30.3,0-45.4,0c0.1-1-0.7-1.3-1.3-1.7c-5.8-4.4-11.5-8.8-17.3-13.1
		c-10-7.6-20-15.1-30.1-22.7c-10.2-7.7-20.3-15.4-30.4-23c-9.9-7.5-19.9-15-29.9-22.5c-10.2-7.7-20.4-15.5-30.6-23.2
		c-10.3-7.8-20.7-15.4-31-23.2c-16.9-12.8-33.8-25.7-50.7-38.5c-9.9-7.5-19.9-15-29.9-22.5c-4.6-3.4-9.1-7-13.6-10.4
		c-5.2-3.9-10.4-7.8-15.6-11.6c-3.4-2.5-6.5-5.3-10.1-7.5c0-6.7,0-13.4,0-20c0.4,0.2,0.9,0.5,1.3,0.7c12.6,9,25.2,18,37.8,27
		c36.6,26.2,73.2,52.3,109.9,78.5c30.6,21.8,61.2,43.6,91.8,65.5c26.6,19,53.1,37.9,79.7,56.9C1000.7,756.6,1006.1,760,1010.9,764.2
		z"/>
	<path class="st0" d="M811.7,764.2c-44.8,0-89.7,0-134.5,0c-1.8,0-2.2-0.3-2.2-2.2c0.1-37.6,0.1-75.3,0.1-112.9
		c0.7-0.6,1,0.2,1.4,0.5c9.7,8.1,19.4,16.2,29.1,24.4c14.4,12.1,28.7,24.1,43,36.2c19,16,38,32,56.9,48.1
		C807.7,760.2,810.3,761.6,811.7,764.2z"/>
	<path class="st4" d="M1268.8,448.5c21.3,16.4,42.6,32.8,63.9,49.2c2.7,2.1,5.4,4.1,8,6.1c1.2,0.8,1.6,2.2,2.2,3.4
		c0.9,1.9,1.9,3.7,4.6,2.7c0.8-0.3,1.4,0.3,2,0.8c3.4,2.6,6.7,5.3,10.1,7.9c0.9,0.7,2,1.2,1.8,2.7c0,0.3,0,2,1.5,1.4
		c0,7,0,14,0,21.1c-2.3,0.9-4.1-0.7-6.2-1.2c-4.3-0.9-8.6-2-12.8-3.3c-6.2-1.9-11.6-4.9-15.7-10.5c-8.5-11.7-17.3-23.2-26.1-34.7
		c-11.1-14.6-22.2-29.3-33.2-43.9C1268.7,449.8,1267.5,449.2,1268.8,448.5L1268.8,448.5z M1333.9,528.7c-0.5-0.2-0.9-1-1.5-0.3
		c-0.4,0.5,0.2,0.9,0.5,1.2c0.7,0.7,1.4,1.4,2.2,2.1c0.4,0.3,1.2,0.6,1.2-0.1c0-1.6,1.3-0.7,1.9-1.2c-0.7-1.3-1.6-2.2-2.7-3
		c-0.7-0.5-1.3-0.4-1,0.7C1334.3,528.3,1334.1,528.5,1333.9,528.7z"/>
	<path class="st3" d="M1172.8,764.2c-0.3-2.2-2.1-2.7-3.6-3.6c-13.7-8.3-27.5-16.6-41.3-24.9c-10.1-6.1-20.3-12.1-30.4-18.1
		c-14.1-8.5-28.2-17.1-42.4-25.6c-13.5-8.1-27.1-16.1-40.6-24.2c-9.9-5.9-19.7-12-29.5-18c-5.5-3.4-11.2-6.6-16.7-9.9
		c-10.4-6.3-20.7-12.6-31.1-18.8c-5.6-3.3-11.2-6.6-16.7-9.9c-10.1-6-20.2-12.1-30.3-18.2c-6.1-3.7-12.3-7.4-18.4-11
		c-9.9-5.9-19.8-11.9-29.7-17.8c-6.3-3.8-12.6-7.5-18.9-11.3c-10-6-19.9-12-29.9-17.9c-10.8-6.5-21.5-12.9-32.3-19.4
		c-9.8-5.9-19.6-11.8-29.4-17.7c-6.1-3.7-12.3-7.3-18.4-11c-9.9-5.9-19.7-11.9-29.6-17.9c-2.8-1.7-5.7-3.3-8.5-4.9
		c0-0.9,0-1.7,0-2.6c3.9,3.2,8.4,5.6,12.7,8.1c10.7,6.4,21.4,12.9,32,19.3c9.2,5.5,18.5,11,27.8,16.6c11.9,7.1,23.8,14.3,35.7,21.5
		c14.6,8.8,29.1,17.6,43.7,26.3c10.4,6.2,20.9,12.4,31.3,18.6c15.2,9.1,30.4,18.3,45.7,27.5c15,9,30.1,18,45.1,27
		c12.1,7.2,24.1,14.6,36.1,21.8c10.7,6.4,21.4,12.7,32.1,19.1c10.4,6.2,20.8,12.5,31.2,18.8c12.2,7.3,24.4,14.6,36.6,21.9
		c12.4,7.5,24.8,15,37.2,22.4c10.6,6.4,21.3,12.6,31.9,19c5.1,3.1,10.3,6.1,15.3,9.3c2.4,1.6,5.1,2.6,7.6,4c0.7,0.4,1.7,0.4,1.7,1.6
		C1176.9,764.2,1174.8,764.2,1172.8,764.2z"/>
	<path class="st1" d="M1010.9,764.2c-4.8-4.2-10.2-7.6-15.4-11.3c-26.5-19-53.1-38-79.7-56.9c-30.6-21.8-61.2-43.6-91.8-65.5
		c-36.6-26.1-73.2-52.3-109.9-78.5c-12.6-9-25.2-18-37.8-27c-0.4-0.3-0.9-0.5-1.3-0.7c0-0.7,0-1.4,0-2.1
		c14.9,10.6,29.8,21.1,44.7,31.7c33.3,23.7,66.6,47.3,99.9,71c32.3,23,64.6,46.1,97,69.1c26.2,18.7,52.5,37.3,78.7,56
		c5.8,4.2,11.7,8.3,17.5,12.5c0.6,0.4,1.6,0.6,1.6,1.7C1013.3,764.2,1012.1,764.2,1010.9,764.2z"/>
	<path class="st2" d="M952.4,69.5c-5,7-11.9,11.3-20,13.5c-11.8,3.2-23,1.6-33.1-5.7c-3.1-2.2-6.2-4.7-7.9-8.4c20.3,0,40.7,0,61,0
		C952.4,69.2,952.4,69.4,952.4,69.5z"/>
	<path class="st4" d="M1362.9,564.9c-4.5,0.3-8.1-2.6-12.1-3.9c-0.5-0.2-0.8-1.4-1-2.2c-0.2-1-0.4-2-1.4-2.5
		c-0.1,0.1-0.2,0.2-0.2,0.3c0.3,3.5,0.3,3.5-3.2,2.1c-8.2-3.3-16.4-6.5-24.7-9.8c-0.8-0.3-1.6-0.5-2.4-1.3c3.8-3.2,7.5-6.3,11.2-9.5
		c1-0.8,2-0.5,3.1-0.2c9.9,2.7,19.8,5.3,29.6,7.9c0.3,0.1,0.7,0,1,0C1362.9,552.2,1362.9,558.5,1362.9,564.9z M1351.6,556.6
		c-0.6,0-0.7,0.4-0.6,0.7c0.4,0.8,0.2,2.1,1.2,2.5c0.5,0.2,0.6-0.5,0.5-0.9C1352.4,558.1,1352.3,557.1,1351.6,556.6z"/>
	<path class="st3" d="M675.1,544.3c3.6,2.1,6.7,5,10.1,7.5c5.2,3.8,10.4,7.7,15.6,11.6c4.6,3.4,9.1,7,13.6,10.4
		c9.9,7.5,19.9,15,29.9,22.5c16.9,12.8,33.8,25.7,50.7,38.5c10.3,7.8,20.7,15.4,31,23.2c10.2,7.7,20.4,15.5,30.6,23.2
		c9.9,7.5,19.9,15,29.9,22.5c10.2,7.7,20.3,15.4,30.4,23c10,7.6,20,15.1,30.1,22.7c5.8,4.4,11.5,8.8,17.3,13.1
		c0.6,0.5,1.4,0.7,1.3,1.7c-1,0-2,0-3,0c-0.2-1.9-2-2.4-3.2-3.3c-8.6-6.7-17.4-13.4-26.1-20c-12.1-9.1-24.3-18.1-36.4-27.2
		c-8.3-6.2-16.5-12.6-24.8-18.8c-11.9-9-23.9-17.9-35.8-26.9c-8.3-6.2-16.5-12.6-24.8-18.8c-9.9-7.5-19.9-15-29.8-22.6
		c-11.7-8.9-23.4-17.7-35.1-26.6c-9.9-7.5-19.8-14.9-29.7-22.4c-11.6-8.8-23.2-17.7-34.9-26.4c-2.3-1.7-4.4-3.6-7-4.9
		C675.1,545.7,675.1,545,675.1,544.3z"/>
	<path class="st2" d="M1069.9,69c-1.5,6.3-5.7,10.3-10.9,13.3c-11.5,6.8-28.4,2-34.4-11.8c-0.2-0.4-0.8-1-0.1-1.5
		C1039.7,69,1054.8,69,1069.9,69z"/>
	<path class="st1" d="M811.7,764.2c-1.4-2.7-4-4-6.2-5.9c-18.9-16.1-37.9-32.1-56.9-48.1c-14.3-12.1-28.7-24.2-43-36.2
		c-9.7-8.2-19.4-16.3-29.1-24.4c-0.4-0.3-0.7-1-1.4-0.5c0-1,0-2.1,0-3.1c9.4,8.5,19.2,16.4,28.9,24.6c12.5,10.6,25.1,21.1,37.6,31.7
		c15.5,13,31.1,26,46.7,39c8.6,7.2,17.3,14.4,25.9,21.6c0.4,0.4,1,0.7,1.1,1.3C814.1,764.2,812.9,764.2,811.7,764.2z"/>
	<path class="st2" d="M1362.9,522.7c-1.5,0.6-1.5-1.1-1.5-1.4c0.1-1.5-0.9-2-1.8-2.7c-3.4-2.6-6.7-5.3-10.1-7.9
		c-0.6-0.5-1.2-1.1-2-0.8c-2.6,1-3.7-0.8-4.6-2.7c-0.6-1.3-1.1-2.6-2.2-3.4c0.3-0.5,0.7-0.6,1.2-0.7c6.5,4.9,13,9.8,19.5,14.6
		c0.7-0.6,0.4-1.2,0.4-1.8c0-45.1,0-90.2,0.1-135.2c0-2.1-1-2.6-2.7-2.8c-1.3-0.1-2.7,0.4-3.9-0.4c-0.2-0.4-0.3-0.8-0.5-1.2
		c0.9,0,1.8-0.1,2.8-0.1c3.1-0.2,4.3-1.5,4.3-4.6c0-34.8,0-69.6,0.1-104.5c0-0.6-1-2.2,1-1.9
		C1362.9,351.1,1362.9,436.9,1362.9,522.7z"/>
	<path class="st3" d="M952.4,69.5c0-0.2,0-0.3,0-0.5c0.2,0,0.3,0,0.5,0C952.8,69.2,952.6,69.4,952.4,69.5z"/>
	<path class="st0" d="M1034.2,98c1.7-2.1,3.5-1.9,5.9-1c8.5,3.2,19.2,0.6,25.9-7.8c0.5-0.6,0.7-1.8,1.7-0.4c3.8,5.2,9.5,6.9,15.4,8
		c5.6,1.1,11.3,1.3,17,1.3c11.7,0,23.3,1.4,34.9,3.3c20.8,3.3,40.8,9.4,60.4,17.2c13.9,5.6,27.5,11.9,40.7,18.9
		c0.6,0.3,1.2,0.5,1.8,0.8c0.8,1,0,1.6-0.5,2.2c-13.4,17.2-26.7,34.4-40.1,51.5c-13.7,17.7-27.4,35.3-41.1,53
		c-11.2,14.5-22.5,29.1-33.7,43.6c-4.3,5.6-8.6,11.1-12.9,16.7c-1,1.3-1.9,1.6-3.5,0.7c-13.7-7.1-28.1-12.2-43.1-15.4
		c-12-2.6-24.2-3.6-36.4-3.7c-2,0-2.3-0.7-2.3-2.5c0.3-49.8-0.3-99.7-0.5-149.5c0-9.6,0-19.2-0.1-28.8c0-1.5,0.4-2.3,1.8-2.9
		C1028.6,102,1031.7,100.4,1034.2,98z M1048,236c-0.6,0.1-0.8,0.9-1.1,1.6c-1.8,3.6-3.3,7.5-6.9,9.8c-0.9,0.6-0.7,1.3,0.1,1.9
		c3.5,2.5,6.2,5.7,7,10.1c0.1,0.6,0.3,1.4,1.3,1.3c0.8-0.1,0.7-0.8,0.9-1.3c1.3-3.7,3-7.4,6.1-9.8c1.9-1.5,1.3-2.1,0.1-3.4
		c-2.6-2.7-5-5.5-6.1-9.2C1049,236.4,1049,235.9,1048,236z M1149.8,136.8c-2.5,0-5.1,2.5-5.1,5c0,2.5,2.6,4.9,5.1,4.9
		c2.9,0,4.8-2,4.8-5C1154.7,138.8,1152.8,136.8,1149.8,136.8z"/>
	<path class="st3" d="M1022,196.2c0,29.3,0,58.6,0.1,87.9c0,2.3-0.6,3-2.9,3c-13.6,0.1-27.1,1.4-40.4,4.7
		c-13.1,3.2-25.8,7.6-37.8,14c-2.4,1.3-3.5,0.8-5.1-1.2c-9.2-12-18.5-23.8-27.7-35.8c-9.9-12.7-19.7-25.5-29.6-38.2
		c-8.4-10.8-16.8-21.5-25.2-32.3c-8.9-11.5-17.8-23.1-26.7-34.6c-2.7-3.5-2.6-3.5,1.4-5.2c17.7-7.4,34-17.2,48.3-30.2
		c6.2-5.6,12.4-11.2,17.6-17.9c0.6-0.7,1.1-1.5,2.3-0.7c5.5,3.6,11.6,4.5,18,4.5c18.5-0.1,32.9-8.1,43.6-23.5c1-1.4,1.4-1.5,2.4-0.1
		c7.4,10.3,17.9,15.2,29.8,17.6c10.3,2.1,20.4,1.1,30.3-2.5c1.4-0.5,1.8-0.2,1.7,1.2c-0.1,2.7-0.1,5.3-0.1,8c0,27.1,0,54.3,0,81.4
		C1022.1,196.2,1022,196.2,1022,196.2z M904,175.2c0-0.8-0.6-1.1-1-1.6c-2.3-2.9-4.1-6-5.4-9.4c-0.3-0.8-0.2-1.9-1.2-2
		c-1-0.1-1.2,1.1-1.5,1.8c-1.5,3.7-3.3,7.2-6.6,9.6c-0.7,0.5-0.6,0.9-0.1,1.4c2.8,3.1,4.8,6.7,6.2,10.7c0.3,0.8,1,1.3,1.7,1.4
		c0.8,0.1,0.9-0.8,1.2-1.4c1.5-3.5,3.4-6.8,6-9.6C903.6,175.8,903.8,175.4,904,175.2z"/>
	<path class="st3" d="M1242.4,140.8c14.4,8.3,28.6,17,42.5,26.2c16.6,11,32.4,23,47.7,35.8c9.1,7.6,18.1,15.4,27.7,22.5
		c1.1,0.8,1.7,1.7,1.7,3.2c-0.1,3.4-0.1,6.8,0,10.3c0.1,1.4-0.5,2.2-1.6,2.8c-6.3,2.4-12.1,5.7-18.2,8.7
		c-31.3,15.1-62.6,30.4-93.9,45.6c-30.2,14.7-60.5,29.4-90.7,44.1c-2.2,1.1-3.6,1-5.4-0.8c-12.3-12-25.7-22.5-41-30.3
		c-2.1-1.1-1.4-2-0.5-3.2c6.1-7.9,12.3-15.7,18.4-23.6c6.2-8,12.3-16,18.5-23.9c6.1-7.9,12.3-15.8,18.4-23.6
		c7.7-9.9,15.4-19.8,23-29.7c8.5-10.9,17-21.8,25.5-32.7c7.6-9.8,15.2-19.6,22.8-29.3c0.8-1,1.6-2,2.4-3c0.4,0.1,0.8,0.2,1.2,0.3
		C1241.4,140.5,1241.8,140.8,1242.4,140.8z"/>
	<path class="st3" d="M1355.4,377.6c1.2,0.8,2.6,0.3,3.9,0.4c1.7,0.2,2.7,0.7,2.7,2.8c-0.1,45.1,0,90.2-0.1,135.2
		c0,0.6,0.3,1.2-0.4,1.8c-6.5-4.9-13-9.8-19.5-14.6c-6.6-5.1-13.1-10.3-19.7-15.4c-13.8-10.6-27.6-21.2-41.3-31.7
		c-5.5-4.2-10.9-8.4-16.4-12.6c-1.9-1.4-5-1.1-7.5,0.7c-4.8,3.6-9.6,7.1-14.4,10.7c-0.9,0.7-1.8,1.5-2.3-0.5
		c-0.2-0.9-1.1-0.7-1.7-0.6c-6.7,0.5-13.4,1-20,1.6c-2.9,0.3-5.8,0.3-8.8,0.6c-9.2,0.9-18.4,1.3-27.6,2c-2,0.1-4,0.6-6,0.6
		c-2.1,0-2,1.8-2.1,3.4c-0.1,1.5,0,3.4-2.2,1.2c-1.1-1.1-2,0.1-2.9,0.6c-4.3,3-8.3,6.3-12.3,9.7c-2.6,2.2-5.1,4.4-7.7,6.6
		c-0.6,0.5-1.2,0.9-2.1,0.5c-8.3-3.3-16.7-6.6-25.5-10c3.5-2,6.6-3.9,9.7-5.6c17.3-9.5,34-20.2,51.8-28.9
		c12.8-6.3,26-11.6,39.7-15.3c2.3-0.6,3.1-1.3,2.6-3.6c-0.1-0.5-0.1-1,0.4-1.4c3.4-2.9,3.5-6.7,2.4-10.7c-0.2-0.6-0.3-1.3-0.5-2
		c-1-3.7-2.1-7.1-6.3-8.6c-2.5-0.9-4.9-2.3-7.2-4.3c4.7-1.3,9.2-1,13.7-1.5c8.7-0.9,17.3-1.4,26-2.3c5.2-0.6,10.5-0.8,15.8-1.3
		c5.9-0.5,11.8-1.1,17.7-1.6c5.5-0.5,11-0.9,16.5-1.4c5.8-0.5,11.6-1.1,17.5-1.6c5.6-0.5,11.2-0.8,16.8-1.3
		C1343.9,378.7,1349.6,378.1,1355.4,377.6z"/>
	<path class="st4" d="M1138,352.1c-3.3,0.6-6.5-0.5-9.7-0.5c-0.7,0-1.3-0.3-1.8-0.8c-3.8-3.1-7.6-6.2-11.4-9.3
		c-1.8-1.5-2.7-3.6-3.8-5.6c-2-3.4-3.1-4.3-7.2-3.7c-1.6,0.2-3-0.2-4.5-1.1c-15.3-9.6-31.9-16.4-49.4-20.4c-8.6-2-17.4-3.6-26.2-3.9
		c-5-0.2-9.8,0.6-14.7,1.4c-11.3,1.7-22.4,4.4-33.1,8.5c-10.3,3.9-20.4,8.6-29.7,14.6c-1.4,0.9-2.9,1.3-4.3,0.8c-3.4-1-6.2,1-7,3.3
		c-1.8,5.3-6.2,7.6-9.9,10.8c-1.3,1.1-2.8,2-3.9,3.2c-2.3,2.7-5.6,2.4-8.4,2.6c-6.6,0.5-13.2,0.2-19.7-1.6c-0.1,0-0.2,0-0.3,0
		c-2-0.6-4.6-1-5.2-2.9c-0.4-1.1,2.2-2.5,3.5-3.6c6.4-5.6,12.4-11.7,19.2-17c19.7-15.3,41.6-25.9,65.5-32.2
		c13.7-3.6,27.6-5.2,41.7-5.3c8.6,0,17.1-0.2,25.7,0.6c17.9,1.6,35.1,6.2,51.8,13.1c6,2.5,11.7,5.6,17.4,8.5
		c1.1,0.5,1.8,1.3,1.9,2.4c0.2,2,1.5,2.1,2.8,1.6c1.3-0.5,2.2,0,3.2,0.7c12.4,7.6,23.2,17.2,33.7,27.1c1.1,1,2.3,2,3.4,3
		c1.2,0.9,0.9,1.5-0.3,2.2c-2.9,1.8-6.2,2.5-9.5,2.9C1144.7,351.9,1141.4,352.6,1138,352.1z M945.9,314.5c-0.2-0.3-0.5-0.5-0.7-0.8
		c-1.6,0.7-2.8,2-4,3.3c-0.3,0.3-0.5,0.7-0.1,1.1c0.3,0.3,0.6,0.1,0.9-0.2C943.2,316.7,944.6,315.6,945.9,314.5z M948.2,314.6
		c-2.2,1.3-3.6,2.2-4,5C945.8,317.9,947.3,317.1,948.2,314.6z M1081.9,308.2c-0.1-0.5-0.5-0.7-0.8-0.5c-0.8,0.3-1.7,0.5-1.9,1.4
		c-0.1,0.5,0.4,0.8,0.8,0.5C1080.7,309.1,1081.6,309,1081.9,308.2z"/>
	<path class="st4" d="M885.6,379.2c2.6-1.7,4.7-3.1,6.9-4.5c7.8-5.2,14.7-11.6,21.9-17.6c13.3-11,26.6-21.8,42-29.8
		c12.5-6.5,25.6-10.9,39.3-13.7c13-2.7,26.2-3.2,39.5-2.1c15.1,1.2,29.6,4.9,43.5,10.7c14.6,6,27.7,14.5,40.1,24.4
		c11.4,9,21.9,19.1,33.9,27.4c6.5,4.5,13.1,8.8,20.2,12.4c13.5,6.8,26.9,13.9,41.2,18.8c4.2,1.5,8.2,3.8,12.8,4
		c0.4,0,0.8,0.1,0.9,0.7c0.2,1.4-2.6,4.3-4,4c-19.9-3.8-38-12.5-55.6-22.3c-16.2-9-31.1-20.2-45.8-31.5c-15.6-12-32-22.4-50.1-29.9
		c-9-3.7-18.3-6.1-28-7.5c-11.4-1.6-22.9-2-34.4-1c-18.3,1.5-35.4,7.2-51.7,15.8c-15.2,8-28.7,18.5-42.4,28.7
		c-7,5.2-14.1,10.1-21.2,15.2c-0.8,0.6-1.5,0.8-2.5,0.3C890.2,380.8,888.1,380.2,885.6,379.2z"/>
	<path class="st5" d="M1023.2,332.7c21.4,0.4,38.2,9.7,50.6,27.4c1.9,2.7,1.9,5.1,0.5,7.8c-2.7,5.2-6.8,8.9-11.9,11.4
		c-3,1.5-3.4,3.5-2.9,6.3c2.1,11.3-1.5,21.1-7.9,29.9c-3.1,4.4-7.8,6.9-12.7,8.8c-5.5,2.2-11.1,4-17,3.4
		c-10.4-0.9-20.3-3.8-27.2-12.3c-7.4-9.2-10.1-20-7.9-31.9c0.4-2.1-0.8-2.9-2.2-3.7c-4.3-2.4-8.4-5.1-11.1-9.4
		c-0.6-0.9-1.1-1.9-1.6-2.9c-1.4-2.5-1.2-4.8,0.5-7.3c9.8-14.5,23.2-23.3,40.1-26.8C1015.9,332.8,1019.5,332.7,1023.2,332.7z
		 M989.2,392.5c-0.2,2.4,0.1,5.2,0.9,7.9c5.4,19.4,22.6,27.6,40.5,24.3c17.6-3.2,29-21.2,26.1-38.1c-3-17.3-17.4-27.2-32-28.6
		c-5.2-0.5-10,1-14.8,3C997.9,366,988.8,378,989.2,392.5z"/>
	<path class="st4" d="M1084,453.8c12.4-12.1,19.3-26.6,22.3-43.3c2.1-11.2,1.6-22.3-0.5-33.5c-0.2-0.9-0.7-2,0.1-2.6
		c0.7-0.5,1.5,0.4,2.2,0.8c12.6,7.3,23.5,16.9,33.9,27.2c3.7,3.6,7.5,7.1,11.3,10.7c-6.3,4.3-12.2,9.1-18.5,13.3
		c-9.1,6.1-18.6,11.3-27.8,17.2c-6.2,4-12.9,7-19.7,9.7C1086.3,453.7,1085.3,453.9,1084,453.8z"/>
	<path class="st4" d="M1258.3,557c-0.8,0.1-1.2-0.3-1.6-0.9c-3.8-5.7-7.5-11.5-11.4-17.1c-0.9-1.2-0.5-1.7,0.5-2.3
		c8-5,15.9-9.9,23.9-14.9c5.5-3.4,11-6.7,16.6-10.1c1.2-0.7,2.2-0.7,3.1,0.4c4.4,5.8,8.7,11.7,13.2,17.4c1,1.3,0.2,1.5-0.6,2
		c-14.1,7.9-27.8,16.5-41.8,24.8C1259.6,556.7,1259,557.2,1258.3,557z"/>
	<path class="st4" d="M1199.9,483.8c5-1.2,9.9-2.4,14.7-3.6c11.1-2.8,22.5-4.7,33.7-7c1.9-0.4,3.5,0.3,4.3,2.1
		c2.5,5.3,5,10.6,7.6,15.8c0.8,1.5-0.4,1.3-1,1.7c-6.9,3.9-14.3,6.3-22,7.8c-7.8,1.5-15.5,3.2-23.2,4.9c-1.1,0.2-1.6,0.2-2.2-0.8
		C1208,497.7,1204,490.8,1199.9,483.8z"/>
	<path class="st4" d="M1268,490.3c3.4,6.3,6.8,12.6,10.2,18.9c0.7,1.3,2.3,2.7,2.1,3.9c-0.2,1.5-2.5,1-3.8,1.7
		c-6.5,3.5-13,6.8-19.6,10.3c-1.2,0.6-2.3,1.2-3.8,0.2c-2.5-1.6-3.3,0.7-3.8,2.4c-0.4,1.3-1,1.9-2.1,2.4c-1.9,1-3.8,2.1-5.7,3.2
		c-1.6,1-2.6,0.9-3.8-1c-3.8-6.3-7.8-12.5-11.8-18.7c-1.2-1.8-0.6-2.6,1-3.4c3.8-2,7.8-3.5,12.2-3.9c1.1-0.1,2.3-0.5,2.6-1.7
		c0.5-2.1,2.1-2.7,3.7-3.4C1252.8,497.6,1260.3,494,1268,490.3z"/>
	<path class="st4" d="M1185.5,482.7c0,0.7-0.3,0.9-0.7,1.1c-2.7,2.2-5.3,4.4-8,6.6c-0.6,0.5-1.4,0.6-2,1c-1.5,0.8-4,0.7-3.7,3.5
		c0,0.3-0.5,0.7-0.8,0.9c-5.7,4.7-11.5,9.4-17.2,14.2c-1.2,1-1.8,0.7-2.7-0.2c-4.8-4.6-9.7-9.2-14.6-13.7c-1.2-1.1-1-1.7,0.1-2.6
		c8.5-7.7,17.1-15.3,26.1-22.6c2.3-1.9,4.6-3.7,6.9-5.6c1.2-1,1.9-1.2,3.1,0.4c3.9,5.1,8.1,10,12.2,15
		C1184.7,481.4,1185.1,482.1,1185.5,482.7z M1158.7,478.8c-1.5-0.7-2.7-0.4-4,0.1c-0.3,0.1-0.7,0.2-0.6,0.6c0.1,0.4,0.5,0.6,0.7,0.5
		C1156,479.5,1157.5,479.9,1158.7,478.8z M1155.9,480.7c-0.7,0-1.6-0.2-1.7,0.7c-0.1,0.9,0.8,0.6,1.3,0.5c0.6-0.1,1.7,0.5,1.7-0.7
		C1157.3,480.4,1156.4,480.8,1155.9,480.7z"/>
	<path class="st4" d="M1230.7,472.9c-0.8,0.1-1.7-0.4-2.2,0.7c-1.7,3.3-5.1,3.4-8,3.4c-8.8,0-17.6,1-26.4,0.8
		c-1.4,0-2.2-0.5-3.1-1.6c-4-4.9-8.1-9.6-12.1-14.4c-0.5-0.6-1-1.1-1.2-2.1c5.3-0.4,10.4-0.8,15.6-1.2c4.1-0.3,8.2-0.6,12.3-0.8
		c2.6-0.1,5,1,7.5,1.6c2.8,0.7,5.6,0.1,8.3,1.1c0.1-0.4,0.2-0.6,0.2-0.7c-0.6-0.9-2-1.7-1.5-2.7c0.3-0.6,1.9-0.7,3-0.8
		c4.9-0.3,9.9-0.4,14.8-0.8c1.1-0.1,1.6,0.4,1.8,1.3c1.5,5.2,3,10.4,4.5,15.8c-4,0.4-7.8,2.7-11.9,1
		C1232.1,472.1,1231.3,473.1,1230.7,472.9z M1209.9,472.1c1.4,0.2,2.4-0.3,3.4-1.6C1211.5,470,1210.8,471.4,1209.9,472.1z
		 M1212.3,473.7c1.7-0.3,2.7-0.3,3.4-1.5C1214.2,471.6,1213.5,472.5,1212.3,473.7z"/>
	<path class="st4" d="M1156,588.9c0.7-3.3,1.4-6.3,2.1-9.3c0.1-0.2,0.2-0.6,0.3-0.7c3.3-1.5,2.8-4.4,2.5-7.2
		c-0.5-5.9,2-11.3,3.1-16.9c1-5.3,2.6-10.5,3.7-15.8c0.3-1.5,0.8-1.6,2-1c5.6,3.1,11.3,6.2,16.9,9.4c1.1,0.6,1.5,1.2,1,2.6
		c-5.3,14.7-10.5,29.4-15.7,44.2c-0.5,1.4-0.7,1.8-2.3,1.1c-4-1.9-8.1-3.4-12.2-5.2C1156.7,589.9,1155.6,589.8,1156,588.9z"/>
	<path class="st4" d="M1214.4,574c-0.7,3-1.6,5.6-2,8.4c-0.3,2-2.5,1.6-3.1,3.2c-0.7,1.8,1.9,2.2,1.3,4.3
		c-2.3,8.7-4.2,17.6-6.4,26.3c-0.3,1.3,0.7,3.6-1.2,3.9c-1.1,0.2-2.5-1.2-3.8-1.8c-3.5-1.7-6.9-3.4-10.4-5c-1.3-0.6-1.6-1.4-1.4-2.8
		c1-6.5,1.8-13.1,2.8-19.6c1.1-7.1,2.4-14.2,3.6-21.3c0.3-1.8,0.7-3.7,1-5.5c0.3-1.6,0.7-2.2,2.4-1.2c5.3,3.2,10.7,6.3,16.1,9.3
		C1214.4,572.8,1214.5,573.4,1214.4,574z"/>
	<path class="st5" d="M1060,446.7c13.4-10.3,21.8-23.8,24.6-40.4c2.9-16.5-0.3-32-9.4-46.7c4.5,1.3,8.2,3.1,11.8,4.8
		c3.8,1.8,7.5,3.7,11.2,5.6c0.6,0.3,1.2,1.2,2,0.6c0.9-0.7,0.1-1.6-0.2-2.3c-3-7.5-6.6-14.7-10.8-21.6c-0.3-0.5-0.6-1-1-1.5
		c-0.2-0.4-0.4-0.9,0.1-1.1c0.2-0.1,0.6,0.1,0.9,0.2c0.9,0.4,1.3,1.3,1.8,2.1c6.7,10.6,11.4,22,13.1,34.5c0.2,1.4,0.2,2.7,0.7,4
		c1.5,4.9-1.2,8.2-3.9,11.4c-2.6,3-5.8,5.6-9.7,6.5c-2.9,0.7-3.7,2.6-4.3,5.2c-2.9,12.3-8.5,23.3-17.2,32.4c-2,2.1-4.4,4-6.5,6.1
		C1062.5,447.3,1061.6,447.6,1060,446.7z"/>
	<path class="st4" d="M1234.2,539c-0.1,1.1-1,1.4-1.6,1.6c-2.5,0.9-3.7,2.6-3.8,5.4c-0.1,2.1-2,3.7-3.3,5.3
		c-3.5,4.6-7.1,9-10.6,13.7c-1.1,1.5-1.9,1.2-2.9,0.3c-4.1-3.8-8.3-7.5-12.4-11.3c-1.6-1.4-2.1-2.9-0.8-5.1
		c5.7-9.3,11.3-18.7,17.7-27.6c0.8-1.1,1.3-1.6,2.4-0.3c4.7,5.7,9.4,11.4,14.4,16.8C1233.7,538.2,1233.9,538.7,1234.2,539z"/>
	<path class="st4" d="M1209.7,627.9c0.5-3.6,1.2-6.5,1.5-9.6c0.7-5.8,1.7-11.5,2.7-17.3c1.2-7.1,2.4-14.2,3.6-21.3
		c0.3-1.7,1-1.9,2.5-1c5,3,10,5.9,15.1,8.6c1.3,0.7,1.2,1.3,0.8,2.4c-4.3,11.3-7,23.1-10.2,34.8c-0.6,2-0.9,4.1-1.3,6.2
		c-0.3,1.8-1.2,2.5-2.9,1.9c-3.3-1.1-6.6-2.2-9.9-3.4C1210.6,628.9,1209.5,628.8,1209.7,627.9z"/>
	<path class="st4" d="M1125.5,442.7c1.3-0.2,1.8-1.3,2.4-2.3c1.5-2.6,3.6-4.4,6-6c8.3-5.5,16.5-11.4,24.9-16.8
		c6-3.9,12.8-4.9,19.7-3.9c2,0.3,3.8,0.2,5.6-0.6c4.5-1.9,9.2-3,13.8-4.3c1-0.3,2-0.4,2.9,0.8c-7.6,1.7-14.9,4.1-21.8,7.6
		c-12,6.1-23.4,13.3-34.7,20.7c-13.4,8.7-26.9,17.3-41.3,24.3c-1.2,0.6-2.3,0.8-3.6,0.2c-2.9-1.2-5.7-2.3-8.8-3.5
		c8.5-3.8,16.7-7.9,24.5-12.6c0.8-0.5,1.6-0.9,2.4-1.4c1-0.7,1.9-1.3,3.3-0.5c1.5,0.8,3.3,0.1,4.1-1.1l-0.1,0
		C1125.5,443.4,1125.7,443.2,1125.5,442.7L1125.5,442.7z"/>
	<path class="st4" d="M1188.3,538.4c-0.4-0.2-0.8-0.5-1.3-0.7c-5-3.2-9.9-6.3-14.9-9.5c-2.4-1.5-2.4-2.1-0.9-4.6
		c5.3-8.9,11-17.5,17.2-25.8c1.1-1.4,1.6-1.6,3.1-0.4c4.5,3.7,9.1,7.2,13.8,10.7c1.8,1.3,1.8,2.3,0.5,4c-1.8,2.4-3.6,4.8-4.8,7.5
		c-1,2.2-3.5,2-4.4,4c-0.1,0.3-0.8,0.6-0.4,0.9c1.7,1.3,0.3,2.2-0.3,3.1c-2,3.2-4,6.5-6.1,9.6
		C1189.4,537.7,1189.3,538.5,1188.3,538.4z"/>
	<path class="st5" d="M957.9,344.1c-2.1,4.2-4.6,8.1-6.6,12.4c-1.8,3.9-3.9,7.7-5.4,11.8c-0.3,0.8-1,1.7-0.3,2.4
		c0.8,0.8,1.5-0.2,2.2-0.6c6.9-3.7,13.9-7.1,21.2-9.9c0.5-0.2,0.9-0.3,1.6-0.1c-3.6,6-6.4,12.2-8.1,18.9c-2.2,8.8-2.8,17.6-1.1,26.6
		c0.2,0.9,1,2.5-0.4,2.8c-1,0.2-2.4-0.6-2.5-2.3c-0.1-1.8-1.3-2.4-2.9-2.9c-6.2-2.1-10.9-6.1-14-12c-1.7-3.3-0.5-6.6,0-9.8
		c1.7-11.4,5.5-22.1,11.4-32C954.3,347.3,955,344.7,957.9,344.1z"/>
	<path class="st4" d="M1130.6,505.9c6.2,5.1,12.2,10.1,18.3,15.1c0.9,0.7,0.5,1.3,0.2,2c-4.5,10.8-9,21.5-13.5,32.3
		c-0.5,1.2-0.9,1.8-2.2,0.8c-2.7-1.9-5.5-3.6-8.3-5.3c-1-0.6-1.2-1.3-1-2.3c1.3-8,2.6-16.1,3.8-24.1
		C1128.8,518.3,1129.7,512.3,1130.6,505.9z"/>
	<path class="st4" d="M1239.4,545c0.2,0.2,0.6,0.4,0.9,0.7c3.6,4.6,8.1,8.3,12.3,12.4c0.7,0.7,1.6,1.1,0.7,2.4
		c-4.8,6.9-9.4,13.9-14,20.9c-1.1,1.6-1.7,2.1-3.4,0.5c-4.1-3.7-8.4-7-12.6-10.6c-2.6-2.2-2.5-2.4-0.6-5.2
		c4.7-6.8,9.5-13.7,15.1-19.7C1238.1,545.9,1238.5,545.2,1239.4,545z"/>
	<path class="st4" d="M1314.1,546.1c3.3-2.8,6.5-5.6,9.7-8.3c1.7-1.4,2.2-4.4,0.8-6.2c-19-25.6-38-51.1-57-76.7
		c-1.9-2.5-3.8-5-5.6-7.5c-1.1-1.6-2.1-1.9-3.8-0.6c-4.9,3.8-9.9,7.5-14.9,11.2c-0.5,0.4-1,1.2-1.7,0.4c-0.6-0.8,0.2-1.2,0.7-1.6
		c5.4-4.1,10.7-8.2,16.1-12.2c2.3-1.7,3.7-1.4,5.4,0.9c14.8,19.6,29.5,39.2,44.3,58.8c6.6,8.7,13.1,17.5,19.6,26.2
		c2,2.7,1.8,5.3-0.7,7.4c-3.2,2.7-6.5,5.4-9.7,8.1C1316.5,547,1315.4,547.5,1314.1,546.1z"/>
	<path class="st4" d="M1084.8,456.2c2.4-1.4,5-2.3,7.5-3.3c10.1-4.1,19.2-10.1,28.5-15.8c7.5-4.5,14.9-9.1,21.9-14.4
		c6.4-4.8,12.7-9.7,19.4-14c3.9-2.5,7.6-5.1,11.7-7.4c3-1.6,5.7-3,8.5,0.1c-6.4,3-12.6,6.9-18.7,10.9c-12.1,8.1-24.2,16.2-36.3,24.2
		c-11.9,7.9-24.3,14.9-37.4,20.5C1087.8,458,1087.8,458,1084.8,456.2z"/>
	<path class="st4" d="M941,373.7c-1.6,8.9-2.8,17.2-2.5,26c-7.5-2.9-14.6-5.6-22.1-8.5C923.9,384.4,931.8,378.7,941,373.7z"/>
	<path class="st5" d="M1273.2,482.4c0,2.7-1.7,4.8-4.3,5.4c-2.4,0.5-4.7,2-7.3,0.7c-0.4-0.2-1-0.1-1.3-0.7c-1.6-3.2-3.2-6.4-4.7-9.6
		c-0.4-0.9,0.3-0.9,0.9-1c3.6-0.4,7.1-0.8,10.7-1.1C1270.2,475.8,1273.2,479.2,1273.2,482.4z"/>
	<path class="st5" d="M1288.2,499.7c0,2.7-1.5,4.7-4.1,5.1c-1.9,0.3-4.1,2-5.7,1c-1.5-0.9-2.1-3.3-3.1-5.1c-2.9-5-2.9-5,2.5-5.9
		c1.1-0.2,2.1-0.5,3.1-0.8C1284.7,493,1288.2,495.7,1288.2,499.7z"/>
	<path class="st5" d="M1296.4,519.3c1.6-0.6,2.7-1.1,3.9-1.5c3-1.1,6-0.2,8,2.3c1.6,2,1.7,5.4,0.2,7.9c-1,1.8-3.6,2-4.9,0.4
		C1301.2,525.5,1298.9,522.5,1296.4,519.3z"/>
	<path class="st5" d="M1250.9,461.9c2.3-0.3,4.1,0.6,5.3,2.6c1.3,2.1,0.2,4.1-0.5,6c-0.6,1.6-2.2,1.7-3.5,0.3
		c-0.7-0.7-1.3-0.4-2.1-0.3c-3.7,0.5-7.6-3.7-6.8-7.2c0.1-0.5,0.4-0.6,0.9-0.7C1246.4,462.4,1248.7,462.2,1250.9,461.9z"/>
	<path class="st3" d="M1302.1,512.9c6.6-0.3,12.3,3.8,13,11.6c0.4,4.2-1.2,8-4.7,10.7c-0.5,0.4-1.3,1.3-1.9,0.4
		c-0.6-0.8,0.2-1.4,0.8-1.8c4.4-3.3,5.7-10.6,1.7-15.7c-2.3-3-7.7-4.8-11.8-3.6c-0.5,0.1-1,0.3-1.4,0.4c-0.3,0.1-0.7,0-0.8-0.4
		c-0.2-0.5,0.1-0.7,0.6-0.9C1299,512.8,1300.6,513,1302.1,512.9z"/>
	<path class="st3" d="M1281.9,488.5c3.6-0.4,7.5,2.3,9.4,6.7c1.9,4.2,1.1,9.4-1.9,12c-0.4,0.4-1,1-1.5,0.5c-0.6-0.6,0-1.1,0.4-1.5
		c5.6-6.2,1.3-14.6-4.9-16.5C1282.8,489.5,1282.1,489.5,1281.9,488.5z"/>
	<path class="st3" d="M1266.9,471.4c0.4-1,1.1-0.7,1.9-0.6c8,2.1,11.8,12,7.4,18.9c-0.4,0.6-0.8,1.4-1.5,1c-0.8-0.4-0.3-1.2,0-1.8
		c3.8-8,1.5-13.8-6.7-17C1267.5,471.9,1267,472,1266.9,471.4z"/>
	<path class="st3" d="M1261.8,467.7c0.2,1.8-0.7,3.5-2,5c-0.4,0.4-0.9,1-1.5,0.5c-0.7-0.5-0.1-1,0.3-1.5c1.9-2.3,2.6-4.8,1.2-7.5
		c-1.6-3.1-4-5.1-7.7-5.2c-0.8,0-2.3,0.6-2.3-0.5c0-1.3,1.6-0.8,2.4-0.8C1257.5,457.8,1261.8,462.1,1261.8,467.7z"/>
	<path class="st3" d="M1206.6,502.5c-0.2,1,0.2,2-0.6,2.1c-1.1,0.2-0.9-1.1-1.1-1.6c-0.5-2.6-1.8-4.7-3.6-6.6
		c-0.8-0.9-1.6-1.7-3-1.6c-0.6,0-1.3-0.1-1.1-0.9c0.1-0.6,0.7-1,1.3-0.9c0.6,0.1,1.3,0.3,1.8,0.7
		C1203.7,495.9,1205.5,499.1,1206.6,502.5z"/>
	<path class="st3" d="M1224.4,522.5c1.1-0.6,1.9-0.1,2.6,0.5c2.9,2.7,5.1,5.8,6.5,9.5c0.2,0.5,0.9,1.1,0,1.5c-0.7,0.3-1-0.4-1.3-0.9
		c-1.3-2.1-2.8-4.2-4-6.5C1227.4,524.9,1225.2,524.3,1224.4,522.5z"/>
	<path class="st3" d="M1264.3,572.6c-0.3,0.4-0.4,0.8-0.6,0.9c-0.2,0.1-0.8,0-0.9-0.2c-1.9-3.4-3.8-6.8-5.7-10.2
		c-0.1-0.2,0-0.8,0.2-0.9c0.6-0.3,0.9,0.2,1.2,0.6c1.4,2.2,2.7,4.5,4,6.7C1263.2,570.5,1263.7,571.5,1264.3,572.6z"/>
	<path class="st3" d="M1139.2,505.3c1.3,3.9,3.6,6.8,7.6,7.7c0.5,0.1,1.1,0.5,0.8,1.3c-0.2,0.5-0.6,0.5-1,0.5
		c-2.9-0.1-7.9-4.8-8.3-7.8C1138.3,506.5,1138.2,505.8,1139.2,505.3z"/>
	<path class="st3" d="M1185.3,475.7c-0.2,0.6,0.1,1.8-0.7,1.9c-1.2,0.1-0.6-1.1-0.8-1.7c-0.6-2.6-1.8-4.7-4.2-6.1
		c-0.5-0.3-1.7-0.1-1.1-1.1c0.4-0.7,1.3-0.5,2.1-0.2C1182.7,469.4,1185.3,473.3,1185.3,475.7z"/>
	<path class="st3" d="M1185.1,543c-3-0.6-5.6-2.4-8-4.4c-0.3-0.3-0.5-0.7-0.2-1.1c0.5-0.6,0.9-0.1,1.2,0.2c2.2,1.8,4.7,3.2,7.5,4
		c0.5,0.1,1.4-0.1,1.3,0.8C1186.7,543.2,1185.9,542.9,1185.1,543z"/>
	<path class="st3" d="M1247.7,593.2c-0.2,0.6-0.6,1-1.1,0.7c-2.2-1.3-4.3-2.6-6.4-4c-0.3-0.2-0.4-0.5-0.3-0.9
		c0.2-0.4,0.5-0.6,0.8-0.4c2.3,1.3,4.5,2.6,6.7,3.9C1247.6,592.7,1247.6,593,1247.7,593.2z"/>
	<path class="st3" d="M935.1,338.5c0.8-3.1,2.1-4.9,5-5c0.5,0,1.1-0.2,1.3,0.5c0.2,0.7-0.4,0.8-0.8,1.1
		C938.9,336.2,937.2,337.2,935.1,338.5z"/>
	<path class="st3" d="M1211.4,457.6c2-1,3.8-1.1,5.6-1c0.6,0,1.5-0.3,1.5,0.8c0,0.7-0.6,1.1-1.4,1.2
		C1215.2,458.6,1213.4,458.6,1211.4,457.6z"/>
	<path class="st3" d="M1111,338.4c-2.1-1.3-3.8-2.4-5.5-3.5c-0.3-0.2-0.9-0.3-0.8-0.9c0.1-0.6,0.7-0.6,1.2-0.6
		C1108.1,333.4,1109.8,334.9,1111,338.4z"/>
	<path class="st3" d="M1125,443.2c-1.4,0-2.7,0-4.8,0c2.3-1.5,3.9-2.9,6.2-3.6c-0.3,1.4-1.5,2-1,3.1c0,0,0-0.1,0-0.1
		C1125,442.5,1124.7,442.5,1125,443.2L1125,443.2z"/>
	<path class="st5" d="M1058,432.9c1.8,0.5,2.5,2.2,3.7,3.4c0.2,0.3,0.2,0.7-0.2,0.8c-0.2,0.1-0.7-0.1-0.9-0.3
		C1059.4,435.8,1058.5,434.5,1058,432.9z"/>
	<path class="st3" d="M1163.5,373.8c-0.6-0.2-0.9-0.6-0.5-1.1c0.9-1.1,1.6-2.4,3-2.9c0.3-0.1,0.7,0.3,0.6,0.6c-0.6,1.5-2,2.2-3,3.4
		C1163.6,373.8,1163.6,373.8,1163.5,373.8z"/>
	<path class="st3" d="M886.6,371.8c-0.1,0.5-0.7,0.6-0.9,0.3c-1-1-2-2-3-3.1c-0.3-0.3-0.3-0.8,0.3-0.9
		C883.7,367.9,886.8,371,886.6,371.8z"/>
	<path class="st3" d="M1163.7,368.2c-0.6,1.5-1.6,2.7-2.8,3.7c-0.2,0.2-0.6,0.2-0.9,0.2c-0.1,0-0.3-0.4-0.3-0.6
		C1159.7,370.5,1162.4,368.2,1163.7,368.2z"/>
	<path class="st3" d="M1230.7,472.9c0.5,0.1,1.3-0.8,1.6,0.4c-1,0.9,0.8,0.7,0.5,1.4c-1.2,0.2-2.5,0.5-3.8,0.7
		C1229.1,474.2,1230.2,473.7,1230.7,472.9z"/>
	<path class="st3" d="M1261.3,524.6c-0.9,1.7-2.4,2.5-3.9,3.4c-0.4,0.2-0.7,0.5-1-0.1c-0.5-0.7,0.2-0.9,0.6-1.1
		C1258.4,526.1,1259.9,525.4,1261.3,524.6z"/>
	<path class="st3" d="M1330.2,533.2c1.8,0.8,2.7,2,3.8,3.2C1331.1,537.2,1330.6,535.6,1330.2,533.2z"/>
	<path class="st3" d="M882.5,374c-0.9-1-1.8-2-2.6-3.1c-0.2-0.2-0.1-0.7,0-0.9c0.2-0.4,0.6-0.3,0.8-0.1c1,1.1,2.4,2,2.5,3.7
		C883,373.7,882.7,373.9,882.5,374z"/>
	<path class="st3" d="M1200.1,559.5c1.4,0.7,2.3,1.8,3.1,3c0.2,0.2,0.5,0.6,0.1,0.9c-0.3,0.2-0.7,0.2-0.9-0.1
		C1201.4,562.2,1199.9,561.5,1200.1,559.5z"/>
	<path class="st3" d="M1321.1,379.2c1.5-0.7,3.1-0.4,4.6-0.2C1324.3,380.5,1322.7,380.2,1321.1,379.2z"/>
	<path class="st3" d="M1328.5,378.5c1.4-0.4,2.9-0.3,4.3-0.1C1331.3,379.3,1329.9,380.1,1328.5,378.5z"/>
	<path class="st3" d="M1217.2,388.6c0.3-0.5,0.8-0.6,1.3-0.3c0.3,0.7-0.1,0.9-0.6,1C1217.2,389.6,1217.3,389,1217.2,388.6z"/>
	<path class="st4" d="M1268.8,448.4c0,0.6-0.3,0.7-0.7,0.4c-0.1-0.1-0.1-0.3-0.2-0.4C1268.1,448.5,1268.4,448.5,1268.8,448.4
		C1268.8,448.5,1268.8,448.4,1268.8,448.4z"/>
	<path class="st3" d="M1262.5,524.6c-0.1,0.1-0.1,0.1-0.2,0.2c-0.1-0.1-0.1-0.2-0.2-0.3c0,0,0.1-0.1,0.2-0.2
		C1262.4,524.4,1262.5,524.5,1262.5,524.6z"/>
	<path class="st3" d="M1119.9,96.8c2.7-0.6,4.8,1.6,6.6,1.4c-1.6-0.8-4.2,0.5-6.6-0.9C1119.8,97.2,1119.8,97,1119.9,96.8z"/>
	<path class="st3" d="M1101.7,96.8c-2.6,0-5.2,0.5-7.8-0.3C1096.5,96.4,1099.1,95.9,1101.7,96.8z"/>
	<path class="st3" d="M1117.3,97.3c-0.8,0.2-1.6,0.3-2.2-0.4C1115.9,96.7,1116.7,96.7,1117.3,97.3z"/>
	<path class="st5" d="M1321.4,115.7c0.1,0.7-0.3,0.9-0.7,1.1c-5.8,3.5-9,9-11.3,15.2c-0.2,0.4-0.4,0.8-0.5,1.2
		c-0.2,0.6-0.5,1.2-1.2,1.1c-0.8,0-1.1-0.6-1.2-1.4c-0.7-3-1.3-6-3.1-8.5c-2-2.8-4.3-5.2-7-7.2c-1.9-1.4-1.8-2,0.3-3
		c4.9-2.5,7.9-6.7,9.8-11.8c0.2-0.6,0.4-1.3,0.6-1.9c0.3-0.8,0.9-1.3,1.7-1.3c0.7,0,1,0.7,1.3,1.4c1.6,3.5,2.8,7.1,5.4,10
		c1.4,1.6,2.9,3.1,4.7,4.2C1320.7,115,1321.1,115.4,1321.4,115.7z"/>
	<path class="st4" d="M1201.4,105.2c-1.8-1.6-1.9-3.9-3.2-5.6c-1.3-1.9-2.5-3.9-4.4-5.2c-0.6-0.4-1.2-1.1-0.3-1.6
		c3.4-1.9,4.6-5.5,6.4-8.6c0.3-0.5,0.4-1.2,1.1-1.2c0.8,0,0.9,0.9,1.1,1.5c1.3,2.9,2.7,5.7,5.1,7.8c0.7,0.6,1.4,1.5,0.3,2.3
		c-2.9,2.3-4.4,5.5-5.4,8.9C1202,104,1201.7,104.5,1201.4,105.2z"/>
	<path class="st3" d="M1329.7,153.5c0.8,2,0.5,4.2,1.5,6c0.4,0.7,0.7,1.6,1.1,2.3c0.7,1.3,2.6,2,2.5,3.7c-0.2,1.5-1.9,2.3-2.7,3.6
		c-1.2,1.8-2.1,3.7-2.6,5.7c-0.1,0.6-0.2,1.5-1.2,1.4c-0.9-0.1-0.9-0.8-1-1.5c-0.5-3.4-1.9-6.3-4.3-8.7c-0.6-0.6-1.3-1.4-0.3-2.1
		c3.1-2.1,4.2-5.4,5.6-8.6C1328.5,154.7,1328.7,154,1329.7,153.5z M1328.4,171.8c1.3-2.2,2.2-4.2,3.8-5.7c0.5-0.4,0.5-0.8,0-1.3
		c-1.7-1.7-2.3-4-3.2-6.2c-1.3,2-2.3,4-4,5.4c-0.7,0.6-0.6,1-0.1,1.6C1326.2,167.4,1327.5,169.3,1328.4,171.8z"/>
	<path class="st4" d="M1253,107.3c0-2.4,1.6-4,3.9-4c2.2,0,4.1,2,4.1,4c-0.1,1.9-2.2,4.1-4.2,4.2
		C1254.9,111.6,1253,109.5,1253,107.3z M1256.8,105c-1.3,0.1-2.1,0.7-2.2,2c-0.1,1.6,0.8,2.5,2.2,2.6c1.1,0,2-0.8,2-2.2
		C1258.8,106.1,1258.1,105.3,1256.8,105z"/>
	<path class="st1" d="M1242.4,140.8c-0.6,0-1-0.3-1.4-0.7C1241.7,139.9,1242.3,140,1242.4,140.8z"/>
	<path class="st5" d="M1240,360.7c-0.7-0.2-0.7-0.8-0.8-1.2c-0.7-2.6-1.4-5.2-2.2-7.8c-1.6-5-4.1-9.4-8.6-12.2
		c-1.5-0.9-1.4-1.7,0.2-2.5c6.3-3.1,10.2-8.4,12.5-15c0.1-0.2,0.1-0.3,0.1-0.5c0.5-1.1,0.9-2.6,2.1-2.5c1.1,0.1,0.9,1.7,1,2.6
		c0.4,5.2,3.2,9.2,6.3,13.1c1.1,1.3,2.4,2.3,3.9,3.1c1.2,0.7,1.4,1.6,0.1,2.5c-6.4,4.8-10.2,11.4-13.3,18.6
		C1241,359.5,1241.1,360.6,1240,360.7z"/>
	<path class="st1" d="M1334.5,528.1c-0.3-1.2,0.3-1.3,1-0.7c1.1,0.8,2,1.7,2.7,3c-0.6,0.5-2-0.4-1.9,1.2c0,0.7-0.8,0.4-1.2,0.1
		c-0.8-0.6-1.5-1.4-2.2-2.1c-0.3-0.3-1-0.6-0.5-1.2c0.6-0.7,1,0.1,1.5,0.3c0.2,0.2,0.3,0.5,0.5,0.6c0.5,0.3,0.9,1.4,1.6,0.5
		c0.5-0.6-0.4-1-0.8-1.4C1335,528.3,1334.7,528.2,1334.5,528.1z"/>
	<path class="st1" d="M1351.6,556.6c0.7,0.5,0.8,1.5,1.1,2.3c0.1,0.4,0,1.1-0.5,0.9c-1.1-0.4-0.8-1.6-1.2-2.5
		C1350.8,557,1351,556.6,1351.6,556.6z"/>
	<path class="st1" d="M1048,236c1-0.1,1.1,0.4,1.2,0.9c1.1,3.7,3.6,6.5,6.1,9.2c1.2,1.3,1.8,1.9-0.1,3.4c-3.1,2.4-4.7,6.1-6.1,9.8
		c-0.2,0.5,0,1.2-0.9,1.3c-1,0.1-1.2-0.7-1.3-1.3c-0.8-4.5-3.5-7.6-7-10.1c-0.8-0.6-1-1.3-0.1-1.9c3.6-2.3,5.1-6.2,6.9-9.8
		C1047.2,237,1047.4,236.1,1048,236z"/>
	<path class="st5" d="M1149.8,136.8c2.9,0,4.9,2,4.9,4.9c0,3-1.9,5-4.8,5c-2.6,0-5.2-2.4-5.1-4.9
		C1144.8,139.3,1147.3,136.8,1149.8,136.8z"/>
	<path class="st1" d="M904,175.2c-0.2,0.2-0.4,0.6-0.7,0.9c-2.6,2.8-4.6,6.1-6,9.6c-0.2,0.6-0.3,1.5-1.2,1.4
		c-0.7-0.1-1.4-0.5-1.7-1.4c-1.5-3.9-3.4-7.6-6.2-10.7c-0.5-0.5-0.5-1,0.1-1.4c3.4-2.4,5.1-5.9,6.6-9.6c0.3-0.7,0.5-1.9,1.5-1.8
		c0.9,0.1,0.9,1.2,1.2,2c1.3,3.5,3.1,6.6,5.4,9.4C903.4,174,903.9,174.3,904,175.2z"/>
	<path class="st1" d="M945.9,314.5c-1.3,1.1-2.6,2.3-3.9,3.4c-0.3,0.2-0.6,0.4-0.9,0.2c-0.4-0.4-0.2-0.8,0.1-1.1
		c1.2-1.3,2.4-2.5,4-3.3C945.4,314,945.6,314.2,945.9,314.5z"/>
	<path class="st1" d="M948.2,314.6c-0.9,2.4-2.4,3.3-4,5C944.6,316.8,946,315.9,948.2,314.6z"/>
	<path class="st1" d="M1081.9,308.2c-0.4,0.8-1.2,1-1.9,1.4c-0.4,0.3-0.9,0-0.8-0.5c0.2-0.9,1.2-1.1,1.9-1.4
		C1081.5,307.5,1081.8,307.7,1081.9,308.2z"/>
	<path class="st1" d="M989.2,392.5c-0.4-14.5,8.7-26.5,20.7-31.4c4.8-2,9.7-3.4,14.8-3c14.6,1.4,29,11.3,32,28.6
		c2.9,16.8-8.5,34.9-26.1,38.1c-18,3.3-35.1-4.9-40.5-24.3C989.3,397.7,989,394.9,989.2,392.5z M1023,423.2c2.7-0.2,5.3,0.1,8-0.5
		c22.1-4.8,31.6-30.9,18.6-49.2c-8.4-11.9-22.5-15.8-36.8-11.9c-16.6,4.6-25.7,22.7-21,39.4C995.3,412.7,1007.8,424.5,1023,423.2z"
		/>
	<path class="st1" d="M1158.7,478.8c-1.2,1.1-2.7,0.7-3.8,1.3c-0.2,0.1-0.7-0.1-0.7-0.5c-0.1-0.5,0.3-0.5,0.6-0.6
		C1156,478.4,1157.2,478.1,1158.7,478.8z"/>
	<path class="st1" d="M1155.9,480.7c0.5,0.1,1.4-0.3,1.4,0.5c0,1.2-1.1,0.6-1.7,0.7c-0.5,0-1.4,0.4-1.3-0.5
		C1154.3,480.5,1155.2,480.7,1155.9,480.7z"/>
	<path class="st1" d="M1209.9,472.1c1-0.7,1.6-2.1,3.4-1.6C1212.3,471.7,1211.3,472.3,1209.9,472.1z"/>
	<path class="st1" d="M1212.3,473.7c1.2-1.2,1.9-2.1,3.4-1.5C1215,473.3,1214,473.4,1212.3,473.7z"/>
	<path class="st1" d="M1125,443.2c-0.3-0.6,0.1-0.6,0.5-0.6C1125.7,443.2,1125.5,443.4,1125,443.2z"/>
	<path class="st1" d="M1328.4,171.8c-0.9-2.6-2.1-4.5-3.5-6.2c-0.5-0.7-0.6-1.1,0.1-1.6c1.7-1.4,2.7-3.4,4-5.4
		c0.9,2.3,1.6,4.6,3.2,6.2c0.5,0.5,0.4,0.8,0,1.3C1330.5,167.6,1329.7,169.7,1328.4,171.8z"/>
	<path class="st1" d="M1256.8,105c1.3,0.3,2,1,2,2.5c0,1.4-0.9,2.2-2,2.2c-1.4,0-2.3-1-2.2-2.6
		C1254.7,105.8,1255.5,105.1,1256.8,105z"/>
	<path class="st4" d="M1334.5,528.1c0.2,0.1,0.5,0.2,0.6,0.4c0.3,0.4,1.3,0.8,0.8,1.4c-0.7,0.9-1.1-0.2-1.6-0.5
		c-0.2-0.1-0.3-0.4-0.5-0.6C1334.1,528.5,1334.3,528.3,1334.5,528.1z"/>
	<path class="st5" d="M1023,423.2c-15.3,1.3-27.8-10.5-31.1-22.1c-4.8-16.7,4.4-34.8,21-39.4c14.3-4,28.3-0.1,36.8,11.9
		c12.9,18.3,3.5,44.4-18.6,49.2C1028.3,423.3,1025.7,423,1023,423.2z M1023,378.6c6,0,10.7,4,12.6,10.4c0.4,1.4-0.8,3.7,0.9,3.9
		c1.2,0.2,2.6-1.7,4-2.4c2.6-1.2,2.8-3.3,2.1-5.5c-3-10.6-10.9-15.6-20.7-15.2c-7.8,0.4-14.1,4.3-17.4,12.1
		c-2.5,5.9-2.4,6.4,2.8,9.7c0.3,0.2,0.6,0.4,0.8,0.6c1.7,1.4,2.3,0.9,2.3-1.3C1010.7,384.3,1016.4,378.7,1023,378.6z M1023.3,380.8
		c-6.3-0.1-11.4,4.7-11.5,11c-0.1,6,5,11.3,10.9,11.5c5.9,0.1,11-4.7,11.4-10.3C1034.7,386.3,1029.6,380.5,1023.3,380.8z
		 M1022.1,406.2c7.1,0,13.1-4.3,15.1-9.8c0.3-0.8,0.7-1.5-0.4-1.8c-1.1-0.3-1.4,0.1-1.6,1.2c-0.5,3.1-2.4,5.3-4.9,7
		c-7.5,5-17.5,0.5-19.2-6.4c-0.2-0.9-0.3-2.4-1.7-1.8c-1.1,0.5-0.4,1.6,0,2.4C1012.2,402.9,1016.9,405.8,1022.1,406.2z"/>
	<path class="st1" d="M1023,378.6c-6.6,0-12.3,5.7-12.5,12.4c-0.1,2.2-0.6,2.6-2.3,1.3c-0.3-0.2-0.5-0.4-0.8-0.6
		c-5.2-3.4-5.3-3.9-2.8-9.7c3.3-7.8,9.6-11.7,17.4-12.1c9.8-0.5,17.7,4.6,20.7,15.2c0.6,2.2,0.4,4.3-2.1,5.5c-1.4,0.7-2.8,2.5-4,2.4
		c-1.8-0.3-0.5-2.5-0.9-3.9C1033.7,382.6,1029,378.6,1023,378.6z"/>
	<path class="st2" d="M1023.3,380.8c6.3-0.3,11.5,5.5,10.9,12.2c-0.5,5.5-5.6,10.4-11.4,10.3c-5.9-0.1-11-5.5-10.9-11.5
		C1011.9,385.5,1017,380.6,1023.3,380.8z"/>
	<path class="st1" d="M1022.1,406.2c-5.2-0.4-9.9-3.3-12.8-9.1c-0.4-0.8-1.1-1.9,0-2.4c1.4-0.6,1.5,0.8,1.7,1.8
		c1.7,6.9,11.6,11.4,19.2,6.4c2.5-1.7,4.5-3.9,4.9-7c0.2-1.1,0.6-1.6,1.6-1.2c1.1,0.4,0.7,1.1,0.4,1.8
		C1035.2,401.9,1029.2,406.2,1022.1,406.2z"/>
</g>
<g>
	<path d="M1358,8v752H8V8H1358 M1366,0H0v768h1366V0L1366,0z"/>
</g>
<g>
	<line class="st6" x1="0" y1="66" x2="1366" y2="66"/>
</g>
<g>
	<path d="M335,70v327H8V70H335 M343,62H0v343h343V62L343,62z"/>
</g>
<g>
	<rect x="340" y="66" class="st7" width="335" height="335"/>
	<path d="M671,70v327H344V70H671 M679,62H336v343h343V62L679,62z"/>
</g>
<g>
	<path d="M1358,70v690H679V70H1358 M1366,62H671v706h695V62L1366,62z"/>
</g>
<g>
	<path class="st8" d="M169.6,238.5c-0.2,0-0.4,0-0.6,0c-0.3,0.4-0.5,0.8-0.8,1.2c-5.4,5.4-10.7,10.7-16.1,16.1c-0.8,0.8-1.5,1-2.6,1
		c-23.4,0-46.8,0-70.2,0c-11.4,0-20.3,8.7-20.3,20c0,15.6,0,31.3,0,46.9c0,3.6,0.9,7.1,2.8,10.2c4.1,6.7,10.2,9.8,17.9,9.8
		c60.2,0,120.4,0,180.6,0c1,0,1.9,0,2.9-0.1c10.6-0.6,18.8-9.2,18.8-19.8c0-15.8,0-31.5,0-47.3c0-2-0.3-4-0.9-5.9
		c-2.6-8.5-10.3-13.9-19.4-13.9c-24.3,0-48.7,0-73,0c-0.9,0-1.5-0.2-2.1-0.9c-5.4-5.4-10.8-10.9-16.3-16.3
		C170.1,239.4,169.9,238.9,169.6,238.5z M148.7,193.4c-27.9,0-55.5,0-83.2,0c0,1.2,0,2.3,0,3.5c0,13.9,0,27.9,0,41.8
		c0,2,0.4,2.3,2.3,2.4c5.3,0,10.6,0,15.9,0c2.8,0,5.6,0.2,8.5,0.2c0.3,0,0.6-0.2,0.8-0.3c0-0.9,0-1.7,0-2.5
		c0.1-4.8,0.2-9.6,0.2-14.4c0-7,0-13.9,0-20.9c0-3.9,2.3-6.4,6.1-6.7c1.3-0.1,2.7-0.1,4-0.1c11.2,0,22.4-0.1,33.6,0.1
		c4.2,0.1,6.5,2.5,7.1,6.4c0.4,2.6,0.5,5.3,0.5,7.9c0.1,9.3,0,18.6,0,27.9c0,0.5,0.1,1.1,0.3,1.6c0.5,0.9,1.4,1.2,2.3,0.8
		c0.9-0.4,1.8-0.8,1.8-2.2c-0.1-4.9-0.1-9.8,0-14.6c0.1-3.5,1.2-5.9,5-5.8c0.8,0,1.6,0,2.5,0c0-4.2,0-8.4,0-12.7c-1.2,0-2.4,0-3.6,0
		c-1.5,0.1-2.7-0.6-3.3-2c-0.5-1.2-0.8-2.5-0.9-3.8C148.5,197.8,148.7,195.7,148.7,193.4z M93.1,190.6c0-0.7,0-1.2,0-1.7
		c0-10.9-0.1-21.7,0-32.6c0-4.6,2.1-7.1,7-7.1c13.1,0,26.2,0,39.3,0c1.3,0,2.4,0.5,3.3,1.3c1.9,1.6,1.9,3.9,1.9,6.1
		c0.1,10.6,0,21.3,0,31.9c0,0.4-0.1,0.9,0,1.3c0.2,0.4,0.6,0.9,1,1c0.4,0.2,0.9,0,1.4,0.1c1.1,0,1.5-0.5,1.5-1.5c0-1.7,0-3.4,0-5.1
		c0-2.2,0-4.5,0-6.8c0.4,0,0.6-0.2,0.9-0.1c1.6,0.5,2.1-0.5,2.4-1.7c0.9-3.6,1.1-7.2,0.2-10.8c-0.7-2.7-0.6-2.6-3.1-2.5
		c-0.2,0-0.4-0.1-0.6-0.2c0-2.6-0.1-5.2,0-7.8c0.1-1.6-0.3-3-1-4.4c-1.9-3.5-4.8-5.7-9-5.7c-7,0-14.1,0.1-21.1,0.1
		c-0.9,0-1.9-0.3-2.6-0.8c-3.3-2.6-4-6.5-1.7-10c1.4-2.1,1.5-4.3,0.4-6.6c-1.2-2.5-3.5-2.7-5.8-2.6c-3.5,0.1-6,3.7-4.8,7
		c0.4,1,1,2,1.5,2.9c0.6,1.2,1.4,2.5,0.9,3.9c-0.5,1.4-1.2,2.8-2,4c-0.7,1-1.5,2.1-2.9,2.2c-1.5,0.1-3,0.2-4.5,0.2
		c-7,0.1-14.1,0.1-21.1,0.3c-4.4,0.1-7,1.7-8.4,6.3c-0.4,1.4-0.6,3-0.6,4.5c-0.1,5.7-0.2,11.4-0.2,17.1c0,5.7,0,11.4,0,17.1
		c0,0.2,0.1,0.4,0.1,0.5C74.7,190.6,83.8,190.6,93.1,190.6z M276.3,196.6c0,0,0.1,0,0.1,0c0,10.7,0,21.4,0,32c0,1.8-0.2,3.5-0.6,5.3
		c-0.7,3.4-2.2,4.1-5,4.1c-9.3,0.2-18.6,0.2-27.8,0.2c-2.3,0-4.6,0-6.9,0c-1.7,0-3.4,0-5-0.2c-3.3-0.6-5.7-2.5-5.7-6.4
		c0-22.2,0-44.4,0-66.6c0-1.8,0.3-3.5,0.6-5.3c0.1-1-0.4-1.9-1.4-2c-1.8-0.3-2.8,0.6-2.8,2.7c0.1,16.8,0.1,33.5,0.2,50.3
		c0,7.7,0,15.4,0,23.1c0,0.7,0.2,1.4,0.5,2c2,3.7,5.2,5.3,9.4,5.3c12.9-0.1,25.8-0.1,38.7-0.1c4.1,0,7.3-2.4,8.1-6.5
		c0.4-2.2,0.7-4.4,0.7-6.6c0.1-4.4-0.2-8.9-0.2-13.3c0-19.3,0-38.7,0-58c0-2.2,0-4.4-0.3-6.6c-0.7-4.4-4.1-7.6-9.1-7.6
		c-2.9,0-5.9,0-8.8,0c-6.1,0-12.1-0.1-18.2-0.1c-1.3,0-2.1,0.6-2.1,1.8c0,1.1,0.7,1.6,2,1.6c9.2,0,18.3,0,27.5,0
		c2.4,0,4.6,1.3,5.2,3.3c0.3,1.1,0.5,2.3,0.5,3.5c0.1,4.7,0.2,9.5,0.2,14.2C276.3,176.7,276.3,186.7,276.3,196.6z M231.8,194.8
		C231.8,194.8,231.8,194.8,231.8,194.8c-0.1-0.8-0.1-1.6-0.1-2.4c0-10.9,0-21.9,0-32.8c0-1.4-1.1-2.6-2.3-2.5
		c-1.3,0.1-1.9,1.2-1.7,2.7c0.1,0.7,0.3,1.4,0.3,2.1c0.1,15.3,0.2,30.6,0.2,45.9c0,7.5-0.1,15-0.2,22.5c0,2.9,1.2,4.6,3.7,5.1
		c1.6,0.3,3.3,0.5,4.9,0.5c9.9,0,19.8,0,29.6,0c0.6,0,1.3,0.1,1.9,0.1c3,0.4,5.1-1.1,5.4-4.1c0.2-2.2,0.2-4.5,0.2-6.8
		c0-24,0-47.9,0-71.9c0-0.3,0-0.7,0-1c0.4-3.2-1.4-4.5-4.3-4.5c-9-0.1-18-0.1-27-0.1c-1.4,0-2.1,0.6-2.1,1.6c0,1.1,0.8,1.7,2.1,1.7
		c7.9,0.1,15.8,0.1,23.8,0.2c3,0,3.9,0.9,3.9,4c0,12.9,0.1,25.9,0.1,38.8c0,11.2,0,22.3,0,33.5c0,0.7,0,1.4-0.2,2
		c-0.5,2.5-1.7,3.5-4.2,3.5c-9.8,0-19.7,0-29.5,0c-0.8,0-1.5-0.1-2.3-0.3c-2.2-0.6-2.4-1-2.4-3.2
		C231.8,217.9,231.8,206.4,231.8,194.8z M224.8,156.4c8.6-0.1,15.2-6.6,15.3-15.2c0-8.8-6.9-15.2-15.2-15.2
		c-8.4,0-15.1,6.6-15.1,15.2C209.7,149.8,216.4,156.2,224.8,156.4z M171.5,182.5c4,0,7.8,0,11.6,0c0.2-2,0.3-2,2-2.8
		c0.6-0.3,1.2-0.6,1.7-1c5.6-3.9,6.8-9.8,6.9-16.1c0-0.7-0.5-1.1-1.3-1.1c-1.3,0-2.5,0-3.8,0c-2.3,0-1.9-0.1-1.9,1.9
		c-0.1,4-1.4,7.5-5.4,9.1c-2.8,1.2-5.7,1.6-8.4-0.3c-3.3-2.3-4.2-5.9-4.4-9.6c-0.1-1.1-0.4-1.5-1.4-1.5c-1.4,0-2.8,0-4.2,0
		c-1.5,0-2,0.4-1.8,1.9c0.2,2.3,0.3,4.7,1,7c1.1,4,3.4,7.3,7.2,9.3C170.6,180,172.2,180.4,171.5,182.5z M192,152.1
		c-0.3-0.3-0.5-0.6-0.7-0.9c-2.2-2.1-4.4-4.2-6.5-6.4c-2.1-2-4.1-4.1-6.1-6.1c-0.4-0.4-0.9-1-1.6-0.2c-4.3,4.4-8.6,8.7-12.9,13.1
		c-0.5,0.5-0.5,0.9,0,1.4c4.3,4.3,8.7,8.5,13,12.8c0.6,0.6,1.1,0.5,1.6-0.1c4.2-4.3,8.4-8.6,12.6-12.8
		C191.5,152.6,191.7,152.4,192,152.1z M136.6,190.2c0-1.8,0-3.5,0-5.1c0-1.8-1.3-3.1-3.1-3.1c-3.3-0.1-6.6-0.2-9.9-0.2
		c-6,0-12,0-17.9,0c-2.1,0-3.5,1-3.7,3c-0.2,1.8,0,3.6,0,5.4C113.4,190.2,124.9,190.2,136.6,190.2z M113,168.9c0-4.6-3.3-9.1-9-9.1
		c-5.1-0.1-9.1,3.8-9.1,9.1c0,5.3,4,9.2,9.1,9.2C109.4,178,113,173.7,113,168.9z M142.9,168.1c0.1-4.8-3.7-8.9-8.9-8.9
		c-5.1,0-8.8,4-8.9,8.9c0,5,3.9,8.9,8.9,8.9C139,177.1,142.9,173.2,142.9,168.1z M247.6,172.2c0.1,0,0.2,0,0.3,0
		c1.8,2.9,3.7,5.9,5.5,8.8c0.2,0.4,0.6,0.8,1,0.8c0.9,0.1,1.8,0,2.8,0c0-5.1,0-10,0-14.9c-1,0-2,0-3.1,0c0,3.2,0,6.3,0,9.5
		c-0.5-0.3-0.7-0.6-0.9-1c-1.6-2.6-3.2-5.2-4.8-7.8c-0.2-0.3-0.5-0.8-0.9-0.8c-0.9-0.1-1.9,0-2.8,0c0,5.1,0,10,0,14.9c1,0,2,0,3,0
		C247.6,178.5,247.6,175.3,247.6,172.2z M174.2,214.7c-3.1-3.1-6.2-6.2-9.4-9.3c-0.1-0.1-0.4-0.2-0.5-0.2c-1.3,0.2-2.5,0.5-3.9,0.7
		c0,4,0,8.1,0,12.3C165.4,218.6,170.1,218.1,174.2,214.7z M177.5,212.2c3-3.8,5.5-7.6,5.6-12.6c-3.6,0-7.1,0-10.5,0
		c-1.3,0-2.5,0-3,1.5c-0.1,0.4-0.6,0.7-0.8,1.1c-0.1,0.3-0.2,0.8-0.1,1C171.6,206.2,174.5,209.1,177.5,212.2z M254.7,211.9
		c-0.1,0.2-0.2,0.3-0.2,0.5c-0.7,2-1.6,2.8-3.3,2.8c-1.8,0-3.2-1-3.8-2.8c-0.6-1.7-0.5-3.4,0.2-5.1c0.6-1.4,1.7-2.2,3.2-2.3
		c1.5-0.1,2.7,0.6,3.4,2c0.1,0.3,0.4,0.6,0.7,0.6c0.9,0.1,1.8,0,2.6,0c-0.3-2.2-1.3-3.7-3.1-4.6c-2.7-1.4-6.3-0.9-8.4,1.2
		c-2.4,2.3-3,6.7-1.4,9.9c1.4,2.7,4.3,4.2,7.4,3.8c3.1-0.3,5.7-2.8,5.5-6C256.7,211.9,255.7,211.9,254.7,211.9z M171.4,187
		c0,2.7,0,5.3,0,7.8c0,0.3,0.5,0.7,0.9,0.8c1.1,0.1,2.2,0.2,3.3,0.2c2.4,0,4.9,0,7.5,0c0-3,0-5.8,0-8.8
		C179.3,187,175.5,187,171.4,187z M114.8,173.7c0,1.5,0,3,0,4.4c0,0.9,0.3,1.2,1.2,1.2c2.1,0,4.2,0,6.4,0c0.9,0,1.4-0.4,1.4-1.2
		c0-3,0-6,0-9c0-0.7-0.3-1.1-1.1-1.1c-2.2,0-4.5,0-6.7,0c-0.8,0-1.1,0.3-1.1,1.1C114.8,170.7,114.8,172.2,114.8,173.7z M249.3,199.7
		c0-2.1,0-4.1,0-6.1c2.1,0,4.1,0,6.2,0c0-0.9,0-1.7,0-2.6c-2.1,0-4.1,0-6.1,0c0-1.2,0-2.2,0-3.5c2.4,0,4.7,0,7.1,0c0-1,0-1.8,0-2.7
		c-3.5,0-6.9,0-10.3,0c0,5,0,9.9,0,14.9C247.2,199.7,248.2,199.7,249.3,199.7z M213.5,195.4c1.6,0,3.2,0.1,4.8,0
		c1.2-0.1,1.6-1,1.7-2c0.1-1.1-0.8-2.5-1.6-2.6c-1.6-0.1-3.2,0-4.9,0C213.5,192.3,213.5,193.7,213.5,195.4z M193.7,190.9
		c-1.6,0-3.1-0.1-4.6,0c-1,0.1-1.6,1.3-1.6,2.7c0,1,1,2.2,1.8,2.2c1.5,0,2.9-0.2,4.4-0.3C193.7,194,193.7,192.5,193.7,190.9z
		 M205.1,191c0,1.6,0,3.1,0,4.6c1.9,0,3.7,0,5.6,0c0-1.6,0-3.1,0-4.6C208.7,191,206.9,191,205.1,191z M196.5,195.5
		c1.9,0,3.8,0,5.6,0c0-1.6,0-3,0-4.5c-1.9,0-3.7,0-5.6,0C196.5,192.5,196.5,194,196.5,195.5z M176.1,133.4
		C176.1,133.4,176.1,133.4,176.1,133.4c0,0.7-0.1,1.5,0.1,2.1c0.2,0.5,0.9,1,1.5,1c0.4,0,1.3-0.6,1.3-1c0.2-1.2,0.1-2.5,0-3.8
		c-0.1-0.9-0.6-1.4-1.6-1.2c-0.9,0.1-1.4,0.5-1.3,1.5C176.2,132.5,176.1,132.9,176.1,133.4z M195.2,153.3
		C195.2,153.3,195.2,153.3,195.2,153.3c0.4,0,0.8,0,1.1,0c1,0.1,1.4-0.4,1.4-1.3c0-0.9-0.3-1.6-1.4-1.5c-0.8,0-1.5,0.1-2.3,0
		c-1.4-0.2-1.6,0.8-1.7,1.7c-0.1,1,0.8,1.1,1.6,1.1C194.4,153.3,194.8,153.3,195.2,153.3z M191.8,140.6c-0.4-0.4-0.7-1-1.2-1.2
		c-0.3-0.2-1-0.1-1.3,0.2c-0.8,0.7-1.4,1.5-2.2,2.3c-0.7,0.7-0.2,1.4,0.3,1.7c0.4,0.3,1.3,0.3,1.6,0c0.8-0.5,1.3-1.4,2-2.1
		C191.3,141.3,191.5,141,191.8,140.6z M165.3,139.8c-0.4,0.4-0.9,0.7-1.1,1.2c-0.1,0.4,0,1.1,0.3,1.4c0.6,0.7,1.3,1.2,1.9,1.8
		c0.6,0.7,1.3,0.7,1.9,0.1c0.6-0.6,0.8-1.3,0.1-2c-0.6-0.7-1.3-1.3-2-2C166.1,140.1,165.8,140,165.3,139.8z M160.2,153.3
		c0,0,0,0.1,0,0.1c0.5,0,0.9,0,1.4,0c0.9,0.1,1.2-0.4,1.3-1.2c0.1-0.8-0.2-1.1-0.9-1.2c-1.1-0.1-2.2-0.4-3.2-0.3
		c-0.5,0.1-1,0.9-1.2,1.5c-0.1,0.2,0.6,0.9,1,1.1C159,153.4,159.6,153.3,160.2,153.3z"/>
	<path d="M169.6,238.5c0.3,0.4,0.4,0.9,0.8,1.2c5.4,5.4,10.9,10.9,16.3,16.3c0.6,0.6,1.2,0.9,2.1,0.9c24.3,0,48.7,0,73,0
		c9.2,0,16.9,5.4,19.4,13.9c0.6,1.9,0.9,3.9,0.9,5.9c0.1,15.8,0,31.5,0,47.3c0,10.5-8.3,19.2-18.8,19.8c-1,0.1-1.9,0.1-2.9,0.1
		c-60.2,0-120.4,0-180.6,0c-7.8,0-13.8-3.2-17.9-9.8c-1.9-3.1-2.8-6.5-2.8-10.2c0-15.6,0-31.3,0-46.9c0-11.3,8.9-20,20.3-20
		c23.4,0,46.8,0,70.2,0c1.1,0,1.8-0.3,2.6-1c5.3-5.4,10.7-10.7,16.1-16.1c0.3-0.3,0.5-0.8,0.8-1.2
		C169.3,238.5,169.4,238.5,169.6,238.5z M169.3,243.3c-5.3,5.3-10.5,10.5-15.6,15.7c-0.8,0.8-1.5,1.1-2.7,1.1c-23.7,0-47.4,0-71.1,0
		c-10.4,0-17.6,7.2-17.6,17.6c0,15.3,0,30.5,0,45.8c0,9.6,7.2,17.1,16.9,17.1c60.9,0,121.8,0,182.7,0c9.8,0,16.9-7.4,16.9-17.2
		c0-15.6,0-31.1,0-46.7c0-3.9-1.3-7.4-3.8-10.4c-3.5-4.3-8.1-6.2-13.6-6.2c-24.6,0-49.3,0-73.9,0c-1.1,0-1.9-0.3-2.7-1.1
		C179.8,253.8,174.6,248.6,169.3,243.3z"/>
	<path d="M148.7,193.4c0,2.2-0.1,4.4,0,6.6c0.1,1.3,0.4,2.6,0.9,3.8c0.6,1.4,1.7,2,3.3,2c1.2,0,2.4,0,3.6,0c0,4.3,0,8.5,0,12.7
		c-0.9,0-1.7,0-2.5,0c-3.8,0-5,2.3-5,5.8c-0.1,4.9-0.1,9.8,0,14.6c0,1.3-0.9,1.8-1.8,2.2c-0.9,0.4-1.8,0.1-2.3-0.8
		c-0.3-0.4-0.3-1-0.3-1.6c0-9.3,0-18.6,0-27.9c0-2.6-0.1-5.3-0.5-7.9c-0.6-3.9-2.9-6.3-7.1-6.4c-11.2-0.2-22.4-0.1-33.6-0.1
		c-1.3,0-2.7,0-4,0.1c-3.8,0.3-6.1,2.7-6.1,6.7c0,7,0,13.9,0,20.9c0,4.8-0.1,9.6-0.2,14.4c0,0.8,0,1.6,0,2.5
		c-0.2,0.1-0.5,0.3-0.8,0.3c-2.8-0.1-5.6-0.2-8.5-0.2c-5.3,0-10.6,0-15.9,0c-2,0-2.3-0.4-2.3-2.4c0-13.9,0-27.9,0-41.8
		c0-1.1,0-2.3,0-3.5C93.1,193.4,120.8,193.4,148.7,193.4z"/>
	<path d="M93.1,190.6c-9.3,0-18.4,0-27.6,0c0-0.1-0.1-0.3-0.1-0.5c0-5.7,0-11.4,0-17.1c0-5.7,0.1-11.4,0.2-17.1
		c0-1.5,0.2-3.1,0.6-4.5c1.4-4.5,4-6.1,8.4-6.3c7-0.2,14-0.2,21.1-0.3c1.5,0,3-0.1,4.5-0.2c1.4-0.1,2.3-1.1,2.9-2.2
		c0.8-1.3,1.5-2.6,2-4c0.5-1.4-0.2-2.7-0.9-3.9c-0.5-1-1.1-1.9-1.5-2.9c-1.1-3.3,1.3-6.8,4.8-7c2.3-0.1,4.6,0.1,5.8,2.6
		c1.1,2.3,1,4.4-0.4,6.6c-2.3,3.5-1.6,7.4,1.7,10c0.7,0.5,1.7,0.8,2.6,0.8c7,0,14.1-0.1,21.1-0.1c4.2,0,7.1,2.2,9,5.7
		c0.7,1.3,1.1,2.7,1,4.4c-0.2,2.6,0,5.2,0,7.8c0.2,0.1,0.4,0.2,0.6,0.2c2.5-0.1,2.4-0.2,3.1,2.5c0.9,3.6,0.6,7.2-0.2,10.8
		c-0.3,1.3-0.8,2.3-2.4,1.7c-0.2-0.1-0.5,0-0.9,0.1c0,2.3,0,4.5,0,6.8c0,1.7,0,3.4,0,5.1c0,1.1-0.5,1.6-1.5,1.5
		c-0.5,0-1,0.1-1.4-0.1c-0.4-0.2-0.8-0.6-1-1c-0.2-0.3,0-0.8,0-1.3c0-10.6,0-21.3,0-31.9c0-2.2-0.1-4.4-1.9-6.1
		c-1-0.8-2-1.3-3.3-1.3c-13.1,0-26.2,0-39.3,0c-4.9,0-6.9,2.5-7,7.1c-0.1,10.9,0,21.7,0,32.6C93.1,189.3,93.1,189.8,93.1,190.6z
		 M71.2,167.5c-0.3,4.4,3.6,8.2,8,8.2c4.4,0,8.1-3.6,8.1-8c0-4.6-3.6-8.3-8-8.2C74.6,159.5,71.1,163.3,71.2,167.5z M109.9,130.1
		c0.2-0.4,0.9-1.1,0.8-1.3c-0.3-0.6-1.1-1-1.6-1.5c-0.4,0.4-1,0.8-1,1.3C107.8,129.5,108.5,129.9,109.9,130.1z"/>
	<path d="M276.3,196.6c0-10,0-19.9,0-29.9c0-4.7-0.1-9.5-0.2-14.2c0-1.2-0.2-2.4-0.5-3.5c-0.6-2-2.7-3.3-5.2-3.3
		c-9.2,0-18.3,0-27.5,0c-1.4,0-2-0.5-2-1.6c0-1.2,0.8-1.8,2.1-1.8c6.1,0,12.1,0.1,18.2,0.1c2.9,0,5.9,0,8.8,0c5,0,8.4,3.2,9.1,7.6
		c0.3,2.2,0.3,4.4,0.3,6.6c0,19.3,0,38.7,0,58c0,4.4,0.2,8.9,0.2,13.3c0,2.2-0.3,4.4-0.7,6.6c-0.8,4.1-4,6.5-8.1,6.5
		c-12.9,0-25.8,0-38.7,0.1c-4.2,0-7.4-1.6-9.4-5.3c-0.3-0.6-0.5-1.4-0.5-2c0-7.7,0-15.4,0-23.1c-0.1-16.8-0.1-33.5-0.2-50.3
		c0-2.1,0.9-3,2.8-2.7c1,0.2,1.5,1,1.4,2c-0.3,1.7-0.6,3.5-0.6,5.3c0,22.2,0,44.4,0,66.6c0,4,2.3,5.9,5.7,6.4c1.6,0.3,3.4,0.2,5,0.2
		c2.3,0,4.6,0,6.9,0c9.3-0.1,18.6-0.1,27.8-0.2c2.8,0,4.4-0.7,5-4.1c0.3-1.7,0.6-3.5,0.6-5.3c0.1-10.7,0-21.4,0-32
		C276.4,196.6,276.4,196.6,276.3,196.6z"/>
	<path d="M231.8,194.8c0,11.5,0,23.1,0,34.6c0,2.2,0.3,2.6,2.4,3.2c0.7,0.2,1.5,0.3,2.3,0.3c9.8,0,19.7,0,29.5,0
		c2.5,0,3.7-1,4.2-3.5c0.1-0.7,0.1-1.3,0.2-2c0-11.2,0-22.3,0-33.5c0-12.9-0.1-25.9-0.1-38.8c0-3.1-0.9-3.9-3.9-4
		c-7.9,0-15.8-0.1-23.8-0.2c-1.3,0-2-0.6-2.1-1.7c0-1,0.7-1.6,2.1-1.6c9,0,18,0,27,0.1c2.9,0,4.7,1.3,4.3,4.5c0,0.3,0,0.7,0,1
		c0,24,0,47.9,0,71.9c0,2.3,0,4.5-0.2,6.8c-0.3,3-2.4,4.5-5.4,4.1c-0.6-0.1-1.3-0.1-1.9-0.1c-9.9,0-19.8,0-29.6,0
		c-1.6,0-3.3-0.2-4.9-0.5c-2.5-0.5-3.8-2.2-3.7-5.1c0.1-7.5,0.2-15,0.2-22.5c0-15.3-0.1-30.6-0.2-45.9c0-0.7-0.2-1.4-0.3-2.1
		c-0.2-1.5,0.4-2.6,1.7-2.7c1.2-0.1,2.3,1,2.3,2.5c0,10.9,0,21.9,0,32.8C231.8,193.2,231.8,194,231.8,194.8
		C231.8,194.8,231.8,194.8,231.8,194.8z"/>
	<path d="M224.8,156.4c-8.5-0.2-15.1-6.6-15.1-15.2c0-8.6,6.8-15.1,15.1-15.2c8.3,0,15.2,6.4,15.2,15.2
		C240.1,149.8,233.4,156.3,224.8,156.4z M235.7,138.4c-0.8-0.8-1.3-1.6-2.1-2.1c-3.4-2.5-7.2-3.2-11.4-2.4c-2.8,0.5-5.3,1.7-7.2,3.8
		c-0.6,0.6-0.6,1.3,0,1.7c0.4,0.3,1.1,0.1,1.7,0.1c0.2,0,0.3-0.3,0.5-0.4c2.8-2.6,6.3-3.3,10-2.8c2.4,0.3,4.4,1.3,6.1,3.1
		c0.3,0.3,1,0.3,1.4,0.2C235,139.5,235.2,138.9,235.7,138.4z M224.7,138.8c-2.7,0.1-5,0.8-6.8,2.9c-0.7,0.8-0.6,1.8,0.3,2
		c0.5,0.1,1.3-0.2,1.6-0.5c1.3-1.2,2.7-1.8,4.5-1.8c2.2,0,4.1,0.6,5.9,2c0.7,0.5,1.4,0.6,2-0.2c0.5-0.8,0.2-1.3-0.5-1.8
		C229.6,139.7,227.2,138.9,224.7,138.8z M224.5,143.6c-1.6-0.1-3.1,0.5-4.1,2c-0.3,0.4-0.1,1.3,0.2,1.8c0.1,0.2,1.2,0.2,1.5,0
		c2-1.6,2.8-1.7,4.8-0.2c0.7,0.5,1.3,0.5,1.8-0.1c0.6-0.6,0.4-1.2-0.2-1.8C227.4,144.1,226.1,143.6,224.5,143.6z M224.7,147.7
		c-0.7,0.9-1.4,1.4-1.4,1.9c0.1,0.5,0.8,1.3,1.3,1.4c0.9,0.2,1.4-0.6,1.3-1.4C225.8,149,225.3,148.6,224.7,147.7z"/>
	<path d="M171.5,182.5c0.7-2.1-0.9-2.5-2.3-3.2c-3.8-2-6-5.3-7.2-9.3c-0.6-2.2-0.8-4.6-1-7c-0.1-1.5,0.4-1.9,1.8-1.9
		c1.4,0,2.8,0,4.2,0c1.1,0,1.4,0.4,1.4,1.5c0.2,3.7,1,7.3,4.4,9.6c2.7,1.9,5.7,1.4,8.4,0.3c4-1.7,5.3-5.1,5.4-9.1
		c0-2-0.4-1.9,1.9-1.9c1.3,0,2.5,0,3.8,0c0.8,0,1.3,0.4,1.3,1.1c-0.1,6.3-1.3,12.1-6.9,16.1c-0.5,0.4-1.1,0.8-1.7,1
		c-1.8,0.8-1.8,0.8-2,2.8C179.3,182.5,175.5,182.5,171.5,182.5z"/>
	<path d="M192,152.1c-0.3,0.3-0.4,0.5-0.6,0.7c-4.2,4.3-8.4,8.6-12.6,12.8c-0.5,0.5-1,0.7-1.6,0.1c-4.3-4.3-8.7-8.5-13-12.8
		c-0.5-0.5-0.5-0.9,0-1.4c4.3-4.4,8.6-8.7,12.9-13.1c0.7-0.7,1.1-0.2,1.6,0.2c2,2,4.1,4.1,6.1,6.1c2.2,2.1,4.4,4.2,6.5,6.4
		C191.5,151.4,191.7,151.7,192,152.1z M171.8,151.6c0.1,0.3,0.2,0.6,0.2,0.9c1.7,1.6,3.4,3.3,5.2,4.8c0.2,0.2,1.1,0,1.4-0.3
		c1.4-1.3,2.7-2.6,4-3.9c0.7-0.7,0.8-1.2,0-1.9c-1.4-1.3-2.8-2.7-4.2-4c-0.6-0.6-0.9-0.5-1.5,0C175.2,148.7,173.5,150.2,171.8,151.6
		z"/>
	<path d="M136.6,190.2c-11.7,0-23.2,0-34.7,0c0-1.8-0.2-3.6,0-5.4c0.2-2,1.6-3,3.7-3c6,0,12,0,17.9,0c3.3,0,6.6,0.1,9.9,0.2
		c1.8,0,3.1,1.3,3.1,3.1C136.6,186.7,136.6,188.4,136.6,190.2z"/>
	<path d="M113,168.9c0,4.8-3.5,9.1-9,9.1c-5.1,0-9.2-3.9-9.1-9.2c0-5.2,4-9.1,9.1-9.1C109.7,159.8,113,164.3,113,168.9z M104,171.1
		c1.2,0,2.5-0.1,3.7,0c1.3,0.1,1.3-0.8,1.3-1.7c0-0.9,0.2-2.1-1.3-2.1c-2.5,0-5,0-7.5,0c-0.8,0-1.1,0.4-1.1,1c0,0.5,0,0.9,0,1.4
		c0.1,0.9,0.4,1.5,1.5,1.3C101.7,171,102.8,171.1,104,171.1z"/>
	<path d="M142.9,168.1c0,5-3.9,8.9-8.9,8.9c-5,0-9-4-8.9-8.9c0-4.9,3.8-8.8,8.9-8.9C139.2,159.2,142.9,163.3,142.9,168.1z
		 M129.2,167.1c0,1.2-0.1,2,0,2.9c0.1,0.3,0.7,0.8,1,0.8c2.8,0.1,5.6,0,8.4,0c1.3,0,1.3-1,1.2-1.9c0-0.8,0.2-1.8-1.3-1.8
		C135.6,167.1,132.5,167.1,129.2,167.1z"/>
	<path d="M247.6,172.2c0,3.2,0,6.3,0,9.5c-1,0-2,0-3,0c0-4.9,0-9.8,0-14.9c0.9,0,1.9-0.1,2.8,0c0.3,0,0.7,0.5,0.9,0.8
		c1.6,2.6,3.2,5.2,4.8,7.8c0.2,0.3,0.4,0.7,0.9,1c0-3.1,0-6.3,0-9.5c1.1,0,2.1,0,3.1,0c0,5,0,9.9,0,14.9c-0.9,0-1.9,0.1-2.8,0
		c-0.4,0-0.8-0.5-1-0.8c-1.9-2.9-3.7-5.9-5.5-8.8C247.8,172.1,247.7,172.2,247.6,172.2z"/>
	<path d="M174.2,214.7c-4.1,3.4-8.8,3.9-13.7,3.4c0-4.1,0-8.2,0-12.3c1.3-0.2,2.6-0.5,3.9-0.7c0.2,0,0.4,0.1,0.5,0.2
		C167.9,208.5,171,211.6,174.2,214.7z"/>
	<path d="M177.5,212.2c-3.1-3.1-6-6-8.9-9c-0.2-0.2-0.1-0.7,0.1-1c0.2-0.4,0.7-0.7,0.8-1.1c0.5-1.6,1.7-1.5,3-1.5
		c3.4,0.1,6.8,0,10.5,0C183,204.6,180.6,208.4,177.5,212.2z"/>
	<path d="M254.7,211.9c1,0,1.9,0,2.9,0c0.1,3.2-2.5,5.7-5.5,6c-3.1,0.3-6-1.1-7.4-3.8c-1.6-3.2-1-7.6,1.4-9.9
		c2.1-2.1,5.7-2.6,8.4-1.2c1.8,0.9,2.8,2.4,3.1,4.6c-0.9,0-1.8,0-2.6,0c-0.2,0-0.5-0.3-0.7-0.6c-0.7-1.4-1.9-2-3.4-2
		c-1.5,0.1-2.6,0.9-3.2,2.3c-0.7,1.7-0.8,3.4-0.2,5.1c0.6,1.8,2,2.8,3.8,2.8c1.7,0,2.6-0.8,3.3-2.8
		C254.6,212.2,254.7,212,254.7,211.9z"/>
	<path d="M171.4,187c4.1,0,7.9,0,11.7,0c0,2.9,0,5.8,0,8.8c-2.6,0-5.1,0-7.5,0c-1.1,0-2.2,0-3.3-0.2c-0.3,0-0.8-0.5-0.9-0.8
		C171.4,192.2,171.4,189.7,171.4,187z"/>
	<path d="M114.8,173.7c0-1.5,0-3,0-4.6c0-0.8,0.3-1.2,1.1-1.1c2.2,0,4.5,0,6.7,0c0.8,0,1.1,0.3,1.1,1.1c0,3,0,6,0,9
		c0,0.8-0.4,1.3-1.4,1.2c-2.1,0-4.2,0-6.4,0c-0.9,0-1.2-0.3-1.2-1.2C114.8,176.7,114.8,175.2,114.8,173.7z"/>
	<path d="M249.3,199.7c-1.2,0-2.2,0-3.2,0c0-4.9,0-9.9,0-14.9c3.4,0,6.8,0,10.3,0c0,0.9,0,1.7,0,2.7c-2.3,0-4.6,0-7.1,0
		c0,1.2,0,2.3,0,3.5c2,0,4,0,6.1,0c0,0.9,0,1.7,0,2.6c-2.1,0-4,0-6.2,0C249.3,195.6,249.3,197.5,249.3,199.7z"/>
	<path d="M213.5,195.4c0-1.6,0-3,0-4.6c1.7,0,3.3-0.1,4.9,0c0.8,0,1.7,1.5,1.6,2.6c-0.1,1-0.5,1.9-1.7,2
		C216.7,195.4,215.1,195.4,213.5,195.4z"/>
	<path d="M193.7,190.9c0,1.6,0,3.1,0,4.6c-1.5,0.1-2.9,0.2-4.4,0.3c-0.8,0-1.8-1.2-1.8-2.2c-0.1-1.4,0.6-2.6,1.6-2.7
		C190.6,190.8,192.1,190.9,193.7,190.9z"/>
	<path d="M205.1,191c1.9,0,3.7,0,5.6,0c0,1.5,0,3,0,4.6c-1.8,0-3.6,0-5.6,0C205.1,194,205.1,192.5,205.1,191z"/>
	<path d="M196.5,195.5c0-1.5,0-3,0-4.5c1.9,0,3.7,0,5.6,0c0,1.5,0,3,0,4.5C200.3,195.5,198.4,195.5,196.5,195.5z"/>
	<path d="M176.1,133.4c0-0.5,0-0.9,0-1.4c-0.1-1,0.5-1.4,1.3-1.5c1-0.1,1.5,0.3,1.6,1.2c0.1,1.3,0.2,2.5,0,3.8c0,0.4-0.9,1-1.3,1
		c-0.5,0-1.2-0.5-1.5-1C176,134.9,176.1,134.1,176.1,133.4C176.1,133.4,176.1,133.4,176.1,133.4z"/>
	<path d="M195.2,153.3c-0.4,0-0.8,0-1.1,0c-0.8,0-1.6-0.1-1.6-1.1c0.1-0.9,0.3-1.9,1.7-1.7c0.7,0.1,1.5,0,2.3,0
		c1.1,0,1.4,0.6,1.4,1.5c0,0.9-0.4,1.4-1.4,1.3C195.9,153.3,195.5,153.3,195.2,153.3C195.2,153.3,195.2,153.3,195.2,153.3z"/>
	<path d="M191.8,140.6c-0.3,0.4-0.5,0.7-0.7,0.9c-0.6,0.7-1.2,1.5-2,2.1c-0.4,0.3-1.2,0.2-1.6,0c-0.5-0.3-1-1-0.3-1.7
		c0.7-0.8,1.4-1.6,2.2-2.3c0.3-0.3,1-0.3,1.3-0.2C191.1,139.6,191.4,140.2,191.8,140.6z"/>
	<path d="M165.3,139.8c0.5,0.2,0.8,0.3,1,0.6c0.7,0.6,1.3,1.3,2,2c0.7,0.7,0.5,1.5-0.1,2c-0.6,0.6-1.2,0.5-1.9-0.1
		c-0.6-0.7-1.4-1.1-1.9-1.8c-0.3-0.3-0.4-1-0.3-1.4C164.4,140.5,164.9,140.2,165.3,139.8z"/>
	<path d="M160.2,153.3c-0.5,0-1.2,0.2-1.6,0c-0.4-0.2-1.1-0.9-1-1.1c0.2-0.6,0.7-1.4,1.2-1.5c1-0.1,2.1,0.2,3.2,0.3
		c0.7,0.1,1,0.4,0.9,1.2c-0.1,0.8-0.4,1.3-1.3,1.2c-0.5,0-0.9,0-1.4,0C160.2,153.4,160.2,153.3,160.2,153.3z"/>
	<path class="st8" d="M79.2,162.2c-3.1,0-5.4,2.3-5.3,5.4c0,3,2.4,5.4,5.4,5.4c3,0,5.5-2.5,5.5-5.5
		C84.7,164.5,82.3,162.2,79.2,162.2z"/>
	<path class="st8" d="M109.9,130.1c-1.3-0.1-2-0.6-1.9-1.5c0.1-0.5,0.7-0.9,1-1.3c0.6,0.5,1.3,0.9,1.6,1.5
		C110.8,129,110.1,129.7,109.9,130.1z"/>
	<path class="st8" d="M235.7,138.4c-0.4,0.5-0.6,1.1-1,1.2c-0.4,0.1-1.2,0.1-1.4-0.2c-1.7-1.8-3.7-2.8-6.1-3.1
		c-3.7-0.5-7.1,0.2-10,2.8c-0.2,0.1-0.3,0.4-0.5,0.4c-0.6,0-1.3,0.2-1.7-0.1c-0.7-0.4-0.6-1.1,0-1.7c1.9-2.2,4.4-3.3,7.2-3.8
		c4.1-0.8,7.9-0.1,11.4,2.4C234.3,136.8,234.9,137.6,235.7,138.4z"/>
	<path class="st8" d="M224.7,138.8c2.6,0.1,4.9,1,7,2.6c0.7,0.5,1,1,0.5,1.8c-0.6,0.9-1.3,0.7-2,0.2c-1.7-1.4-3.7-2-5.9-2
		c-1.7,0-3.2,0.6-4.5,1.8c-0.4,0.4-1.1,0.6-1.6,0.5c-0.9-0.2-1-1.2-0.3-2C219.6,139.6,222,138.9,224.7,138.8z"/>
	<path class="st8" d="M224.5,143.6c1.7,0,3,0.5,4.1,1.6c0.5,0.6,0.7,1.2,0.2,1.8c-0.5,0.6-1.1,0.6-1.8,0.1c-1.9-1.4-2.8-1.4-4.8,0.2
		c-0.3,0.3-1.4,0.3-1.5,0c-0.3-0.5-0.5-1.3-0.2-1.8C221.3,144.1,222.8,143.6,224.5,143.6z"/>
	<path class="st8" d="M224.7,147.7c0.6,0.8,1.2,1.3,1.2,1.8c0.1,0.8-0.5,1.6-1.3,1.4c-0.5-0.1-1.2-0.8-1.3-1.4
		C223.2,149.1,224,148.6,224.7,147.7z"/>
	<path d="M100.3,308.1c2,0,3.8,0,5.8,0c0,6.5,0,12.9,0,19.4c-1.1,0-2.3,0-3.6,0c0-4.6,0-9.2,0-13.8c-0.1,0-0.2,0-0.3,0
		c-0.3,1.5-0.7,3-1,4.4c-0.6,2.7-1.3,5.4-1.8,8.2c-0.2,1.1-0.7,1.5-1.8,1.3c-0.5-0.1-1,0-1.6,0c-1.1-4.9-2.2-9.7-3.3-14.6
		c-0.1,0-0.2,0-0.3,0c0,4.8,0,9.6,0,14.5c-1.2,0-2.4,0-3.5,0c0-6.5,0-12.9,0-19.4c1.9,0,3.8,0,5.8,0c0.9,4.2,1.7,8.5,2.6,12.8
		c0.1,0,0.2,0,0.3,0C98.5,316.7,99.4,312.4,100.3,308.1z"/>
	<path d="M215.5,314.7c0,4.2,0,8.5,0,12.8c-1.2,0-2.4,0-3.6,0c0-6.4,0-12.9,0-19.5c1.3,0,2.6-0.1,3.9,0c0.3,0,0.8,0.5,0.9,0.9
		c1.3,3.5,2.6,7.1,3.8,10.6c0.1,0.3,0.2,0.5,0.5,0.8c0-4.1,0-8.2,0-12.3c1.3,0,2.5,0,3.7,0c0,6.5,0,12.9,0,19.5c-1.4,0-2.7,0.1-4,0
		c-0.3,0-0.7-0.6-0.9-1c-1.3-3.7-2.6-7.3-3.9-11c-0.1-0.3-0.2-0.6-0.4-0.9C215.7,314.7,215.6,314.7,215.5,314.7z"/>
	<path d="M125.3,320.5c0-4.1,0-8.2,0-12.4c1.2,0,2.4,0,3.6,0c0,6.4,0,12.8,0,19.4c-1.4,0-2.7,0.1-4,0c-0.3,0-0.7-0.6-0.8-0.9
		c-1.3-3.7-2.6-7.4-3.9-11.1c-0.1-0.3-0.2-0.5-0.5-0.7c0,4.2,0,8.5,0,12.8c-1.3,0-2.4,0-3.6,0c0-6.5,0-12.9,0-19.5
		c1.3,0,2.7-0.1,4,0c0.3,0,0.7,0.5,0.8,0.9c1.2,3.4,2.4,6.8,3.6,10.2c0.2,0.5,0.3,0.9,0.5,1.4C125.1,320.5,125.2,320.5,125.3,320.5z
		"/>
	<path d="M93.9,275.3c2.8,0,5.6-0.1,8.3,0c2.4,0.2,3.6,1.5,4,3.6c0.5,3-0.3,4.9-2.7,6.1c2.6,0.7,2.7,2.7,2.8,4.7
		c0.1,1.7,0.3,3.3,0.4,5c-0.9,0-2.1,0.1-3.3-0.1c-0.3,0-0.8-0.7-0.9-1.1c-0.2-1.2-0.2-2.4-0.2-3.5c0-3.3-0.8-4-4.3-3.4
		c0,2.6,0,5.3,0,8c-1.4,0-2.6,0-4,0C93.9,288.3,93.9,281.8,93.9,275.3z M97.9,283.6c2,0.4,3.5,0,4.1-1c0.5-0.9,0.5-2.7-0.2-3.5
		c-1.1-1.3-2.6-0.7-4-0.8C97.9,280.2,97.9,281.9,97.9,283.6z"/>
	<path d="M216.8,275.3c2.8,0,5.5-0.1,8.3,0c2.3,0.2,3.6,1.5,4,3.5c0.5,3-0.2,4.9-2.7,6.3c2.2,0.6,2.6,2.2,2.7,4.1
		c0,1.1,0,2.3,0.2,3.4c0.1,0.7,0.3,1.4,0.5,2.1c-1.2,0-2.4,0.1-3.6-0.1c-0.4,0-0.8-0.8-0.9-1.2c-0.2-1.3-0.2-2.7-0.2-4
		c-0.2-2.7-0.6-3-3.3-3c-0.3,0-0.6,0-1,0.1c0,2.7,0,5.3,0,8.1c-1.4,0-2.6,0-4,0C216.8,288.3,216.8,281.8,216.8,275.3z M220.7,283.7
		c1.5,0,2.9,0.3,4-1c0.7-0.9,0.7-2.7,0-3.6c-1.1-1.3-2.6-0.8-4-0.8C220.7,280.1,220.7,281.8,220.7,283.7z"/>
	<path d="M175.8,285.1c2.1,0.5,2.6,2,2.6,3.8c0,1,0.1,2,0.2,3c0.1,0.9,0.3,1.8,0.5,2.9c-1.1,0-2.3,0.1-3.5,0c-0.3,0-0.8-0.5-0.8-0.8
		c-0.2-1.3-0.2-2.6-0.3-3.9c-0.1-3.3-0.8-3.9-4.3-3.4c0,2.6,0,5.3,0,8c-1.4,0-2.6,0-4,0c0-6.4,0-12.8,0-19.3c2.8,0,5.7-0.2,8.5,0.1
		c2.3,0.2,3.5,1.6,3.8,3.8c0.4,2.6-0.4,4.6-2.3,5.7C176.1,284.9,176,285,175.8,285.1z M170.2,283.7c1.5-0.1,3.1,0.3,4-1.2
		c0.7-1.1,0.7-2.3,0-3.4c-1-1.5-2.5-0.9-4-0.9C170.2,280.1,170.2,281.8,170.2,283.7z"/>
	<path d="M167.9,327.5c-1.4,0-2.6,0-3.9,0c0-6.5,0-12.9,0-19.4c2.9,0,5.8-0.2,8.6,0.1c2.2,0.2,3.3,1.6,3.7,3.7
		c0.4,2.4-0.4,4.5-2.1,5.6c-0.2,0.1-0.4,0.2-0.7,0.4c2,0.5,2.6,1.9,2.7,3.6c0,1.1,0.1,2.1,0.2,3.2c0.1,0.9,0.3,1.9,0.5,2.9
		c-1,0-2.3,0.1-3.4,0c-0.3,0-0.8-0.6-0.9-0.9c-0.2-1.2-0.2-2.4-0.2-3.7c-0.1-3.4-0.8-4-4.4-3.5C167.9,322.1,167.9,324.8,167.9,327.5
		z M168,316.5c1.6,0,3.2,0.3,4.1-1.3c0.6-1.1,0.6-2.4-0.2-3.3c-1-1.3-2.5-0.8-3.9-0.8C168,312.9,168,314.6,168,316.5z"/>
	<path d="M201.3,275.3c2.6,0,5.1-0.1,7.6,0c2.6,0.1,4.1,1.7,4.7,4.2c0.8,3.6,0.8,7.3-0.1,10.9c-0.7,2.8-2.3,4.1-5.1,4.3
		c-2.3,0.1-4.6,0-7.1,0C201.3,288.3,201.3,281.8,201.3,275.3z M205.3,291.7c3.2,0.5,4.4-0.3,4.7-3.3c0.2-2.2,0.2-4.5,0-6.7
		c-0.3-3.1-1.5-3.9-4.7-3.3C205.3,282.8,205.3,287.2,205.3,291.7z"/>
	<path d="M231.4,284.5c0.2-1.5,0.3-3.6,0.7-5.5c0.6-2.6,2.6-4,5.3-4.1c0.3,0,0.7,0,1,0c3.5,0,5.7,1.6,6,5c0.3,3.4,0.3,6.9,0,10.2
		c-0.4,3.5-2.7,5-6.5,4.9c-3.6-0.1-5.6-1.7-6.1-5.2C231.6,288.3,231.5,286.6,231.4,284.5z M240.9,284.9c-0.2-1.7-0.3-3.5-0.5-5.2
		c-0.2-1.4-1.1-2-2.3-1.9c-1.3,0-2.1,0.8-2.2,1.9c-0.1,3.5-0.2,7,0,10.5c0.1,1.5,1.1,2.1,2.3,2.1c1.2,0,2-0.7,2.2-2.2
		C240.7,288.4,240.8,286.7,240.9,284.9z"/>
	<path d="M151.2,275.3c1.4,0,2.6,0,4,0c0,0.4,0.1,0.9,0.1,1.3c0,4.1,0,8.1,0,12.2c0,0.6,0.1,1.3,0.2,1.9c0.3,1,1,1.5,2.1,1.5
		c1,0,1.7-0.6,2-1.5c0.2-0.7,0.3-1.5,0.3-2.3c0-3.9,0-7.8,0-11.7c0-0.5,0-0.9,0-1.4c1.3,0,2.6,0,3.8,0c0,0.1,0.1,0.2,0.1,0.3
		c0,4.8,0.1,9.6-0.1,14.4c-0.1,3.1-2,4.8-5.1,5c-0.1,0-0.2,0-0.3,0c-5.1,0.3-7-1.6-7-6.6C151.2,284.1,151.2,279.8,151.2,275.3z"/>
	<path d="M148.8,280.6c-1.2,0-2.3,0-3.6,0c-0.1-0.3-0.1-0.5-0.2-0.7c-0.1-1.1-0.6-2-1.8-2.1c-1-0.1-1.9,0.2-2.3,1.2
		c-0.5,1.1-0.1,2.4,0.8,3.1c0.3,0.2,0.7,0.4,1.1,0.6c1,0.5,2.1,0.9,3.1,1.4c3.9,1.6,4.1,4.9,3,7.9c-0.5,1.6-1.9,2.5-3.4,2.7
		c-1.6,0.3-3.3,0.4-4.9,0.2c-3.1-0.4-4.7-2.9-4.1-6.2c1.2,0,2.4,0,3.7,0c0.1,0.5,0.1,1,0.2,1.5c0.1,1.2,0.9,1.9,2.1,2
		c1.1,0.1,2.1-0.2,2.5-1.3c0.4-1.1,0.4-2.2-0.6-3c-0.5-0.4-1.1-0.7-1.6-0.9c-0.8-0.3-1.6-0.6-2.4-0.9c-3.2-1.3-4.5-3.5-3.6-7.5
		c0.5-2.1,2.1-3.2,4.1-3.5c1.3-0.2,2.7-0.1,4,0.1C147.9,275.7,149.2,277.7,148.8,280.6z"/>
	<path d="M135.9,294.8c-1.4,0-2.7,0-4.1,0c-0.3-1.3-0.6-2.6-0.9-4c-1.7,0-3.4,0-5.1,0c-0.3,1.4-0.6,2.7-0.9,4c-1.4,0-2.7,0-4.1,0
		c0.5-1.7,0.9-3.4,1.3-5.1c1.2-4.5,2.4-8.9,3.5-13.4c0.2-0.8,0.5-1.1,1.4-1.1c1,0.1,1.9,0,2.9,0c0.6,0,1,0.1,1.2,0.8
		c1.6,6.1,3.2,12.1,4.8,18.2C135.9,294.4,135.9,294.5,135.9,294.8z M126.6,287.2c1.4,0,2.5,0,3.7,0c-0.6-2.8-1.2-5.4-1.7-8
		c-0.1,0-0.1,0-0.2,0C127.7,281.9,127.2,284.5,126.6,287.2z"/>
	<path d="M179.1,308.1c3.7,0,7.2,0,10.8,0c0,1.1,0,2.1,0,3.3c-2.3,0-4.5,0-6.9,0c0,1.5,0,2.9,0,4.4c2.2,0,4.3,0,6.4,0
		c0,1.1,0,2.1,0,3.3c-2.1,0-4.2,0-6.4,0c0,1.8,0,3.4,0,5.2c2.3,0,4.7,0,7.1,0c0,1.2,0,2.2,0,3.2c-3.7,0-7.3,0-11.1,0
		C179.1,321,179.1,314.6,179.1,308.1z"/>
	<path d="M181.4,275.3c3.7,0,7.2,0,10.9,0c0,1.1,0,2,0,3.2c-2.3,0-4.5,0-6.9,0c0,1.6,0,3,0,4.5c2.2,0,4.2,0,6.4,0c0,1.1,0,2.1,0,3.3
		c-2.1,0-4.2,0-6.4,0c0,1.8,0,3.4,0,5.1c2.3,0,4.7,0,7.1,0c0,1.1,0,2.1,0,3.2c-3.7,0-7.4,0-11.1,0
		C181.4,288.3,181.4,281.8,181.4,275.3z"/>
	<path d="M192.2,308.1c3.6,0,7.2,0,10.8,0c0,1.1,0,2.1,0,3.2c-2.2,0-4.4,0-6.8,0c0,1.5,0,2.9,0,4.5c2.1,0,4.2,0,6.4,0
		c0,1.1,0,2.1,0,3.3c-2.1,0-4.2,0-6.4,0c0,1.8,0,3.4,0,5.2c2.3,0,4.6,0,7,0c0,1.2,0,2.2,0,3.3c-3.7,0-7.3,0-11,0
		C192.2,321,192.2,314.6,192.2,308.1z"/>
	<path d="M113.1,278.5c0,1.6,0,3,0,4.5c2.2,0,4.3,0,6.4,0c0,1.1,0,2.1,0,3.3c-2.1,0-4.2,0-6.4,0c0,1.8,0,3.4,0,5.2
		c2.3,0,4.7,0,7.1,0c0,1.1,0,2.1,0,3.2c-3.7,0-7.4,0-11.1,0c0-6.4,0-12.8,0-19.4c3.6,0,7.1,0,10.8,0c0,1,0,2,0,3.2
		C117.6,278.5,115.4,278.5,113.1,278.5z"/>
	<path d="M251,294.8c-1.5,0-2.7,0-3.9,0c0-6.5,0-12.9,0-19.3c2.9,0,5.8-0.1,8.7,0c0.6,0,1.3,0.5,1.8,0.9c2,1.9,2.1,4.4,1.5,6.8
		c-0.6,2.3-2.3,3.3-4.6,3.6c-1.1,0.1-2.2,0.1-3.4,0.2C251,289.7,251,292.2,251,294.8z M251.1,284.1c1.5,0,3,0.3,3.9-1.2
		c0.7-1.2,0.7-2.6-0.1-3.8c-0.9-1.4-2.4-0.9-3.8-0.9C251.1,280.2,251.1,282.1,251.1,284.1z"/>
	<path d="M155.3,327.5c-1.4,0-2.7,0-4,0c0-6.5,0-12.9,0-19.4c3.6,0,7.1,0,10.7,0c0,1.1,0,2.1,0,3.2c-2.2,0-4.4,0-6.7,0
		c0,1.5,0,2.9,0,4.5c2.1,0,4.2,0,6.4,0c0,1.1,0,2.1,0,3.3c-2.1,0-4.2,0-6.4,0C155.3,321.9,155.3,324.6,155.3,327.5z"/>
	<path d="M231.5,327.5c-1.4,0-2.6,0-3.9,0c0-6.4,0-12.9,0-19.4c3.6,0,7.1,0,10.8,0c0,1,0,2,0,3.2c-2.2,0-4.5,0-6.8,0
		c0,1.5,0,2.9,0,4.5c2.1,0,4.2,0,6.4,0c0,1.2,0,2.2,0,3.3c-2.1,0-4.2,0-6.4,0C231.5,321.9,231.5,324.6,231.5,327.5z"/>
	<path d="M88,294.8c-1.4,0-2.6,0-3.9,0c0-5.4,0-10.7,0-16.2c-1.5,0-2.8,0-4.2,0c0-1.1,0-2.1,0-3.2c4.1,0,8.1,0,12.3,0c0,1,0,2,0,3.2
		c-1.3,0-2.7,0-4.1,0C88,284,88,289.3,88,294.8z"/>
	<path d="M134.9,311.3c-1.5,0-2.8,0-4.2,0c0-1.1,0-2.1,0-3.2c4.1,0,8.2,0,12.4,0c0,1.1,0,2.1,0,3.2c-1.3,0-2.7,0-4.1,0
		c0,5.5,0,10.8,0,16.2c-1.4,0-2.6,0-4,0C134.9,322.1,134.9,316.8,134.9,311.3z"/>
	<path d="M247.4,327.5c-1.4,0-2.7,0-4,0c0-5.4,0-10.7,0-16.2c-1.5,0-2.8,0-4.2,0c0-1.1,0-2.1,0-3.2c4.1,0,8.2,0,12.4,0
		c0,1,0,2.1,0,3.2c-1.4,0-2.7,0-4.2,0C247.4,316.8,247.4,322.1,247.4,327.5z"/>
	<path d="M113,308.1c0,6.5,0,12.9,0,19.4c-1.2,0-2.5,0-3.8,0c0-6.4,0-12.9,0-19.4C110.4,308.1,111.7,308.1,113,308.1z"/>
	<path d="M79.2,162.2c3.2,0,5.5,2.3,5.5,5.3c0,3-2.5,5.5-5.5,5.5c-2.9,0-5.4-2.4-5.4-5.4C73.8,164.5,76.1,162.2,79.2,162.2z"/>
	<path class="st8" d="M97.9,283.6c0-1.7,0-3.4,0-5.3c1.4,0.1,2.8-0.5,4,0.8c0.7,0.8,0.7,2.6,0.2,3.5
		C101.3,283.6,99.9,283.9,97.9,283.6z"/>
	<path class="st8" d="M220.7,283.7c0-1.8,0-3.6,0-5.4c1.4,0,2.9-0.5,4,0.8c0.7,0.9,0.7,2.7,0,3.6C223.7,284,222.2,283.7,220.7,283.7
		z"/>
	<path class="st8" d="M170.2,283.7c0-1.9,0-3.6,0-5.5c1.4,0.1,3-0.5,4,0.9c0.7,1,0.7,2.3,0,3.4C173.3,284.1,171.8,283.7,170.2,283.7
		z"/>
	<path class="st8" d="M168,316.5c0-1.9,0-3.6,0-5.4c1.4,0,2.8-0.5,3.9,0.8c0.8,1,0.8,2.3,0.2,3.3C171.2,316.8,169.6,316.4,168,316.5
		z"/>
	<path class="st8" d="M205.3,291.7c0-4.5,0-8.9,0-13.4c3.2-0.5,4.4,0.3,4.7,3.3c0.2,2.2,0.2,4.5,0,6.7
		C209.7,291.4,208.5,292.2,205.3,291.7z"/>
	<path class="st8" d="M240.9,284.9c-0.2,1.8-0.2,3.5-0.5,5.1c-0.2,1.5-1,2.1-2.2,2.2c-1.2,0-2.2-0.6-2.3-2.1c-0.2-3.5-0.1-7,0-10.5
		c0-1.1,0.9-1.9,2.2-1.9c1.2,0,2.1,0.6,2.3,1.9C240.7,281.5,240.8,283.3,240.9,284.9z"/>
	<path class="st8" d="M126.6,287.2c0.6-2.7,1.2-5.4,1.7-8c0.1,0,0.1,0,0.2,0c0.6,2.6,1.1,5.2,1.7,8
		C129.1,287.2,127.9,287.2,126.6,287.2z"/>
	<path class="st8" d="M251.1,284.1c0-2,0-3.8,0-5.8c1.4,0,2.8-0.5,3.8,0.9c0.8,1.2,0.8,2.6,0.1,3.8
		C254.1,284.4,252.6,284.1,251.1,284.1z"/>
</g>
<text transform="matrix(1 0 0 1 63.4023 45.7246)" class="st9 st10 st11">PROJECT . COMMUNITY .  FAQ  .  </text>
<g>
	<rect x="4" y="695" class="st12" width="671" height="69"/>
	<path d="M671,699v61H8v-61H671 M679,691H0v77h679V691L679,691z"/>
</g>
<g>
	<rect x="4" y="401" class="st7" width="671" height="296"/>
	<path d="M671,405v288H8V405H671 M679,397H0v304h679V397L679,397z"/>
</g>
<text transform="matrix(1 0 0 1 310.1021 735.4459)" class="st8 st10 st11">MINT</text>
<g>
	<rect x="506.3" y="232.3" class="st8" width="168.7" height="168.7"/>
	<path d="M671,236.3V397H510.3V236.3H671 M679,228.3H502.3V405H679V228.3L679,228.3z"/>
</g>
<g>
	<rect x="340" y="232.3" class="st8" width="168.7" height="168.7"/>
	<path d="M504.7,236.3V397H344V236.3H504.7 M512.7,228.3H336V405h176.7V228.3L512.7,228.3z"/>
</g>
<g id="tfuZ0t.tif">
	<g>
		<path class="st8" d="M418.2,295.5c-0.1-0.1-0.2-0.3-0.3-0.4c-1.3-2.7-2.3-3.2-5.2-2.4c-2.2,0.6-4.3,1.5-6.5,2.1
			c-2.6,0.7-4.3,2.4-5.5,4.7c-1.7,3.5-3.3,7.1-4.9,10.6c-2.9,6.6-3.2,13.5-3.1,20.5c0,2,0.7,3.9,2.5,4.9c3.7,2.1,7.5,4.1,11.4,5.9
			c2.6,1.2,3.8,0.6,5.3-1.9c1.4-2.3,1.2-2.9-1.2-4.1c-0.8-0.4-1.7-0.8-2.2-1.4c-0.4-0.5-0.1-1.5-0.1-2.3c0.5,0.2,1.1,0.3,1.5,0.6
			c1.9,1.6,4.1,2.4,6.4,2.9c5.6,1.1,11.2,1.1,16.8,0.5c3.4-0.4,6.8-1.1,9.6-3.5c0.3-0.3,0.9-0.3,1.4-0.5c0.1,0.7,0.3,1.4,0.1,2
			c-0.1,0.4-0.7,0.8-1.2,1.1c-0.7,0.4-1.6,0.6-2.2,1.2c-0.5,0.5-1.1,1.3-0.9,1.9c0.7,3.4,3.2,4.8,6.3,3.4c3.4-1.5,6.5-3.3,9.8-5
			c2.5-1.3,3.7-3.4,3.8-6.2c0.5-11.3-2.8-21.6-8.4-31.3c-0.3-0.5-0.6-1-1.1-1.5c-0.6-0.6-1.2-1.3-1.9-1.6c-3.1-1.2-6.2-2.3-9.4-3.2
			c-2.2-0.6-3.4,0.1-4.3,2.2c-0.2,0.3-0.4,0.6-0.5,0.8c-2.8-0.3-5.4-0.8-8.1-0.8C423.7,294.6,421,295.2,418.2,295.5z"/>
		<path d="M418.2,295.5c2.8-0.3,5.4-0.8,8.1-0.8c2.6,0,5.3,0.5,8.1,0.8c0.1-0.2,0.3-0.5,0.5-0.8c1-2.1,2.2-2.8,4.3-2.2
			c3.2,0.9,6.3,2.1,9.4,3.2c0.7,0.3,1.3,1,1.9,1.6c0.4,0.4,0.8,0.9,1.1,1.5c5.6,9.7,8.9,20,8.4,31.3c-0.1,2.8-1.2,4.9-3.8,6.2
			c-3.3,1.7-6.5,3.5-9.8,5c-3.2,1.4-5.6,0-6.3-3.4c-0.1-0.6,0.4-1.4,0.9-1.9c0.6-0.5,1.5-0.7,2.2-1.2c0.5-0.3,1.1-0.6,1.2-1.1
			c0.2-0.6,0-1.3-0.1-2c-0.5,0.2-1,0.2-1.4,0.5c-2.7,2.4-6.1,3.1-9.6,3.5c-5.6,0.7-11.3,0.6-16.8-0.5c-2.4-0.5-4.5-1.3-6.4-2.9
			c-0.4-0.3-1-0.4-1.5-0.6c0,0.8-0.2,1.7,0.1,2.3c0.4,0.7,1.4,1,2.2,1.4c2.4,1.2,2.6,1.8,1.2,4.1c-1.5,2.5-2.7,3.1-5.3,1.9
			c-3.9-1.8-7.6-3.8-11.4-5.9c-1.8-1-2.4-2.9-2.5-4.9c-0.1-7,0.3-14,3.1-20.5c1.6-3.6,3.2-7.1,4.9-10.6c1.1-2.3,2.9-3.9,5.5-4.7
			c2.2-0.6,4.3-1.5,6.5-2.1c2.9-0.8,3.9-0.2,5.2,2.4C418,295.2,418.2,295.3,418.2,295.5z M420.8,319.7c0-3.6-2.7-6.5-6-6.5
			c-3.3,0-6,2.9-6,6.4c0,3.6,2.7,6.6,6.1,6.5C418.2,326.2,420.8,323.3,420.8,319.7z M431.8,319.8c0,3.6,2.7,6.4,6,6.4
			c3.3,0,6-2.9,6-6.5c0-3.6-2.8-6.6-6.1-6.5C434.4,313.3,431.8,316.2,431.8,319.8z"/>
	</g>
</g>
<g id="vy1zX4_1_">
	<g>
		<path class="st8" d="M586.4,330.7c-5.5,4.1-11.4,5.6-17.8,5.3c0.6,0.5,1.1,0.8,1.7,1.1c5.6,3,11.6,4.4,18,4.2
			c11.1-0.2,20.2-4.6,27-13.4c5.1-6.5,7.5-13.9,7.7-22.1c0-1.2,0.4-1.9,1.3-2.7c1.7-1.5,3.2-3.2,4.7-4.8c-0.1-0.1-0.2-0.2-0.3-0.3
			c-2,0.5-3.9,1.1-5.9,1.6c1.9-2,3.7-3.9,4.5-6.6c-2,0.8-3.9,1.5-5.8,2.2c-1.2,0.5-2.2,0.3-3.3-0.6c-3.9-3.2-8.4-3.7-12.9-1.7
			c-4.7,2.1-7.2,5.9-7.4,11.1c0,1,0,2,0,3.1c-10.3-0.7-18.7-5.2-25.7-13.1c-2.8,6.6-1.7,12,3.5,16.6c-0.1,0.1-0.2,0.2-0.2,0.2
			c-1.6-0.5-3.2-0.9-5-1.4c0.4,6.2,3.7,10.2,9.4,12.5c-1.6,0-3.2,0-5,0C577,327.3,580.8,330,586.4,330.7z"/>
		<path d="M586.4,330.7c-5.7-0.7-9.4-3.4-11.6-8.7c1.8,0,3.4,0,5,0c-5.7-2.3-9-6.2-9.4-12.5c1.7,0.5,3.4,0.9,5,1.4
			c0.1-0.1,0.2-0.2,0.2-0.2c-5.2-4.6-6.3-10-3.5-16.6c7,7.9,15.4,12.5,25.7,13.1c0-1.1,0-2.1,0-3.1c0.2-5.2,2.7-9,7.4-11.1
			c4.5-2,9-1.5,12.9,1.7c1.1,0.9,2.1,1.1,3.3,0.6c1.9-0.7,3.8-1.5,5.8-2.2c-0.9,2.7-2.7,4.6-4.5,6.6c2-0.5,3.9-1.1,5.9-1.6
			c0.1,0.1,0.2,0.2,0.3,0.3c-1.6,1.6-3,3.3-4.7,4.8c-0.9,0.8-1.3,1.6-1.3,2.7c-0.2,8.2-2.6,15.6-7.7,22.1
			c-6.8,8.7-15.9,13.2-27,13.4c-6.4,0.1-12.3-1.2-18-4.2c-0.6-0.3-1.1-0.6-1.7-1.1C575,336.3,580.9,334.8,586.4,330.7z"/>
	</g>
</g>
<g>
	<path class="st13" d="M523.7,111c0,0,0,0.1,0.1,0.1c1.4,0.8,1.7,1.7,1,3.2c-2.9,5.6-5.7,11.1-8.6,16.7c-1.7,3.3-3.4,6.6-5.1,9.9
		c-0.1,0.2-0.2,0.4-0.4,0.7c0.3,0,0.6,0,0.8,0c7.9,0,15.7,0,23.6,0c0.7,0,1.3,0.1,1.8,0.6c0.9,0.9,0.8,2.1-0.2,3c-2,1.7-4,3.5-6,5.2
		c-7.7,6.7-15.5,13.4-23.2,20c-5.1,4.4-10.3,8.9-15.4,13.4c-0.6,0.5-1.3,1-2.2,0.8c-1.4-0.3-2-1.7-1.3-3.1c1.6-3.1,3.2-6.2,4.8-9.4
		c3-5.9,6.1-11.8,9.1-17.8c0.1-0.1,0.1-0.3,0.2-0.5c-0.3,0-0.6,0-0.8,0c-7.7,0-15.4,0-23.1,0c-1.3,0-2.2-0.3-2.8-1.5
		c0-0.4,0-0.8,0-1.2c0.3-0.5,0.6-0.9,1.1-1.3c3.7-3.2,7.4-6.4,11.1-9.6c9.5-8.2,19.1-16.5,28.6-24.7c1.9-1.6,3.7-3.4,5.7-4.8
		C522.9,111,523.3,111,523.7,111z"/>
</g>
<text transform="matrix(1 0 0 1 203.7916 480.739)" class="st9 st10 st11">ENTER YOUR CODE TO MINT</text>
<text transform="matrix(1 0 0 1 1124.9648 45.7246)" class="st9 st10 st11">WALLET CONNECT</text>
<rect x="79" y="529" class="st14" width="520" height="106"/>
<text transform="matrix(1 0 0 1 204.7916 591.739)" class="st15 st10 st11">du8343r7dzn4w8cnc4w4w</text>
</svg>
