<svg xmlns="http://www.w3.org/2000/svg" viewBox="0 0 60.34 49.57"><defs><style>.cls-1{fill:#fff;}</style></defs><g id="Calque_2" data-name="Calque 2"><g id="Calque_1-2" data-name="Calque 1"><g id="vy1zX4"><path class="cls-1" d="M17.84,38.93A26.43,26.43,0,0,1,0,44.23a9.47,9.47,0,0,0,1.67,1.11,35.68,35.68,0,0,0,18,4.23c11.15-.23,20.17-4.65,27-13.4a36.15,36.15,0,0,0,7.68-22.1,3.35,3.35,0,0,1,1.3-2.75c1.69-1.45,3.15-3.18,4.71-4.8l-.28-.25L54.17,7.85C56,5.84,57.85,4,58.71,1.26c-2,.79-3.92,1.5-5.8,2.24a3,3,0,0,1-3.3-.59,11.79,11.79,0,0,0-13-1.71,11.81,11.81,0,0,0-7.37,11.07c0,1,0,2,0,3.11C19,14.72,10.57,10.19,3.62,2.26c-2.79,6.59-1.73,12,3.49,16.61l-.24.24-5-1.4c.41,6.25,3.66,10.2,9.4,12.48h-5C8.42,35.53,12.19,38.2,17.84,38.93Z"/><path d="M17.84,38.93c-5.65-.73-9.42-3.4-11.55-8.74h5c-5.74-2.28-9-6.23-9.4-12.48l5,1.4.24-.24C1.89,14.28.83,8.85,3.62,2.26c7,7.93,15.35,12.46,25.66,13.12,0-1.14,0-2.13,0-3.11A11.81,11.81,0,0,1,36.66,1.2a11.79,11.79,0,0,1,13,1.71,3,3,0,0,0,3.3.59c1.88-.74,3.76-1.45,5.8-2.24C57.85,4,56,5.84,54.17,7.85l5.89-1.58.28.25c-1.56,1.62-3,3.35-4.71,4.8a3.35,3.35,0,0,0-1.3,2.75,36.15,36.15,0,0,1-7.68,22.1c-6.85,8.75-15.87,13.17-27,13.4a35.68,35.68,0,0,1-18-4.23A9.47,9.47,0,0,1,0,44.23,26.43,26.43,0,0,0,17.84,38.93Z"/></g></g></g></svg>